<?xml version="1.0" standalone="no"?>
<!DOCTYPE svg PUBLIC "-//W3C//DTD SVG 20010904//EN"
 "http://www.w3.org/TR/2001/REC-SVG-20010904/DTD/svg10.dtd">
<svg version="1.0" xmlns="http://www.w3.org/2000/svg"
 width="300.000000pt" height="375.000000pt" viewBox="0 0 300.000000 375.000000"
 preserveAspectRatio="xMidYMid meet">
<metadata>
Created by potrace 1.10, written by Peter Selinger 2001-2011
</metadata>
<g transform="translate(0.000000,375.000000) scale(0.100000,-0.100000)"
fill="#000000" stroke="none">
<path d="M801 3344 c-22 -16 -56 -108 -47 -130 3 -8 2 -13 -2 -10 -11 7 -75
-291 -66 -306 5 -7 3 -8 -6 -3 -10 6 -12 3 -8 -13 4 -12 3 -24 -2 -27 -6 -4
-20 -73 -26 -130 -1 -11 -7 -33 -13 -50 -17 -41 -26 -115 -12 -95 6 8 11 26
12 40 1 20 3 18 9 -10 l7 -35 3 40 c5 59 6 68 14 87 7 15 11 14 33 -10 l25
-27 -22 33 c-12 17 -25 32 -29 32 -4 0 -7 9 -8 20 -1 11 2 20 8 20 5 0 9 -5 9
-12 0 -6 3 -8 6 -5 4 4 2 12 -4 19 -7 9 -6 24 5 51 16 39 30 47 39 22 4 -8 12
-15 19 -15 6 0 20 -8 29 -19 16 -18 15 -20 -26 -44 -24 -15 -37 -26 -30 -27 7
0 10 -4 7 -10 -3 -5 -1 -10 5 -10 7 0 10 7 7 14 -4 9 1 17 12 21 10 3 28 14
40 24 l22 19 -47 34 c-36 26 -42 34 -28 37 11 2 24 8 31 13 7 5 18 6 24 2 8
-4 9 -3 5 4 -4 6 5 18 21 26 15 8 22 15 16 16 -7 0 -38 -14 -69 -31 -31 -16
-58 -29 -60 -27 -1 2 3 24 11 48 7 25 16 58 20 74 5 25 20 29 20 5 0 -5 3 -8
6 -6 3 1 21 -10 40 -24 46 -34 59 -42 59 -32 -1 4 -23 24 -50 43 -50 35 -61
50 -37 50 6 0 39 11 72 25 33 13 52 25 42 25 -9 0 -44 -11 -77 -24 -61 -25
-75 -24 -61 3 5 9 12 35 16 59 l7 44 20 -21 c10 -12 23 -19 29 -16 5 4 9 1 9
-4 0 -6 3 -10 8 -9 4 1 17 -3 30 -10 12 -7 22 -9 22 -4 0 4 -25 21 -55 37 -30
15 -55 34 -55 41 0 7 9 41 20 76 23 74 24 82 8 72 -7 -4 -8 -3 -4 4 11 19 44
14 151 -19 109 -33 141 -53 115 -69 -10 -6 -2 -8 25 -5 33 4 45 0 70 -21 17
-14 40 -33 52 -41 20 -13 22 -50 2 -37 -5 3 -9 -2 -9 -10 0 -10 -6 -13 -15
-10 -8 4 -15 1 -15 -5 0 -14 23 -14 37 0 7 7 17 8 29 1 11 -5 30 -6 44 -1 18
5 20 7 6 8 -12 1 -16 6 -12 16 4 10 -7 21 -34 35 -27 14 -40 27 -40 41 0 27
-19 61 -30 54 -5 -3 -8 -11 -6 -18 1 -7 1 -9 -1 -4 -3 4 -10 4 -15 1 -6 -4 -8
-2 -5 3 4 6 -2 13 -13 16 -12 3 -24 -1 -31 -11 -8 -14 -9 -12 -3 8 9 34 12 36
34 22 11 -7 21 -8 25 -2 6 10 -24 28 -69 41 -27 7 -29 7 -13 -5 9 -7 17 -18
17 -25 0 -13 -27 -15 -32 -2 -1 5 -39 19 -83 31 -80 22 -119 38 -57 25 19 -4
43 -8 55 -9 12 -2 32 -6 44 -10 12 -4 24 -3 27 2 5 9 -140 30 -201 30 -18 -1
-41 -7 -52 -14z"/>
<path d="M840 3304 c0 -8 3 -13 8 -10 4 2 23 -8 42 -24 l35 -28 -60 -28 c-43
-19 -55 -28 -41 -32 10 -2 21 0 25 5 10 14 62 34 72 28 5 -3 6 1 2 11 -5 14
-3 15 14 6 13 -7 24 -7 34 -1 12 9 12 10 -1 7 -8 -3 -19 -1 -25 4 -70 55 -105
76 -105 62z"/>
<path d="M874 3166 c-9 -10 -8 -15 5 -23 17 -11 41 -7 41 7 0 4 -10 6 -22 4
-13 -2 -17 -2 -10 2 13 6 17 24 5 24 -5 -1 -13 -7 -19 -14z"/>
<path d="M1060 3169 c0 -5 -15 -10 -32 -10 -18 -1 -25 -3 -15 -6 9 -2 15 -8
12 -13 -3 -5 -12 -7 -20 -3 -8 3 -15 0 -15 -6 0 -6 8 -11 18 -12 14 0 14 -2
-3 -8 -11 -5 -24 -6 -29 -3 -5 3 -6 0 -2 -6 4 -7 0 -12 -10 -12 -18 0 -12 -12
9 -16 43 -9 51 -11 40 -7 -16 5 -17 33 -2 33 5 0 7 -4 4 -10 -3 -5 -1 -10 5
-10 7 0 10 6 7 13 -6 18 33 69 49 63 7 -3 16 -1 19 3 2 5 -4 11 -15 14 -11 3
-20 1 -20 -4z"/>
<path d="M1140 3130 c-13 -8 -12 -10 3 -10 20 0 22 -11 5 -28 -7 -7 -8 -12 -2
-12 13 0 35 46 27 54 -9 8 -15 7 -33 -4z"/>
<path d="M1364 3111 c6 -8 1 -10 -17 -6 -14 4 -28 2 -31 -4 -4 -6 -1 -9 7 -5
8 3 20 -2 27 -11 10 -12 10 -24 0 -60 -15 -53 -38 -69 -83 -59 -40 10 -117 12
-117 3 0 -7 -50 -23 -62 -21 -5 1 -8 -4 -8 -10 0 -9 -4 -8 -10 2 -7 11 -10 11
-10 2 0 -7 -4 -10 -10 -7 -5 3 -10 1 -10 -6 0 -7 -3 -9 -7 -6 -3 4 -11 0 -17
-9 -6 -8 -19 -16 -28 -17 -14 -3 -45 -25 -116 -84 -15 -13 -32 -27 -38 -32 -7
-5 -15 -7 -18 -4 -3 4 -6 -1 -6 -11 0 -9 -5 -14 -10 -11 -6 4 -10 3 -9 -2 4
-16 -13 -43 -24 -36 -6 3 -7 1 -3 -6 9 -14 -12 -43 -26 -35 -5 3 -8 0 -6 -7 3
-16 -46 -92 -54 -83 -4 3 -9 -4 -13 -15 -3 -12 -10 -21 -15 -21 -9 0 -33 -55
-35 -80 -2 -28 -27 -106 -174 -550 -162 -487 -219 -663 -311 -965 -33 -110
-65 -213 -71 -230 -6 -16 -12 -34 -13 -40 -21 -80 -28 -103 -37 -118 -6 -11
-8 -21 -6 -23 10 -10 26 27 63 139 23 70 43 117 51 117 15 0 17 16 3 25 -15 9
-12 36 6 50 10 6 17 28 19 51 1 21 5 46 8 54 3 8 11 34 17 58 12 46 30 57 30
16 0 -14 4 -22 10 -19 6 4 4 19 -5 42 -9 22 -12 39 -6 42 5 4 9 13 9 21 -1 8
0 24 1 35 1 17 3 18 11 5 8 -11 9 -8 4 12 -3 15 -1 35 6 45 10 15 10 14 5 -10
-4 -19 -2 -26 5 -22 5 3 10 18 10 33 -1 54 9 99 44 197 20 55 36 108 36 118 0
9 5 16 11 15 6 -2 14 3 17 11 3 8 0 11 -6 7 -6 -4 -5 12 4 39 9 25 20 45 26
45 5 0 7 4 4 8 -8 14 16 92 26 86 6 -4 7 2 3 16 -5 14 -3 20 3 16 6 -3 13 11
17 36 4 24 15 61 25 83 10 22 21 56 25 75 4 19 13 43 21 54 7 10 11 23 8 30
-6 15 33 120 46 124 6 2 10 12 10 21 0 10 9 28 20 41 11 13 20 30 20 38 0 12
3 12 15 2 14 -12 14 -15 -1 -31 -10 -11 -12 -19 -6 -19 6 0 16 8 21 18 7 10
14 13 18 7 9 -12 45 -16 38 -5 -3 4 4 10 15 13 11 3 20 11 20 17 0 10 -3 10
-14 1 -11 -9 -15 -9 -19 1 -4 10 -6 10 -6 1 -1 -7 -8 -13 -17 -13 -14 0 -14 3
-4 15 7 8 20 15 29 16 12 0 11 2 -4 9 -29 12 -35 12 -35 -4 0 -8 -7 -16 -15
-20 -8 -3 -15 0 -15 6 0 6 -7 19 -15 28 -26 29 -6 87 53 150 29 30 52 60 52
65 -1 6 -8 1 -16 -10 -16 -20 -16 -20 -12 0 2 13 11 20 26 19 25 -1 28 6 10
24 -8 8 -5 14 16 22 15 5 33 10 39 10 7 0 3 7 -7 15 -11 8 -14 15 -8 15 7 0
12 5 12 11 0 9 39 65 71 103 5 5 15 4 24 -4 9 -7 15 -8 15 -2 0 6 -6 12 -12
15 -17 6 -8 14 25 22 17 5 27 3 27 -4 0 -6 -7 -11 -15 -11 -8 0 -15 -5 -15
-12 0 -6 3 -8 7 -5 3 4 16 1 28 -7 20 -13 48 -8 46 8 -1 3 2 6 5 5 11 -1 23
24 17 34 -3 5 -9 3 -14 -4 -10 -16 -12 23 -3 56 6 25 40 48 56 39 8 -5 6 -10
-7 -14 -23 -8 -29 -58 -9 -78 8 -8 13 -21 10 -29 -3 -8 -6 -21 -6 -29 0 -9 -5
-12 -12 -8 -7 4 -8 3 -4 -4 9 -14 -12 -55 -24 -47 -5 3 -12 0 -16 -6 -4 -8 -3
-9 4 -5 7 4 12 1 12 -8 0 -8 -8 -17 -17 -19 -14 -4 -12 -5 5 -6 28 -1 28 -9
-1 -59 -20 -36 -24 -39 -35 -24 -10 14 -11 14 -2 -5 7 -16 6 -25 -5 -37 -19
-19 -19 -24 2 -28 15 -3 15 -5 2 -18 -8 -8 -19 -24 -23 -35 -5 -13 -10 -15
-13 -7 -7 17 -23 15 -23 -3 0 -8 6 -15 14 -15 8 0 16 -7 20 -15 3 -8 1 -15 -4
-15 -12 0 -42 -69 -35 -80 3 -4 -2 -24 -10 -44 -8 -20 -13 -36 -10 -36 3 0 1
-8 -4 -19 -10 -18 -29 -105 -51 -231 -11 -63 -41 -112 -55 -90 -3 6 -1 10 5
10 7 0 9 8 5 22 -6 17 -4 20 9 15 9 -4 16 -2 16 3 0 6 -5 10 -10 10 -7 0 -7 6
0 19 12 23 13 31 2 31 -8 0 -28 -62 -37 -112 -4 -21 -2 -26 9 -22 18 7 16 -34
-3 -45 -7 -5 -10 -14 -6 -20 8 -13 -13 -71 -25 -71 -5 0 -11 6 -14 13 -3 6 -3
-3 0 -21 4 -22 1 -39 -9 -50 -8 -9 -17 -36 -21 -58 -3 -23 -13 -54 -21 -70
-10 -19 -11 -30 -4 -33 6 -2 -2 -16 -18 -33 -20 -21 -23 -27 -10 -22 16 6 18
3 15 -17 -2 -13 -9 -23 -16 -21 -8 1 -11 -1 -9 -5 3 -5 -3 -25 -13 -46 -10
-20 -14 -37 -9 -37 14 0 10 -13 -12 -40 -11 -14 -18 -19 -14 -12 3 6 1 12 -4
12 -6 0 -11 5 -11 11 0 5 4 7 10 4 6 -4 11 8 11 27 4 94 8 147 12 186 2 23 0
42 -4 42 -5 0 -9 -8 -10 -17 -3 -60 -7 -74 -29 -94 l-25 -21 23 7 c22 6 22 5
10 -14 -7 -12 -16 -21 -21 -21 -4 0 -5 5 -1 12 4 7 3 8 -4 4 -7 -4 -12 -18
-12 -31 0 -13 -7 -31 -16 -40 -13 -12 -14 -19 -5 -28 8 -8 11 -6 11 7 0 11 5
16 14 13 10 -4 13 2 12 23 -2 22 2 28 16 27 14 -1 18 -9 17 -37 -1 -32 -2 -33
-9 -10 l-8 25 -1 -27 c-1 -15 -8 -33 -16 -42 -9 -9 -11 -17 -5 -21 5 -3 10 -1
10 5 0 6 5 8 11 5 13 -9 6 -30 -11 -30 -7 0 -15 -7 -17 -15 -4 -13 -3 -13 6 0
9 13 11 12 11 -5 1 -18 2 -18 10 2 9 23 21 29 33 16 4 -3 -1 -12 -11 -20 -9
-8 -11 -12 -5 -8 17 8 16 -6 -1 -30 -13 -19 -16 -26 -16 -42 0 -5 -4 -2 -9 6
-12 18 -32 5 -24 -16 4 -9 -1 -21 -11 -28 -14 -11 -14 -14 -2 -18 9 -4 16 2
20 16 3 12 7 19 10 16 10 -10 -17 -79 -31 -79 -7 0 -13 -4 -13 -10 0 -5 4 -10
9 -10 11 0 -16 -72 -31 -81 -5 -3 -8 -10 -7 -15 5 -17 -14 -109 -23 -115 -5
-3 -10 -19 -11 -35 -1 -16 -8 -30 -15 -30 -25 -3 -27 -5 -12 -14 13 -8 13 -13
-3 -43 -10 -18 -19 -41 -21 -50 -1 -9 -5 -20 -9 -23 -4 -4 -7 -15 -7 -24 0
-10 -7 -23 -15 -30 -8 -7 -12 -16 -9 -21 9 -15 -16 -80 -28 -73 -7 5 -8 2 -3
-6 6 -10 4 -12 -10 -6 -14 5 -15 4 -7 -7 8 -10 6 -16 -9 -25 -10 -7 -19 -19
-19 -28 0 -8 5 -12 10 -9 6 4 8 11 5 16 -4 5 -2 9 4 9 20 0 23 -22 5 -35 -11
-9 -14 -14 -6 -15 6 0 12 -4 12 -8 0 -14 -36 -52 -49 -52 -7 0 -9 -5 -6 -10 4
-6 11 -8 16 -5 15 10 10 -31 -11 -79 -10 -25 -17 -46 -15 -46 3 0 -2 -16 -10
-36 -8 -20 -15 -45 -15 -55 0 -11 -3 -19 -7 -19 -5 0 -8 -11 -8 -25 0 -52 25
-21 53 67 66 204 258 789 346 1058 125 380 181 558 211 660 56 197 138 469
156 520 11 30 24 71 28 90 10 39 93 286 144 425 l33 90 49 -1 c110 -2 161 -9
192 -27 18 -10 38 -15 44 -11 7 4 9 3 5 -4 -4 -6 21 -25 64 -47 48 -26 84 -54
117 -94 26 -31 58 -65 70 -76 12 -11 29 -38 38 -59 9 -22 28 -54 41 -72 39
-50 104 -228 130 -352 37 -179 66 -455 67 -653 1 -97 5 -173 8 -167 3 5 9 0
12 -11 6 -23 -8 -38 -17 -19 -4 7 -4 2 -1 -12 2 -14 5 -33 5 -42 0 -13 8 -18
28 -18 44 0 232 118 225 141 -2 5 3 6 10 3 8 -2 37 20 66 50 45 48 50 59 41
76 -7 13 -7 20 0 20 5 0 10 9 10 19 0 11 5 23 10 26 11 7 14 -28 3 -39 -10 -9
-13 -36 -4 -36 7 0 116 137 144 183 10 16 16 35 13 42 -2 7 2 21 9 32 18 23
19 53 2 53 -8 0 -19 10 -25 23 -6 12 -11 16 -11 8 -1 -11 -4 -11 -16 -1 -9 7
-18 10 -22 6 -4 -3 2 -12 12 -20 11 -8 16 -20 12 -29 -4 -11 -2 -14 9 -10 9 3
14 -1 14 -12 0 -12 -5 -15 -16 -11 -13 5 -15 2 -10 -16 3 -13 6 -27 6 -32 0
-5 7 -3 15 4 12 10 15 10 15 -3 0 -9 -4 -18 -9 -21 -11 -7 -43 28 -34 37 3 4
-8 2 -25 -4 -39 -13 -42 -31 -4 -24 26 5 26 5 5 -6 -13 -7 -23 -21 -23 -31 0
-16 3 -17 21 -8 19 11 20 10 9 -9 -13 -26 -40 -28 -40 -3 0 13 -2 14 -9 3 -5
-7 -14 -10 -20 -7 -6 4 -11 0 -11 -8 0 -9 7 -16 16 -16 11 0 14 -5 10 -16 -3
-9 -6 -20 -6 -25 0 -5 -9 -4 -19 3 -11 6 -17 19 -14 27 3 10 2 12 -4 6 -4 -6
-18 -12 -31 -12 -20 -2 -21 0 -7 13 8 9 15 25 14 37 0 21 -1 21 -8 2 -8 -19
-8 -19 -19 1 -6 12 -9 24 -5 27 7 8 -16 37 -29 37 -6 0 -6 -6 1 -14 13 -16 0
-61 -21 -69 -7 -3 0 -6 16 -6 26 -1 28 -3 23 -30 -5 -21 -2 -31 10 -35 13 -5
14 -4 3 9 -15 18 1 20 18 3 9 -9 12 -9 12 1 0 7 5 9 12 5 8 -5 4 -13 -11 -25
-18 -15 -22 -26 -18 -54 5 -39 1 -42 -23 -20 -15 14 -16 12 -12 -13 5 -36 -43
-86 -59 -62 -9 13 -10 13 -6 -1 5 -16 -40 -59 -63 -59 -5 0 -9 -3 -8 -7 2 -5
-1 -8 -7 -8 -5 0 -9 6 -9 12 1 8 -10 5 -27 -8 -16 -11 -29 -29 -29 -40 0 -19
-16 -24 -44 -13 -13 5 -14 9 -5 20 8 9 16 11 23 5 8 -7 12 -4 12 8 0 13 -6 17
-20 13 -13 -4 -17 -1 -12 7 4 7 2 10 -5 9 -6 -2 -14 3 -16 10 -3 6 0 12 6 12
14 0 5 45 -14 76 -7 11 -13 47 -13 80 1 47 -10 297 -14 352 -1 6 -4 12 -7 12
-3 0 -7 19 -8 43 -3 58 -10 107 -18 137 -4 14 -7 37 -8 53 0 15 -5 27 -10 27
-5 0 -7 9 -4 20 3 11 1 20 -3 20 -5 0 -9 8 -9 18 -2 40 -7 68 -14 80 -5 6 -6
12 -3 12 3 0 1 12 -5 28 -6 15 -13 36 -15 47 -13 55 -24 76 -36 69 -6 -4 -8 1
-4 14 6 19 -22 108 -31 98 -3 -2 0 -13 5 -23 5 -10 12 -31 16 -48 3 -16 -12 6
-35 50 -23 44 -53 94 -68 111 -41 49 -55 67 -75 99 -11 17 -27 36 -35 43 -14
11 -14 11 3 6 16 -6 17 -4 7 14 -7 12 -17 22 -23 22 -7 0 -7 4 -1 13 13 15 53
123 53 142 0 16 -61 38 -83 29 -10 -4 -17 -1 -17 6 0 7 -7 10 -15 7 -8 -4 -17
-2 -20 3 -10 16 -25 11 -25 -8 0 -31 -31 -112 -43 -112 -7 0 -7 -4 1 -12 8 -8
15 -9 20 -3 4 6 21 -3 42 -22 19 -18 29 -33 22 -33 -7 0 -12 5 -12 11 0 6 -9
8 -21 4 -14 -5 -19 -3 -15 3 3 6 -8 15 -24 21 -22 7 -30 7 -30 -2 0 -7 -4 -6
-10 3 -5 9 -5 17 0 20 6 3 14 28 19 54 5 26 14 53 20 59 17 17 13 44 -6 51
-10 3 -25 9 -33 12 -9 4 -8 1 3 -7 16 -13 16 -18 2 -64 -8 -28 -15 -60 -15
-72 0 -13 -4 -23 -10 -23 -5 0 -10 5 -10 10 0 6 -7 10 -15 10 -14 0 -14 3 -1
28 21 41 31 118 15 127 -8 5 -10 4 -5 -4z m230 -81 c22 -8 24 -13 16 -37 -21
-68 -42 -123 -48 -123 -4 0 -17 8 -29 18 l-23 17 22 68 c12 37 25 67 29 67 4
0 19 -4 33 -10z m-71 -50 c-17 -43 -33 -53 -33 -20 0 11 5 20 10 20 6 0 10 8
10 18 0 22 9 34 21 27 4 -3 0 -23 -8 -45z m-468 -130 c3 -11 2 -28 -4 -37 -10
-19 -13 -15 -24 35 -6 28 19 30 28 2z m-89 -28 c2 -9 -2 -20 -9 -24 -9 -6 -9
-8 1 -8 7 0 10 -4 7 -10 -11 -17 -23 -11 -29 15 -4 15 -1 31 6 39 15 16 21 13
24 -12z"/>
<path d="M1255 3074 c-4 -10 -9 -30 -11 -44 -3 -21 -1 -19 12 9 8 18 13 38 11
44 -2 6 -7 2 -12 -9z"/>
<path d="M890 3050 c-11 -7 -12 -12 -3 -21 13 -13 33 -4 33 17 0 16 -9 18 -30
4z"/>
<path d="M1020 3039 c0 -5 3 -8 8 -6 7 5 33 -18 27 -24 -2 -2 9 -4 24 -4 15 0
28 5 28 12 0 7 -10 11 -21 9 -11 -2 -27 3 -34 11 -16 16 -32 17 -32 2z"/>
<path d="M1655 2965 c-10 -31 -22 -52 -28 -48 -5 3 -7 1 -3 -5 3 -6 1 -22 -5
-36 -18 -38 -3 -44 29 -13 34 32 42 34 42 7 0 -12 -7 -20 -17 -21 -11 0 -13
-3 -5 -6 12 -5 18 -63 6 -63 -3 0 -15 11 -26 26 -24 30 -35 25 -17 -8 36 -67
60 -97 74 -92 8 4 12 10 9 15 -3 5 -9 7 -14 4 -4 -3 -13 2 -19 9 -10 12 -8 13
9 9 17 -5 24 4 47 56 18 42 29 58 35 49 5 -8 6 -3 2 13 -7 32 9 45 29 25 13
-13 17 -10 32 24 10 22 21 37 25 35 5 -3 6 5 3 16 -6 20 -3 21 23 16 73 -16
374 -27 464 -18 l95 10 -90 -4 c-126 -5 -416 11 -505 28 -41 8 -98 18 -127 21
l-51 6 -17 -55z m133 29 c34 -3 62 -10 62 -14 0 -4 -9 -27 -20 -51 -11 -24
-20 -38 -20 -31 0 7 -4 10 -10 7 -11 -7 -13 6 -4 30 6 13 9 14 16 3 6 -9 7 -5
3 11 -5 16 -4 21 4 17 6 -4 11 -2 11 3 0 24 -28 9 -41 -21 -42 -107 -90 -198
-100 -192 -8 4 -8 9 0 17 6 6 11 39 11 73 0 60 1 63 41 99 22 20 39 39 36 41
-3 3 -20 -9 -38 -26 l-34 -31 -6 38 -6 38 -2 -46 c-1 -35 -7 -51 -27 -70 -29
-27 -29 -24 1 64 16 50 22 57 40 53 11 -3 48 -8 83 -12z"/>
<path d="M2758 2974 c14 -6 17 -34 3 -34 -13 0 -5 -91 10 -104 9 -8 10 -8 5 1
-3 6 -2 14 3 17 5 4 5 21 1 43 -11 45 -8 49 15 27 13 -14 16 -29 12 -67 -2
-27 -11 -54 -18 -59 -11 -8 -10 -9 4 -4 11 3 17 0 17 -10 0 -11 -5 -14 -16
-10 -13 5 -14 4 -6 -7 11 -12 14 -46 11 -92 -1 -11 -13 -30 -26 -42 -27 -25
-30 -43 -8 -43 29 0 38 -60 20 -138 -3 -13 -10 -20 -16 -17 -7 5 -6 11 1 20 8
9 6 14 -9 18 -17 4 -18 2 -9 -24 5 -16 15 -29 20 -29 6 0 5 -6 -2 -15 -7 -8
-10 -15 -6 -15 3 0 0 -15 -8 -34 -8 -19 -17 -55 -20 -81 -4 -26 -13 -53 -21
-61 -7 -7 -11 -22 -8 -33 3 -10 0 -22 -6 -25 -6 -4 -11 -17 -11 -30 0 -26 -31
-58 -62 -63 -16 -3 -19 1 -15 16 3 13 1 18 -8 14 -16 -5 -27 -31 -20 -43 3 -4
-2 -11 -11 -14 -8 -3 -12 -11 -8 -17 4 -7 3 -9 -4 -5 -6 3 -13 2 -17 -4 -3 -6
0 -13 8 -16 9 -3 12 -14 9 -29 -3 -20 -7 -23 -22 -15 -15 8 -20 6 -25 -11 -4
-11 -4 -23 -1 -26 3 -4 6 1 6 10 0 10 7 17 16 17 12 0 15 -7 12 -24 -3 -15 0
-27 8 -30 19 -7 30 14 13 25 -11 7 -11 9 -1 9 9 0 11 7 7 19 -3 12 0 21 10 25
8 3 15 13 15 23 0 15 -2 16 -10 3 -13 -20 -13 0 0 37 9 25 15 29 35 25 21 -4
24 -8 19 -31 -4 -14 -10 -33 -15 -42 -5 -9 -6 -19 -3 -21 2 -3 -2 -11 -11 -18
-8 -7 -15 -21 -15 -31 0 -9 -7 -25 -16 -33 -8 -9 -13 -16 -9 -16 3 0 -2 -12
-11 -27 -15 -27 -15 -27 1 -8 26 30 97 181 99 209 0 13 4 22 7 20 31 -19 152
455 131 515 -8 21 -7 31 1 34 7 2 12 54 15 148 4 169 -7 223 -48 226 -14 1
-19 0 -12 -3z"/>
<path d="M2575 2954 c-15 -15 -29 -19 -21 -5 6 9 -86 5 -114 -5 -13 -4 -13 -6
0 -14 11 -7 7 -10 -17 -11 -42 -2 -45 -3 -61 -13 -8 -5 -18 -4 -25 3 -8 8 -8
11 1 11 7 0 12 5 12 10 0 6 -25 10 -55 10 -30 0 -55 -4 -55 -10 0 -5 20 -7 47
-5 25 3 43 2 40 -2 -4 -3 -2 -13 5 -20 9 -11 9 -16 -1 -22 -13 -8 -62 9 -56
19 2 3 -6 7 -17 7 -11 1 -26 10 -33 20 -10 13 -13 14 -12 3 2 -8 6 -21 10 -27
5 -7 3 -21 -2 -30 -6 -11 -11 -13 -11 -5 0 10 -5 10 -20 2 -25 -13 -41 -5 -33
16 5 14 3 14 -15 3 -12 -8 -24 -20 -27 -27 -7 -18 41 -67 50 -52 3 5 15 10 25
10 16 0 18 -5 14 -27 -6 -30 10 -83 25 -83 5 0 3 21 -5 46 -12 40 -12 45 1 41
9 -4 12 -1 8 9 -3 7 -9 14 -13 14 -4 0 -10 6 -13 14 -4 10 0 14 13 13 11 -1
22 -7 25 -15 3 -7 9 -10 15 -7 13 8 13 -8 -2 -40 -9 -21 -9 -28 1 -35 9 -5 10
-13 5 -21 -12 -19 -12 -33 1 -41 6 -5 6 -8 -2 -8 -7 0 -10 -7 -7 -15 5 -11 -1
-15 -19 -15 -14 0 -29 5 -32 10 -12 20 -26 10 -19 -12 4 -13 8 -36 8 -53 1
-16 5 -30 11 -30 12 0 15 35 4 56 -13 25 14 19 34 -8 14 -18 15 -23 4 -23 -23
0 -28 -48 -6 -55 17 -6 34 -34 25 -43 -3 -2 -19 6 -35 18 -23 16 -29 17 -25 6
3 -9 14 -16 23 -16 14 0 14 -2 1 -10 -13 -8 -13 -10 1 -10 25 0 31 -27 8 -33
-10 -3 -17 -2 -15 1 2 4 -4 15 -14 25 -17 17 -18 17 -24 1 -4 -11 -1 -21 9
-26 17 -10 21 -38 5 -38 -12 0 -37 39 -42 65 -2 12 2 19 10 17 6 -1 12 2 12 8
0 13 -17 13 -25 0 -10 -16 -21 -12 -22 8 -1 15 4 17 28 14 19 -3 29 0 29 8 0
7 -8 10 -20 7 -23 -6 -27 11 -5 19 8 4 13 10 10 15 -3 4 -13 5 -22 2 -10 -4
-14 -2 -9 5 3 6 -4 18 -16 27 -20 13 -21 17 -8 25 8 5 11 10 5 10 -5 0 -4 4 4
9 9 6 11 16 7 27 -7 18 -8 18 -19 -1 -6 -11 -12 -26 -13 -33 -3 -20 -9 -23
-28 -16 -9 3 -19 17 -22 29 -6 26 12 69 26 60 5 -3 11 -1 14 4 4 5 2 12 -3 16
-18 11 -42 68 -32 78 5 5 7 17 4 26 -4 13 -3 13 5 2 6 -8 8 -21 5 -30 -4 -14
-3 -14 6 -1 15 20 14 23 -9 50 -20 23 -26 17 -20 -19 1 -13 -1 -13 -15 -1 -9
7 -14 19 -11 27 3 8 0 13 -7 12 -23 -3 -52 3 -40 8 17 6 -2 43 -23 43 -9 0
-12 5 -8 13 5 9 4 9 -6 0 -8 -7 -15 -19 -16 -27 -2 -12 3 -13 22 -6 15 6 24 6
24 -1 0 -5 -7 -12 -15 -15 -8 -4 -15 -11 -15 -17 0 -6 3 -8 6 -4 10 10 64 -14
64 -30 0 -8 4 -12 9 -9 15 9 31 -18 21 -34 -14 -21 -12 -30 5 -30 8 0 15 -4
15 -10 0 -5 -5 -10 -11 -10 -8 0 -8 -4 -1 -12 8 -10 4 -13 -13 -14 -15 -1 -22
3 -19 10 3 7 -7 18 -21 24 -14 7 -23 17 -20 22 3 6 -1 10 -9 10 -9 0 -16 7
-16 15 0 17 -16 20 -25 5 -3 -5 -2 -10 3 -10 5 0 9 -7 9 -15 0 -8 -5 -12 -10
-8 -5 3 -7 -3 -3 -13 3 -11 1 -26 -5 -34 -9 -13 -10 -12 -5 2 3 11 -4 24 -19
37 -30 23 -32 35 -5 26 15 -5 20 -2 22 12 2 33 3 38 10 49 8 11 1 24 -13 24
-4 0 -10 -11 -13 -25 -5 -21 -9 -23 -31 -15 -16 6 -25 6 -25 0 0 -6 7 -10 15
-10 21 0 19 -16 -4 -32 -14 -10 -17 -18 -10 -28 7 -13 9 -13 9 -1 0 8 16 -4
36 -28 23 -27 42 -40 51 -36 10 3 13 1 10 -9 -6 -16 16 -28 37 -20 10 4 12 -2
8 -21 -4 -24 -2 -25 21 -20 21 6 33 -1 66 -34 23 -23 46 -41 51 -41 6 0 10 -4
10 -10 0 -5 -4 -10 -10 -10 -5 0 -10 -6 -10 -14 0 -8 -6 -17 -12 -19 -10 -4
-10 -6 0 -6 6 -1 12 -8 12 -17 0 -8 4 -13 9 -10 14 9 20 -16 9 -37 -5 -10 -7
-21 -4 -25 3 -3 6 0 6 7 0 9 5 9 20 1 24 -13 26 -30 5 -30 -8 0 -15 -8 -15
-17 0 -12 3 -14 8 -6 4 6 20 17 36 23 24 9 32 7 47 -6 11 -10 19 -25 19 -36 0
-10 5 -18 11 -18 5 0 7 5 4 10 -8 13 11 12 54 -4 32 -12 33 -13 16 -30 -15
-15 -16 -22 -7 -37 9 -14 8 -21 -5 -35 -15 -15 -15 -16 3 -12 15 3 19 12 19
40 0 29 7 43 33 66 26 23 30 31 17 35 -8 4 -15 12 -15 19 0 9 3 9 12 0 15 -15
32 -16 23 -2 -3 6 -2 10 3 10 9 0 20 -26 18 -42 -1 -4 8 -13 18 -21 11 -8 16
-19 12 -25 -4 -7 -2 -12 3 -12 6 0 11 7 11 15 0 8 7 15 15 15 8 0 15 -7 15
-16 0 -8 4 -13 10 -9 5 3 7 11 4 19 -3 7 6 17 20 24 14 6 26 7 28 2 2 -4 10
-1 18 8 13 14 12 15 -2 10 -10 -4 -19 -1 -22 8 -3 8 1 14 9 14 8 0 15 6 15 13
0 7 3 8 8 2 12 -17 42 -17 42 0 0 20 6 19 30 -5 21 -21 50 -27 50 -10 0 6 -11
16 -25 22 -14 6 -25 18 -25 27 0 14 2 14 10 1 10 -16 14 -8 10 25 -2 15 1 17
12 8 11 -10 14 -6 13 20 0 19 6 35 15 39 11 5 9 7 -7 7 -22 1 -34 21 -13 21 6
0 9 3 8 8 0 4 2 15 7 25 13 30 -1 29 -36 -2 -18 -17 -28 -31 -21 -31 6 0 12
-11 12 -25 0 -14 5 -25 10 -25 6 0 10 -4 10 -9 0 -5 -9 -7 -20 -4 -11 3 -17
10 -13 17 4 7 1 6 -9 -1 -8 -7 -19 -9 -23 -5 -5 4 -4 1 0 -7 6 -11 4 -13 -9
-8 -10 4 -15 3 -11 -3 3 -6 13 -10 22 -10 10 0 13 -6 9 -16 -3 -8 -2 -12 4 -9
6 3 10 0 10 -8 0 -18 -27 -31 -55 -28 -23 3 -66 31 -47 31 6 0 12 5 12 11 0 5
-4 8 -9 4 -5 -3 -16 4 -24 15 -14 20 -15 20 -20 1 -3 -13 -1 -18 9 -14 9 3 12
-3 11 -23 -1 -16 3 -29 10 -29 15 0 30 -15 15 -15 -7 0 -12 -9 -12 -21 0 -11
-5 -17 -10 -14 -6 4 -8 10 -5 15 3 5 -3 8 -13 7 -14 -1 -17 -7 -14 -25 4 -20
1 -23 -19 -20 -19 2 -23 8 -21 28 4 21 2 22 -12 11 -20 -17 -21 -3 -1 19 14
16 14 17 -8 13 -16 -3 -26 1 -30 11 -4 9 -2 16 4 16 6 0 7 5 4 10 -3 6 -1 10
5 10 6 0 13 -7 16 -15 4 -8 12 -15 20 -15 8 0 14 -4 14 -10 0 -5 7 -7 15 -3
20 7 13 29 -7 25 -10 -1 -15 4 -14 15 1 12 -5 17 -18 15 -11 -2 -15 1 -11 7
11 19 -3 12 -25 -11 -11 -12 -20 -30 -20 -40 0 -10 -6 -18 -14 -18 -8 0 -16
-5 -18 -11 -3 -8 -15 -9 -36 -4 -19 4 -29 11 -26 17 4 6 1 9 -7 6 -20 -7 -17
-33 4 -32 9 1 17 -4 17 -10 0 -8 -11 -11 -30 -8 -16 2 -30 10 -30 17 0 7 -6
16 -12 18 -9 4 -4 14 15 31 15 14 27 31 27 37 0 7 -6 4 -14 -6 -13 -18 -13
-17 -13 8 0 15 3 30 8 33 5 3 9 14 9 25 0 14 -7 19 -25 19 -14 0 -25 5 -25 10
0 6 5 10 10 10 6 0 10 7 10 15 0 12 7 11 33 -7 42 -30 49 -41 34 -53 -6 -6
-13 -16 -15 -24 -3 -12 0 -12 12 -1 14 11 15 9 10 -18 -3 -17 -1 -32 5 -36 7
-5 9 -1 5 9 -5 11 -2 14 10 9 9 -3 16 -1 16 6 0 6 5 8 13 4 7 -5 6 0 -3 11 -8
10 -10 16 -4 12 7 -4 15 0 18 9 3 8 2 12 -4 9 -6 -3 -10 2 -10 12 -1 17 -2 16
-16 -2 -16 -20 -16 -20 -12 0 2 11 8 24 13 28 6 5 4 7 -5 4 -17 -4 -40 15 -40
35 0 10 -2 10 -9 -1 -5 -7 -14 -10 -20 -7 -6 4 -9 12 -6 17 4 5 -1 9 -10 9 -9
0 -13 5 -10 10 4 6 3 10 -2 9 -20 -3 -23 2 -9 16 19 19 26 19 26 -2 0 -15 2
-14 15 3 18 24 19 40 1 25 -10 -9 -15 -8 -19 3 -3 8 -1 17 6 20 9 3 9 5 0 5
-7 1 -13 10 -13 22 0 11 5 17 10 14 6 -3 10 -2 10 4 0 5 -4 12 -9 16 -10 5 -7
37 4 55 4 6 11 8 16 5 5 -3 6 1 3 9 -4 11 0 13 18 9 13 -3 19 -1 13 4 -5 4
-11 16 -13 26 -3 16 0 17 18 7 11 -6 17 -16 14 -22 -4 -7 -3 -8 4 -4 7 4 12
18 12 31 0 12 7 26 16 29 23 9 27 8 20 -9 -3 -8 -1 -15 4 -15 5 0 11 -6 13
-12 2 -7 3 -1 1 14 -3 28 22 48 28 21 2 -13 9 -11 34 11 37 30 46 32 42 10 -2
-10 4 -19 12 -21 11 -3 11 -2 3 4 -8 5 -9 14 -3 23 7 12 10 11 16 -4 5 -12 2
-23 -9 -31 -10 -7 -17 -17 -17 -22 0 -13 -48 -14 -56 -2 -3 5 -11 9 -17 9 -7
-1 -1 -9 12 -20 19 -17 21 -21 7 -26 -9 -3 -13 -10 -10 -15 3 -5 0 -9 -5 -9
-6 0 -11 5 -11 11 0 18 -43 5 -46 -14 -1 -9 1 -15 6 -12 5 3 10 0 12 -7 3 -9
6 -9 12 0 4 7 2 12 -3 12 -6 0 -11 4 -11 9 0 6 16 3 35 -5 33 -14 35 -13 35 6
0 11 7 20 16 20 8 0 12 5 9 10 -3 6 0 10 7 10 19 0 40 -15 36 -26 -1 -5 4 -20
12 -34 7 -14 14 -27 14 -30 1 -2 6 -5 13 -6 7 -1 4 13 -7 39 -10 23 -16 45
-13 51 3 5 1 6 -5 2 -7 -4 -12 -2 -12 4 0 6 -6 8 -12 4 -7 -4 0 5 15 20 24 22
27 29 17 41 -9 11 -10 15 -1 15 7 0 9 5 5 12 -4 7 -3 8 4 4 6 -4 20 -3 30 3
21 11 52 -2 32 -14 -6 -4 -14 -4 -18 -1 -3 4 -11 -6 -17 -21 -10 -23 -9 -29 4
-34 13 -6 11 -9 -8 -16 -15 -6 -20 -12 -14 -16 12 -7 43 17 43 33 0 5 -5 12
-11 16 -11 6 36 53 53 54 4 0 15 -16 23 -37 8 -20 18 -33 22 -30 3 4 0 18 -7
32 -14 27 -5 49 10 25 6 -8 10 -10 10 -5 -1 22 -29 45 -54 45 -14 0 -26 -4
-26 -9 0 -5 -15 -5 -35 -1 -26 6 -39 4 -50 -6z m-270 -94 c3 -5 1 -10 -4 -10
-6 0 -11 -7 -11 -15 0 -12 -3 -13 -19 -3 -18 11 -18 13 -3 25 21 15 29 16 37
3z m-303 -129 c-10 -6 -5 -11 18 -20 28 -9 31 -13 20 -26 -9 -11 -16 -13 -24
-5 -5 5 -19 10 -29 10 -13 0 -17 5 -14 15 8 19 -11 31 -26 16 -16 -16 -27 -14
-21 4 4 10 20 15 48 15 26 0 36 -3 28 -9z"/>
<path d="M2059 2948 c-1 -2 -3 -15 -4 -29 -3 -22 0 -26 16 -22 10 3 19 12 19
19 0 8 6 14 13 14 21 0 28 -12 16 -27 -18 -20 -1 -15 21 7 11 11 19 20 18 21
-26 8 -63 7 -74 -2 -13 -10 -18 -6 -15 14 1 6 -7 10 -10 5z"/>
<path d="M864 2917 c-11 -25 -8 -47 7 -47 4 0 6 7 3 15 -4 8 -2 15 3 15 5 0 9
9 9 20 0 26 -9 25 -22 -3z"/>
<path d="M2661 2876 c-5 -21 -8 -43 -5 -51 3 -7 1 -16 -5 -20 -7 -3 -8 0 -5 9
8 20 -3 21 -21 2 -12 -12 -11 -15 6 -19 22 -6 23 -44 1 -39 -15 3 -15 -11 0
-26 17 -17 39 -15 32 2 -3 9 3 17 15 21 23 7 29 24 9 21 -14 -1 -18 5 -18 31
0 15 2 14 18 -3 28 -30 34 -65 14 -80 -16 -12 -15 -13 6 -14 14 0 22 6 23 18
0 10 3 12 6 4 2 -6 9 -10 14 -6 5 3 -1 14 -13 24 -20 16 -21 22 -11 39 15 23
7 51 -13 51 -8 0 -14 4 -14 10 0 5 8 7 18 3 15 -5 15 -4 2 8 -8 8 -23 22 -32
33 -16 18 -17 17 -27 -18z"/>
<path d="M1792 2843 c-5 -10 -19 -44 -32 -76 -12 -31 -30 -62 -39 -68 -14 -9
-14 -9 2 -7 12 2 30 30 53 82 19 43 33 81 30 83 -2 3 -9 -4 -14 -14z"/>
<path d="M1978 2817 c11 -12 17 -28 15 -34 -3 -7 0 -13 7 -13 6 0 8 5 5 10 -3
6 -1 10 4 10 6 0 11 7 11 16 0 8 -4 12 -10 9 -5 -3 -10 -2 -10 3 0 5 -10 12
-21 15 l-21 6 20 -22z"/>
<path d="M2091 2804 c-1 -6 6 -17 14 -24 8 -7 13 -23 11 -36 -4 -18 3 -29 26
-45 34 -25 94 -33 76 -11 -6 6 -16 12 -24 12 -7 0 -16 9 -19 20 -3 11 -13 20
-21 20 -17 0 -18 12 -3 27 9 9 7 10 -10 6 -22 -6 -30 11 -8 21 6 4 2 4 -10 2
-12 -2 -24 1 -27 8 -3 8 -5 8 -5 0z"/>
<path d="M2320 2783 c0 -8 -5 -11 -11 -7 -14 8 -1 -38 14 -47 5 -4 1 -12 -9
-19 -18 -11 -18 -11 0 -6 16 6 17 4 6 -9 -9 -11 -9 -15 -1 -15 7 0 9 -4 6 -10
-3 -5 0 -10 8 -10 9 0 13 11 11 38 -3 53 -3 54 -13 48 -5 -4 -8 2 -7 11 3 17
20 21 22 6 3 -26 26 -63 38 -63 10 0 13 6 10 15 -4 8 -11 12 -18 9 -6 -3 0 3
14 14 14 12 21 24 17 29 -5 4 -12 1 -16 -6 -5 -7 -14 -10 -20 -6 -9 5 -9 10
-1 20 8 10 4 14 -20 17 -21 3 -30 0 -30 -9z"/>
<path d="M2516 2784 c-10 -26 -7 -34 14 -34 10 0 23 -8 29 -17 7 -14 9 -12 8
10 -1 15 -5 27 -9 27 -5 0 -8 7 -8 15 0 20 -26 19 -34 -1z"/>
<path d="M2449 2751 c-8 -2 -20 -11 -29 -20 -13 -13 -13 -14 3 -8 26 10 48 -2
38 -21 -5 -10 -3 -27 5 -42 9 -17 14 -20 14 -9 0 20 15 26 58 23 25 -1 31 1
23 9 -6 6 -29 11 -51 10 -24 -1 -38 2 -35 8 4 5 12 6 18 3 9 -5 9 -4 0 6 -8 8
-9 19 -3 29 6 13 4 17 -10 17 -10 0 -24 -2 -31 -5z"/>
<path d="M936 2703 c-10 -14 -20 -45 -22 -69 -2 -24 -8 -53 -14 -64 -8 -14 -8
-20 0 -20 6 0 14 10 19 23 11 26 34 108 35 122 1 6 5 13 10 16 4 4 4 9 0 12
-5 3 -17 -6 -28 -20z"/>
<path d="M1840 2703 c-14 -3 -29 -9 -35 -15 -7 -7 -3 -8 11 -4 15 4 24 2 28
-9 4 -11 -1 -15 -17 -16 -21 0 -21 -1 -2 -8 11 -5 22 -5 25 0 6 9 33 -10 46
-34 10 -17 11 -17 29 3 18 20 18 20 -3 20 -17 0 -20 5 -17 28 2 15 2 21 -1 15
-8 -18 -44 -16 -44 1 0 8 6 17 13 19 14 6 2 6 -33 0z"/>
<path d="M2440 2702 c0 -7 -9 -12 -19 -12 -11 0 -23 -4 -26 -10 -3 -5 -1 -10
4 -10 6 0 11 -5 11 -11 0 -5 -6 -7 -12 -3 -7 4 -10 4 -6 -1 4 -4 3 -14 -3 -22
-9 -10 -1 -9 27 3 45 19 59 29 27 22 -21 -6 -21 -5 -6 18 9 14 13 27 9 31 -3
3 -6 1 -6 -5z"/>
<path d="M2650 2689 c0 -11 -10 -30 -22 -40 l-23 -20 28 17 c25 15 27 15 27 0
0 -9 -6 -16 -13 -16 -10 0 -12 -10 -9 -32 l5 -33 9 32 c9 36 28 54 28 27 0
-16 1 -16 20 1 11 10 17 22 13 28 -4 6 -1 7 7 2 8 -5 11 -3 8 5 -6 18 -38 21
-38 4 0 -12 -2 -12 -14 -2 -12 11 -11 14 7 21 18 7 19 10 7 17 -24 16 -40 11
-40 -11z"/>
<path d="M2583 2684 c0 -8 4 -14 9 -14 5 0 6 -4 3 -10 -3 -5 -1 -10 5 -10 7 0
9 7 6 16 -5 13 -2 15 14 11 13 -3 20 -1 18 5 -6 17 -55 19 -55 2z"/>
<path d="M2553 2644 c0 -7 3 -11 7 -9 8 5 40 -31 40 -46 0 -14 23 -6 28 9 2 7
-3 12 -12 12 -8 0 -20 8 -25 19 -13 23 -38 34 -38 15z"/>
<path d="M2325 2640 c-4 -6 -11 -8 -16 -5 -5 4 -9 1 -9 -4 0 -6 6 -11 13 -11
8 0 22 -9 32 -20 10 -11 22 -17 27 -14 6 4 6 10 -1 17 -6 6 -11 19 -11 29 0
19 -25 25 -35 8z"/>
<path d="M802 2625 c4 -4 3 -16 -3 -26 -7 -15 -6 -19 6 -19 8 0 15 7 15 16 0
8 5 12 10 9 6 -3 10 -4 10 -1 0 3 -10 11 -22 17 -13 6 -20 8 -16 4z"/>
<path d="M1845 2609 c-4 -6 1 -16 10 -23 15 -11 15 -13 1 -25 -17 -14 -11 -41
10 -41 17 0 18 17 2 23 -10 3 -10 7 0 19 10 13 9 18 -3 28 -13 11 -13 15 -3
21 9 6 9 9 1 9 -6 0 -15 -5 -18 -11z"/>
<path d="M1916 2598 c-9 -12 -16 -18 -17 -13 0 6 -4 1 -8 -10 -5 -11 -7 -33
-6 -48 2 -17 -1 -27 -8 -26 -7 1 -21 1 -32 0 -18 -1 -19 -2 -3 -12 15 -8 44
-1 66 16 1 1 -2 15 -8 31 l-11 29 24 -29 c15 -19 26 -25 31 -18 3 6 -1 15 -10
20 -24 13 -11 42 17 37 21 -4 21 -4 3 18 -10 12 -20 23 -20 25 -1 2 -9 -7 -18
-20z"/>
<path d="M2035 2579 c9 -44 17 -61 26 -52 6 6 5 22 -2 41 -12 36 -30 44 -24
11z"/>
<path d="M2570 2593 c0 -6 -8 -14 -17 -16 -15 -4 -15 -6 5 -12 30 -10 28 -31
-5 -49 l-28 -15 25 -1 c14 -1 19 -4 13 -7 -7 -2 -13 -9 -13 -15 0 -6 7 -8 15
-4 8 3 24 -4 35 -16 11 -12 20 -17 20 -10 0 6 -5 14 -10 17 -6 4 -8 11 -5 16
4 5 -1 9 -10 9 -9 0 -13 5 -10 10 4 6 11 8 16 4 11 -6 39 13 39 27 0 5 -7 9
-15 9 -8 0 -15 -6 -15 -13 0 -8 -6 -14 -14 -14 -11 0 -13 8 -9 28 3 15 0 35
-6 46 -6 10 -11 13 -11 6z"/>
<path d="M2392 2583 c-18 -7 5 -33 29 -33 17 0 18 3 7 20 -13 21 -15 22 -36
13z"/>
<path d="M755 2534 c-8 -19 -19 -33 -24 -30 -10 6 -23 -23 -26 -56 -1 -13 2
-15 10 -8 12 10 25 4 25 -12 0 -5 -5 -6 -12 -2 -7 4 -8 3 -4 -4 4 -6 2 -21 -5
-34 -11 -21 -12 -21 -24 8 l-12 29 -12 -24 c-11 -20 -10 -26 8 -44 l21 -21 24
23 c14 13 23 27 21 32 -3 4 0 9 6 11 9 3 9 9 0 26 -6 12 -8 22 -3 22 5 0 9 7
9 15 0 8 -4 15 -9 15 -16 0 -7 18 12 23 11 3 20 13 20 22 0 11 5 15 15 11 19
-7 19 1 1 20 -21 20 -24 18 -41 -22z"/>
<path d="M2448 2554 c-3 -14 1 -25 14 -33 10 -6 16 -16 13 -21 -3 -6 5 -10 19
-10 14 0 26 5 26 11 0 5 -4 7 -10 4 -5 -3 -7 0 -4 8 3 10 -4 17 -20 21 -13 3
-26 14 -28 24 -3 14 -5 14 -10 -4z"/>
<path d="M1956 2548 c3 -4 14 -8 25 -8 22 0 42 -16 52 -40 3 -10 6 -7 6 8 1
12 -4 22 -10 22 -6 0 -9 6 -6 13 3 8 -7 12 -34 12 -21 1 -35 -3 -33 -7z"/>
<path d="M2083 2525 c-7 -7 -17 -15 -23 -17 -8 -2 -8 -11 -1 -28 9 -23 11 -21
15 11 0 6 9 17 19 24 10 7 15 15 10 18 -4 3 -13 -1 -20 -8z"/>
<path d="M1980 2505 c0 -14 -5 -25 -11 -25 -5 0 -7 5 -4 10 3 6 1 10 -4 10
-17 0 -13 -18 5 -28 10 -6 12 -12 6 -16 -5 -3 -15 1 -22 9 -14 17 -36 20 -44
6 -3 -5 2 -8 11 -7 9 0 22 -9 29 -22 12 -24 21 -29 32 -16 4 4 1 4 -5 0 -21
-12 -15 5 9 25 11 11 16 19 9 19 -7 0 -10 4 -6 10 3 5 12 7 20 4 8 -4 13 -9
10 -13 -2 -4 2 -8 9 -8 9 0 7 10 -8 33 -25 40 -36 42 -36 9z"/>
<path d="M865 2510 c8 -13 -13 -50 -28 -50 -8 0 -7 4 3 10 8 5 11 12 7 16 -4
4 -15 0 -25 -9 -15 -16 -15 -19 -2 -27 10 -7 12 -12 4 -17 -14 -10 -26 -73
-14 -73 10 0 13 13 11 41 -2 17 37 57 47 49 4 -3 8 12 9 33 2 21 -1 37 -7 37
-6 0 -8 -4 -5 -10z"/>
<path d="M1865 2469 c-11 -4 -14 -8 -7 -8 6 -1 12 -8 12 -16 0 -8 5 -15 12
-15 6 0 8 -3 5 -6 -4 -4 3 -15 15 -25 26 -23 29 -23 22 -4 -4 8 -1 22 6 30 10
13 8 15 -13 15 -17 0 -27 6 -29 19 -2 14 -8 16 -23 10z"/>
<path d="M1994 2421 c-12 -14 -19 -32 -17 -38 5 -15 33 -17 33 -3 0 6 -7 10
-15 10 -13 0 -14 3 -3 14 11 13 15 13 27 -2 13 -16 13 -16 8 0 -4 11 0 21 10
26 11 6 12 11 4 16 -6 4 -11 1 -11 -6 0 -9 -3 -9 -8 -2 -4 7 -14 2 -28 -15z"/>
<path d="M2051 2424 c-6 -14 -11 -32 -11 -40 0 -8 -5 -12 -11 -9 -6 4 -13 -2
-16 -14 -4 -15 -9 -18 -17 -12 -6 6 -18 6 -25 2 -16 -10 -53 -2 -46 9 3 4 -2
10 -10 14 -18 7 -19 -3 -2 -24 7 -9 22 -15 35 -14 12 1 22 -5 22 -12 0 -17
-23 -31 -28 -16 -7 23 -22 11 -22 -18 0 -16 2 -30 5 -30 16 0 60 58 57 74 -4
17 -2 16 19 -3 18 -17 21 -24 11 -30 -8 -5 -13 -11 -13 -15 3 -24 0 -27 -16
-15 -16 12 -17 12 -7 -1 6 -8 14 -27 18 -42 3 -16 11 -28 17 -28 6 0 7 6 2 13
-14 22 -13 45 2 51 8 3 15 0 15 -6 0 -15 15 0 15 15 1 7 -2 14 -6 17 -12 10
-19 59 -9 65 6 3 7 -1 4 -10 -5 -11 -1 -14 15 -12 26 4 40 17 18 17 -22 0 -23
43 -2 60 11 9 15 9 15 1 0 -7 5 -9 10 -6 15 9 12 19 -9 32 -16 10 -20 8 -30
-13z"/>
<path d="M849 2363 c-19 -24 -39 -61 -39 -71 0 -5 7 -9 16 -9 9 0 18 12 21 29
3 15 9 28 13 28 4 0 10 9 13 20 6 25 -5 26 -24 3z"/>
<path d="M2189 2359 c-8 -5 -11 -9 -6 -10 7 -1 18 -4 35 -8 4 -2 -2 -7 -13
-12 -18 -9 -18 -9 4 -5 17 3 25 -1 28 -14 3 -10 11 -21 19 -24 24 -9 15 14
-20 48 -23 24 -37 31 -47 25z"/>
<path d="M2638 2356 c-10 -7 -18 -17 -18 -21 0 -4 -10 -16 -22 -26 -11 -11
-19 -19 -17 -20 53 -11 56 -10 51 20 -4 30 10 47 29 35 8 -4 8 -9 0 -17 -19
-19 -13 -47 9 -47 11 0 20 5 20 11 0 5 4 8 8 5 5 -3 9 0 10 7 0 7 2 21 5 32 2
11 2 14 0 8 -5 -15 -33 -17 -33 -3 0 6 6 10 13 11 6 0 3 4 -8 9 -27 11 -27 11
-47 -4z"/>
<path d="M2149 2329 c-7 -14 -14 -19 -17 -11 -6 19 -21 14 -19 -7 0 -11 5 -17
9 -15 7 5 12 -10 9 -28 0 -5 6 -8 14 -8 17 0 20 16 5 25 -19 12 -11 26 9 15
25 -13 31 -13 31 0 0 6 -10 10 -22 11 -19 0 -20 2 -6 7 12 5 14 12 9 21 -7 11
-12 9 -22 -10z"/>
<path d="M2370 2280 c0 -10 8 -23 18 -29 16 -9 16 -10 0 -16 -10 -4 -18 -11
-18 -16 0 -14 26 -11 39 4 8 11 6 18 -9 32 -24 21 -26 37 -5 29 8 -4 15 -1 15
5 0 6 -9 11 -20 11 -13 0 -20 -7 -20 -20z"/>
<path d="M2217 2257 c-8 -6 -6 -7 6 -3 9 3 17 1 17 -4 0 -6 -8 -10 -17 -11
-16 0 -15 -1 2 -8 19 -8 19 -8 0 -19 -11 -6 -16 -12 -12 -12 4 0 3 -8 -2 -19
-9 -16 -7 -18 17 -14 15 1 21 0 14 -3 -6 -3 -10 -10 -6 -15 3 -5 1 -9 -5 -9
-5 0 -9 -9 -8 -19 0 -11 5 -17 9 -15 4 3 7 -6 6 -20 -2 -19 -7 -25 -19 -21
-10 3 -20 2 -22 -2 -3 -5 8 -9 24 -8 16 0 33 6 38 13 5 8 12 12 17 10 5 -1 10
5 12 15 3 16 1 17 -17 7 -28 -14 -27 -3 2 21 l22 20 -27 -16 c-17 -11 -28 -13
-33 -6 -3 6 0 11 8 11 19 0 30 40 12 46 -24 10 -25 31 -2 29 37 -4 38 -5 32
-15 -3 -5 -3 -11 2 -11 4 -1 21 -3 38 -5 16 -2 31 -8 33 -14 2 -5 8 -7 14 -4
15 10 -30 36 -51 29 -14 -4 -20 1 -25 17 -3 13 -1 24 4 26 5 2 2 12 -8 22 -18
20 -53 23 -75 7z"/>
<path d="M2546 2263 c-12 -12 -6 -25 9 -19 23 8 18 -10 -7 -27 -23 -15 -22
-15 10 -11 24 4 32 2 32 -10 0 -9 4 -16 9 -16 7 0 8 39 3 61 -3 10 -50 28 -56
22z"/>
<path d="M2680 2250 c-6 -10 -10 -23 -9 -27 5 -27 -1 -35 -16 -23 -8 7 -15 9
-15 4 0 -5 -5 -2 -10 6 -7 11 -10 11 -10 2 0 -15 42 -33 53 -22 9 8 28 80 21
80 -2 0 -8 -9 -14 -20z"/>
<path d="M1962 2242 c7 -26 -10 -41 -23 -21 -6 9 -7 0 -3 -26 8 -47 12 -55 26
-55 6 0 5 7 -3 18 -7 9 -9 14 -5 10 5 -4 16 -2 24 5 13 10 14 8 8 -11 -5 -13
-3 -22 3 -22 17 0 13 47 -4 54 -11 4 -14 13 -9 30 3 14 1 27 -7 31 -9 6 -11 2
-7 -13z"/>
<path d="M2490 2249 c0 -5 -4 -8 -9 -5 -13 8 -71 -26 -71 -41 0 -7 -7 -13 -16
-13 -13 0 -14 -3 -4 -15 6 -8 8 -20 4 -26 -4 -8 -3 -9 4 -5 20 12 13 -9 -9
-28 -17 -14 -23 -15 -30 -5 -4 8 -4 16 2 20 5 3 -4 6 -20 6 -17 0 -32 -6 -35
-14 -3 -7 -1 -13 3 -13 5 0 12 6 14 13 4 9 6 9 6 -1 1 -7 6 -10 13 -6 7 4 8 3
4 -5 -12 -19 24 -24 44 -6 16 14 20 15 20 4 1 -11 3 -11 13 1 11 14 20 16 43
11 4 0 1 -8 -6 -16 -10 -12 -10 -15 0 -15 6 0 14 9 17 20 6 22 5 22 51 26 17
1 32 -1 32 -4 0 -12 -38 -32 -42 -22 -2 5 -9 6 -17 1 -8 -5 -15 -29 -17 -57
-2 -41 0 -46 10 -32 10 14 15 15 25 5 6 -6 4 3 -5 21 -9 18 -14 34 -13 35 2 1
19 10 37 20 37 21 40 16 12 -20 -23 -30 -20 -40 7 -24 11 6 13 11 5 11 -9 0
-4 11 12 31 30 36 33 49 9 49 -15 0 -16 2 -3 10 20 13 4 13 -21 0 -15 -9 -21
-7 -26 7 -9 24 -42 53 -62 54 -10 0 -8 3 7 9 19 8 32 30 17 30 -3 0 -5 -5 -5
-11z m25 -69 c3 -5 1 -10 -4 -10 -6 0 -11 -6 -11 -14 0 -8 -7 -17 -16 -20 -22
-8 -26 -8 -19 4 4 7 -2 9 -19 4 -30 -7 -33 -2 -11 20 9 8 26 13 41 10 16 -3
23 -1 19 6 -3 5 -2 10 4 10 5 0 13 -4 16 -10z"/>
<path d="M2077 2216 c-9 -22 13 -37 30 -21 7 8 21 12 31 9 14 -5 14 -3 -2 10
-24 19 -40 21 -30 4 6 -10 4 -10 -8 0 -13 10 -17 10 -21 -2z"/>
<path d="M2029 2191 c-9 -3 -15 -14 -13 -24 1 -9 -3 -23 -10 -30 -14 -15 -18
-57 -5 -57 5 0 9 -4 9 -10 0 -5 -7 -10 -15 -10 -8 0 -15 7 -15 15 0 8 -6 15
-12 15 -10 0 -9 3 1 9 14 9 7 31 -10 31 -18 0 -9 -47 14 -69 28 -25 56 -19 58
13 1 11 2 28 3 36 0 8 -3 18 -9 22 -6 5 -5 8 2 8 7 0 11 6 9 13 -1 6 -1 9 1 5
7 -13 20 -9 26 6 7 19 -14 35 -34 27z"/>
<path d="M2111 2171 c-11 -11 -21 -17 -24 -15 -2 3 -7 -2 -11 -11 -3 -9 -2
-13 4 -10 6 3 10 1 10 -5 0 -6 11 -16 25 -22 14 -6 22 -14 17 -17 -5 -3 -6
-26 -2 -51 4 -25 9 -43 10 -40 7 16 5 98 -3 115 -6 11 -13 27 -17 35 -4 9 -1
20 9 27 9 7 13 13 9 13 -5 0 -17 -9 -27 -19z"/>
<path d="M2174 2175 c5 -14 4 -16 -7 -7 -22 19 -27 2 -6 -19 10 -10 21 -19 24
-19 10 0 4 49 -7 56 -8 5 -9 2 -4 -11z"/>
<path d="M777 2129 c-4 -13 -10 -18 -17 -14 -9 6 -9 2 -1 -12 6 -11 7 -23 4
-27 -4 -4 3 -5 15 -3 30 5 37 14 22 32 -11 13 -10 18 6 30 18 14 18 14 -2 15
-14 0 -24 -8 -27 -21z"/>
<path d="M613 2128 c-17 -23 -23 -49 -17 -75 l7 -26 13 24 c18 32 17 49 -1 25
-19 -25 -19 -15 -1 29 16 37 15 44 -1 23z"/>
<path d="M722 2093 c-1 -20 -6 -39 -10 -43 -4 -3 -8 -30 -8 -60 -1 -46 0 -51
9 -30 5 14 11 47 13 74 2 28 8 53 14 56 6 4 6 12 -3 23 -10 15 -12 12 -15 -20z"/>
<path d="M2378 2072 c-31 -19 -36 -32 -13 -32 8 0 15 -7 15 -15 0 -9 -7 -15
-17 -13 -10 2 -19 -7 -24 -24 -6 -24 -4 -28 12 -28 11 0 18 -4 15 -9 -4 -5 -3
-19 2 -30 7 -20 9 -20 30 -5 12 8 22 20 22 27 0 8 -3 8 -12 -1 -15 -15 -42
-16 -33 -2 4 6 11 8 16 5 5 -4 9 1 9 10 0 20 19 15 34 -8 8 -12 7 -23 -2 -38
-23 -36 -7 -31 36 12 48 47 51 53 18 38 -21 -10 -29 -8 -53 11 -15 12 -28 28
-28 35 0 7 -7 20 -14 29 -11 13 -11 20 -3 28 9 9 12 7 12 -7 1 -18 2 -17 14 4
11 20 14 21 19 7 4 -10 11 -14 17 -11 13 8 -13 35 -32 34 -7 0 -25 -8 -40 -17z"/>
<path d="M2100 2063 c0 -5 -11 -21 -25 -37 -27 -31 -29 -36 -17 -36 4 0 16 14
26 30 9 17 22 28 27 25 5 -4 9 1 9 9 0 9 -4 16 -10 16 -5 0 -10 -3 -10 -7z"/>
<path d="M568 2028 c3 -11 1 -19 -4 -16 -5 3 -14 0 -21 -7 -10 -11 -10 -14 0
-18 7 -2 17 3 24 12 15 19 17 51 4 51 -5 0 -7 -10 -3 -22z"/>
<path d="M2286 2033 c-10 -26 4 -33 24 -13 25 25 25 25 1 27 -11 1 -22 -5 -25
-14z"/>
<path d="M2000 2029 c-33 -13 -35 -16 -20 -34 7 -8 8 -15 3 -15 -9 0 -7 -51 4
-80 3 -8 5 -27 4 -43 -2 -16 3 -29 13 -33 8 -3 12 -12 9 -20 -5 -12 -7 -12
-17 1 -10 14 -12 13 -12 -7 0 -13 7 -28 15 -34 12 -10 13 -17 4 -37 -11 -25
-8 -37 9 -37 5 0 7 10 3 23 -6 21 -5 21 9 3 17 -20 13 -36 -9 -36 -20 0 -26
-28 -9 -45 14 -13 11 -19 -8 -17 -3 1 -9 -6 -12 -14 -5 -12 -1 -14 15 -9 14 5
19 3 15 -4 -5 -7 -1 -9 8 -5 9 3 16 10 16 14 0 4 12 7 28 8 53 0 62 2 62 13 0
7 -12 10 -30 7 -26 -4 -29 -2 -24 14 3 10 1 18 -5 18 -6 0 -11 -10 -11 -23 0
-14 -6 -24 -15 -24 -10 0 -14 9 -12 31 2 17 9 30 15 29 17 -4 15 13 -4 42 -15
23 -15 25 1 25 10 0 24 8 32 18 13 15 13 15 7 -8 -4 -14 -12 -28 -18 -32 -8
-5 -7 -8 2 -8 7 0 12 -7 10 -16 -2 -10 2 -19 8 -21 7 -2 10 16 10 52 -1 36 3
54 10 51 6 -2 17 0 25 5 11 7 9 9 -8 9 -24 0 -32 25 -10 33 16 7 -13 29 -30
22 -8 -3 -13 4 -13 18 -1 18 -3 16 -15 -11 -8 -18 -19 -31 -25 -27 -7 4 -7 12
0 25 7 13 7 21 -2 26 -6 4 -8 3 -5 -3 4 -6 1 -16 -7 -22 -11 -9 -13 -6 -11 13
2 14 6 30 11 37 4 8 3 9 -4 5 -7 -4 -11 3 -9 23 1 16 6 27 10 24 5 -3 6 -11 3
-19 -4 -10 1 -13 17 -10 14 2 23 11 25 26 3 20 1 22 -10 12 -21 -17 -29 -4
-22 40 4 21 5 38 3 37 -2 0 -15 -5 -29 -10z m90 -199 c-8 -5 -12 -10 -8 -10 4
0 2 -13 -3 -29 -10 -27 -53 -49 -64 -32 -8 13 21 56 45 68 29 15 52 17 30 3z"/>
<path d="M2172 2028 c-17 -17 -15 -23 13 -54 l25 -27 -2 44 c-1 24 -3 38 -6
31 -2 -6 -11 -12 -20 -12 -14 0 -15 2 -2 10 8 5 12 11 9 14 -3 3 -11 0 -17 -6z"/>
<path d="M2247 2000 c-8 -11 -17 -17 -20 -13 -4 3 -7 -1 -7 -11 0 -10 5 -14
11 -10 6 3 15 1 19 -6 5 -7 9 2 12 24 5 42 4 43 -15 16z"/>
<path d="M2487 1999 c-9 -5 -21 -8 -26 -4 -5 3 -12 1 -16 -5 -3 -5 -1 -10 5
-10 6 0 8 -5 4 -11 -4 -7 0 -10 10 -7 10 1 17 8 16 13 -1 6 11 15 27 22 15 7
21 12 13 12 -8 0 -23 -4 -33 -10z"/>
<path d="M518 1931 c-9 -22 -13 -42 -10 -45 11 -12 22 -6 20 12 -2 32 2 53 10
48 5 -3 9 1 9 9 0 27 -14 16 -29 -24z"/>
<path d="M614 1942 c2 -13 -2 -40 -11 -60 -8 -20 -17 -50 -19 -67 l-3 -30 14
33 c9 18 17 40 19 50 1 9 6 24 10 33 4 8 2 26 -4 40 -10 23 -10 23 -6 1z"/>
<path d="M2141 1944 c-11 -13 -11 -15 4 -12 10 2 20 -3 23 -11 3 -9 0 -11 -8
-6 -8 5 -11 4 -6 -3 7 -12 36 -5 36 8 0 5 -5 12 -10 15 -6 4 -8 11 -5 16 10
15 -19 9 -34 -7z"/>
<path d="M2190 1940 c0 -3 4 -10 9 -15 6 -6 0 -21 -16 -39 -18 -21 -27 -26
-33 -17 -5 9 -9 5 -13 -11 -9 -33 -8 -45 2 -29 13 20 44 24 37 5 -3 -8 1 -17
9 -21 13 -4 12 -9 -6 -24 -12 -11 -17 -19 -11 -19 7 0 12 -7 12 -16 0 -11 -6
-14 -22 -9 -18 5 -20 4 -8 -4 13 -9 13 -11 -1 -11 -25 0 -44 -26 -24 -34 19
-7 20 -26 0 -26 -8 0 -15 -4 -15 -10 0 -5 11 -10 25 -10 27 0 28 3 16 35 -8
20 8 45 28 45 6 0 11 6 11 13 0 8 4 7 10 -3 8 -12 11 -11 16 8 4 13 12 21 20
18 8 -3 12 2 11 14 -1 10 -4 17 -8 14 -4 -2 -9 5 -12 15 -4 16 0 19 24 19 23
-1 29 -7 34 -30 6 -25 9 -27 22 -16 10 8 11 14 4 16 -16 5 6 42 24 42 18 0 19
14 2 28 -10 8 -16 3 -26 -20 -14 -30 -15 -31 -22 -10 -5 13 -15 25 -24 28 -8
3 -13 10 -10 14 3 4 -2 13 -9 19 -24 20 -30 -8 -7 -33 28 -29 27 -31 -14 -33
-25 -1 -35 3 -35 13 0 8 5 14 11 14 5 0 8 4 4 10 -10 16 19 50 42 50 13 0 23
5 23 10 0 6 -11 8 -25 4 -14 -3 -25 -2 -25 3 0 5 -7 10 -15 10 -8 0 -15 -3
-15 -7z"/>
<path d="M2106 1925 c4 -10 0 -15 -15 -15 -29 0 -26 -18 5 -30 20 -8 29 -6 42
6 15 15 14 16 -8 10 -21 -6 -22 -5 -7 4 15 10 15 13 3 26 -19 18 -27 18 -20
-1z"/>
<path d="M2465 1902 c-7 -19 -7 -19 34 -12 l33 5 -30 11 c-26 10 -32 9 -37 -4z"/>
<path d="M667 1883 c-4 -3 -7 -16 -7 -27 0 -15 3 -17 9 -8 6 10 10 9 14 -7 3
-13 1 -19 -5 -15 -6 4 -9 1 -7 -5 9 -26 24 -10 27 29 2 29 -1 40 -11 40 -8 0
-17 -3 -20 -7z"/>
<path d="M513 1790 c-8 -33 -8 -38 3 -29 7 6 18 8 24 4 7 -4 7 2 0 19 -6 18
-6 26 1 26 6 0 7 5 4 10 -12 19 -21 10 -32 -30z"/>
<path d="M661 1741 c-10 -7 -10 -10 -1 -13 10 -3 10 -9 1 -27 -7 -12 -10 -27
-8 -34 2 -7 9 5 16 26 15 43 12 60 -8 48z"/>
<path d="M2226 1720 c-6 -31 -26 -42 -26 -15 0 13 -4 12 -21 -4 -19 -18 -20
-21 -6 -35 13 -14 16 -14 21 0 3 8 10 13 14 10 5 -3 15 6 22 19 7 13 17 22 22
19 13 -8 9 6 -6 21 -12 12 -15 10 -20 -15z"/>
<path d="M457 1723 c-5 -7 -6 -17 -3 -21 2 -4 0 -14 -6 -22 -8 -12 -9 -11 -4
3 4 12 2 17 -6 15 -17 -6 -19 -38 -2 -38 8 0 17 7 20 15 4 9 14 14 23 13 11
-2 17 5 18 22 1 14 0 18 -3 8 -3 -10 -9 -18 -14 -18 -5 0 -10 8 -12 18 -3 12
-6 14 -11 5z"/>
<path d="M625 1659 c-4 -6 -7 -26 -7 -45 0 -19 -4 -34 -8 -34 -5 0 -8 -8 -8
-17 1 -10 -2 -34 -6 -53 -5 -26 -4 -31 3 -20 6 8 11 24 11 36 0 11 6 29 14 39
7 10 11 27 8 37 -2 10 1 18 8 18 10 0 10 3 0 15 -6 8 -9 19 -5 25 3 5 4 10 1
10 -3 0 -8 -5 -11 -11z"/>
<path d="M571 1610 c-12 -22 -30 -40 -39 -40 -9 0 -25 -13 -34 -29 -13 -24
-13 -29 -2 -24 8 3 14 12 14 19 0 15 39 35 53 27 4 -2 7 -1 6 4 -2 14 13 53
21 53 4 0 10 7 14 15 11 31 -11 13 -33 -25z"/>
<path d="M2208 1617 c-40 -79 -40 -77 -22 -77 9 0 14 6 11 13 -3 8 -1 20 4 28
7 11 9 10 9 -6 1 -19 1 -19 14 -2 13 16 14 16 21 -10 5 -21 8 -24 15 -13 6 9
5 17 -2 21 -6 4 -7 12 -4 18 5 7 -1 11 -14 11 -12 0 -18 5 -15 10 4 6 11 8 16
5 5 -4 9 -1 9 5 0 6 5 8 10 5 6 -3 10 1 10 9 0 9 -7 16 -15 16 -8 0 -15 -6
-15 -12 0 -10 -2 -10 -8 -1 -5 8 -13 2 -24 -20z"/>
<path d="M2123 1591 c-3 -12 -10 -21 -15 -21 -5 0 -6 6 -2 13 5 8 2 8 -9 -2
-14 -11 -17 -11 -17 0 0 8 -7 1 -15 -15 -19 -37 -19 -39 4 -24 17 10 23 9 41
-7 25 -22 32 -16 36 30 3 39 -14 59 -23 26z"/>
<path d="M1991 1540 c-9 -27 -8 -30 9 -30 17 0 19 -5 14 -35 -3 -22 -1 -35 5
-35 6 0 11 7 11 16 0 9 5 13 13 9 6 -4 3 1 -8 11 -20 16 -20 16 2 11 16 -4 21
0 20 13 -1 10 -5 16 -9 14 -4 -3 -8 4 -8 16 0 12 -5 18 -10 15 -6 -4 -8 -11
-5 -16 3 -5 0 -6 -8 -3 -9 3 -13 13 -10 25 8 30 -4 22 -16 -11z"/>
<path d="M382 1498 c-9 -35 -6 -58 10 -58 5 0 6 6 3 13 -4 6 1 3 9 -7 20 -25
20 -14 1 25 -16 30 -12 54 7 43 7 -4 8 -2 4 4 -13 21 -25 13 -34 -20z"/>
<path d="M2068 1432 c-36 -16 -56 -41 -22 -28 8 3 12 2 9 -3 -3 -5 -1 -12 5
-16 5 -3 10 1 10 10 0 9 4 14 9 10 5 -3 12 4 16 15 4 11 11 17 17 14 7 -4 8
-2 4 4 -4 7 -8 12 -9 11 -1 0 -19 -8 -39 -17z"/>
<path d="M345 1350 c-9 -10 -15 -26 -12 -35 4 -8 2 -15 -2 -15 -5 0 -8 -11 -7
-25 2 -34 12 -31 20 6 3 17 10 28 15 25 5 -3 11 0 14 8 4 10 0 12 -16 8 -20
-5 -20 -4 -8 11 7 9 17 14 22 11 5 -3 6 2 3 10 -8 20 -7 20 -29 -4z"/>
<path d="M430 1306 c-9 -25 -30 -44 -30 -28 0 5 -6 9 -14 9 -8 0 -12 -6 -9
-13 3 -8 10 -12 16 -11 7 1 11 -7 9 -18 -2 -15 1 -13 13 8 20 35 33 34 49 -5
13 -30 14 -31 25 -10 10 18 9 21 -5 15 -13 -5 -15 -2 -10 14 5 16 2 21 -11 19
-13 -1 -17 5 -16 22 4 29 -5 28 -17 -2z"/>
<path d="M287 1253 c-11 -10 -8 -25 3 -18 6 3 13 -1 16 -10 8 -19 -36 -85 -52
-78 -7 2 -15 0 -19 -6 -3 -7 2 -11 14 -11 11 0 23 5 27 11 4 8 9 7 15 -2 7
-11 9 -9 9 6 0 12 8 37 19 58 10 20 14 34 8 30 -5 -3 -15 1 -22 10 -7 9 -15
14 -18 10z"/>
<path d="M427 1226 c-4 -11 -13 -16 -22 -12 -9 3 -15 0 -15 -10 0 -9 -5 -12
-11 -8 -7 4 -9 0 -5 -14 5 -14 1 -24 -10 -30 -14 -8 -13 -10 10 -16 30 -7 46
-1 45 17 0 9 -2 9 -6 0 -8 -22 -20 -14 -20 12 0 19 5 25 23 25 28 0 34 9 24
34 -6 18 -7 18 -13 2z"/>
<path d="M247 1100 c3 -11 1 -20 -4 -20 -5 0 -9 -9 -9 -20 0 -11 2 -20 3 -20
6 0 26 55 24 64 -1 5 5 6 14 2 9 -3 13 -2 10 4 -3 6 -14 10 -25 10 -13 0 -17
-5 -13 -20z"/>
<path d="M291 1050 c-1 -8 -15 -42 -31 -74 -23 -46 -27 -61 -18 -68 8 -5 16 0
22 12 5 11 12 20 16 20 5 0 11 7 14 16 5 14 4 15 -9 4 -18 -15 -19 -2 -2 39
13 30 13 30 31 10 10 -12 15 -28 11 -37 -4 -11 -3 -14 4 -7 17 17 24 62 10 70
-8 5 -10 4 -5 -3 4 -7 2 -12 -3 -12 -6 0 -11 5 -11 11 0 5 -4 8 -9 4 -5 -3
-12 3 -14 12 -3 13 -5 14 -6 3z"/>
<path d="M176 986 c-9 -21 -16 -50 -16 -64 0 -28 12 -24 15 5 1 10 7 31 14 47
6 16 10 34 8 40 -2 6 -12 -6 -21 -28z"/>
<path d="M326 865 c-3 -9 -6 -24 -5 -33 0 -14 2 -13 9 3 8 19 9 19 9 1 1 -15
4 -17 12 -9 8 8 7 17 -4 33 -13 18 -15 19 -21 5z"/>
<path d="M152 762 c-10 -22 -10 -29 3 -41 13 -14 15 -13 15 2 0 9 -5 17 -10
17 -6 0 -5 6 2 14 8 9 15 10 19 4 8 -12 29 -2 29 14 0 6 -3 8 -6 5 -4 -3 -14
-2 -23 2 -12 7 -19 3 -29 -17z"/>
<path d="M314 752 c3 -5 -2 -21 -10 -36 -7 -16 -14 -38 -14 -50 0 -18 2 -16
16 9 8 17 19 34 23 38 11 11 2 47 -11 47 -5 0 -7 -4 -4 -8z"/>
<path d="M120 712 c0 -4 4 -12 9 -17 5 -6 11 -21 14 -35 3 -16 5 -10 6 18 1
31 -3 42 -14 42 -8 0 -15 -4 -15 -8z"/>
<path d="M216 703 c-10 -10 -7 -25 4 -18 16 10 23 -21 10 -44 -7 -14 -7 -21 0
-21 5 0 10 6 10 14 0 8 5 16 12 18 8 3 6 13 -9 31 -11 14 -23 23 -27 20z"/>
<path d="M113 674 c-7 -3 -10 -11 -7 -19 3 -7 1 -16 -5 -19 -6 -4 -8 -13 -5
-20 5 -14 -21 -76 -32 -76 -4 0 -4 11 -2 25 7 33 3 32 -16 -7 -19 -37 -20 -41
-6 -33 7 4 9 -3 5 -22 l-5 -28 12 25 c14 28 29 41 39 34 4 -2 5 4 2 14 -2 11
7 29 23 45 16 16 20 25 11 21 -17 -6 -24 15 -10 30 6 5 15 38 10 35 -1 0 -7
-3 -14 -5z"/>
<path d="M183 648 c-15 -19 -22 -45 -15 -52 3 -4 12 8 19 25 14 34 12 48 -4
27z"/>
<path d="M276 613 c-4 -18 -12 -36 -18 -39 -6 -4 -8 2 -4 17 6 20 5 21 -4 6
-6 -9 -8 -23 -3 -30 4 -6 6 -23 5 -37 -1 -14 7 1 19 34 11 32 18 63 16 70 -2
6 -7 -4 -11 -21z"/>
<path d="M210 557 c0 -15 -10 -41 -22 -57 -16 -22 -18 -32 -10 -43 9 -10 7
-19 -5 -37 -12 -18 -14 -25 -4 -28 9 -3 9 -7 0 -18 -18 -21 4 -17 29 6 27 26
28 33 2 25 -18 -6 -19 -4 -10 19 5 14 7 26 4 26 -4 0 0 8 7 17 12 14 12 16 0
8 -11 -6 -13 -4 -8 9 4 10 7 20 7 22 0 3 4 3 9 0 13 -9 23 42 12 62 -9 14 -10
12 -11 -11z"/>
<path d="M127 363 c-14 -13 -7 -60 8 -60 18 0 19 9 3 25 -8 8 -8 15 2 27 12
14 0 22 -13 8z"/>
<path d="M86 115 c-9 -13 -16 -30 -16 -37 1 -7 6 -3 13 10 7 12 16 20 19 17 3
-3 8 3 11 15 7 28 -7 25 -27 -5z"/>
<path d="M118 104 c-9 -18 -14 -34 -12 -34 8 0 44 40 44 49 0 25 -18 16 -32
-15z"/>
</g>
</svg>
