<?xml version="1.0" standalone="no"?>
<!DOCTYPE svg PUBLIC "-//W3C//DTD SVG 20010904//EN"
 "http://www.w3.org/TR/2001/REC-SVG-20010904/DTD/svg10.dtd">
<svg version="1.0" xmlns="http://www.w3.org/2000/svg"
 width="300.000000pt" height="200.000000pt" viewBox="0 0 300.000000 200.000000"
 preserveAspectRatio="xMidYMid meet">
<metadata>
Created by potrace 1.10, written by Peter Selinger 2001-2011
</metadata>
<g transform="translate(0.000000,200.000000) scale(0.100000,-0.100000)"
fill="#000000" stroke="none">
<path d="M480 1995 c0 -3 21 -31 47 -63 66 -80 164 -233 209 -324 37 -74 37
-78 20 -91 -18 -13 -18 -16 4 -100 21 -78 25 -87 47 -87 14 0 23 -6 23 -16 0
-9 19 -34 42 -55 23 -21 40 -40 38 -43 -26 -24 -615 -484 -618 -481 -4 4 -245
595 -273 670 l-18 50 -1 -43 c0 -31 34 -126 133 -375 l133 -332 -101 -78
c-161 -125 -167 -131 -163 -154 3 -19 21 -7 138 87 74 60 138 105 141 102 10
-12 99 -234 98 -246 0 -6 -54 -47 -119 -91 -223 -151 -261 -177 -256 -182 2
-3 14 1 26 7 21 11 21 10 -4 -22 -14 -19 -26 -41 -26 -48 0 -7 16 7 35 31 52
68 142 141 163 135 12 -4 32 7 62 35 38 36 45 39 56 25 6 -9 18 -16 27 -16 8
0 25 -16 37 -35 20 -33 20 -36 6 -86 -9 -29 -14 -54 -12 -56 5 -5 56 105 56
120 0 6 -18 34 -39 62 -37 49 -39 54 -25 74 8 11 19 21 23 21 13 0 51 -109 44
-127 -4 -10 -2 -14 4 -10 10 6 53 -69 53 -93 0 -5 -20 -30 -45 -56 -25 -26
-53 -60 -61 -75 -26 -51 9 -35 69 32 l54 61 23 -61 c12 -34 29 -61 36 -61 18
0 19 -4 -15 77 l-28 70 101 119 c57 65 152 164 212 219 60 54 122 117 138 140
43 60 44 61 55 32 7 -19 18 -27 35 -27 23 0 25 -6 45 -112 28 -152 41 -286 41
-413 l0 -105 25 0 25 0 -6 99 c-4 64 -2 106 5 117 8 14 10 -10 11 -98 0 -111
1 -118 20 -118 19 0 20 7 20 98 0 146 -43 487 -66 524 -3 5 2 15 11 22 16 12
16 20 5 102 -7 49 -15 94 -19 99 -8 13 -6 83 3 112 4 14 12 20 21 16 21 -7 27
17 16 62 -9 36 -10 37 -7 7 1 -18 -1 -35 -5 -38 -14 -8 -21 43 -10 64 9 17 7
24 -14 40 -24 19 -25 22 -13 67 14 51 5 78 -28 83 -18 3 -18 2 -1 -8 9 -6 17
-20 17 -31 0 -13 -4 -18 -12 -13 -7 4 -8 3 -4 -4 4 -6 1 -22 -5 -34 -15 -28
-38 -174 -39 -241 0 -31 -11 -75 -31 -123 -32 -78 -45 -89 -106 -97 -18 -2
-33 -13 -40 -29 -15 -30 -68 -73 -132 -105 -30 -15 -57 -40 -78 -71 -58 -86
-48 -88 33 -4 44 45 88 82 97 82 9 0 17 -3 17 -7 0 -3 -65 -73 -145 -154 -79
-81 -158 -168 -174 -194 l-30 -47 -14 29 c-8 15 -18 44 -22 63 -4 19 -10 40
-14 45 -22 31 -152 378 -145 385 5 5 119 96 254 204 219 175 245 193 248 172
5 -39 -15 -313 -25 -330 -13 -24 -166 -180 -178 -182 -21 -3 -197 -134 -181
-134 20 0 81 41 141 94 22 19 41 33 43 31 2 -1 -26 -43 -61 -91 -72 -101 -90
-131 -85 -145 2 -6 16 -1 31 11 18 15 27 17 27 8 0 -7 23 30 51 82 48 90 113
183 195 277 43 50 81 157 95 263 16 130 19 135 70 135 58 0 80 14 109 71 14
26 32 49 42 52 28 7 31 32 4 32 -14 0 -26 -6 -29 -12 -2 -7 -8 -9 -13 -5 -5 4
-2 12 6 17 11 6 11 12 2 23 -9 11 14 34 127 124 76 61 148 117 160 125 21 13
29 48 11 48 -5 0 -27 -15 -47 -33 -57 -50 -274 -220 -276 -216 -1 2 -10 18
-20 36 -14 26 -15 36 -6 51 11 17 6 27 -36 76 -33 38 -56 56 -72 56 -19 0 -31
16 -68 90 -112 223 -265 428 -265 356 0 -8 15 -35 34 -59 19 -25 32 -48 29
-51 -4 -3 -2 -6 4 -6 6 0 28 -28 49 -62 53 -85 57 -90 111 -195 39 -77 52 -93
71 -93 13 0 21 -4 17 -9 -3 -5 4 -12 14 -16 32 -10 71 -63 71 -96 0 -16 14
-55 30 -86 36 -66 37 -81 9 -127 -23 -39 -51 -46 -83 -23 -16 12 -16 14 -2 26
31 26 17 53 -80 162 -46 52 -67 125 -46 160 17 26 5 59 -74 209 -16 30 -35 59
-41 63 -7 4 -13 12 -13 17 0 12 -57 95 -95 138 -16 19 -34 40 -38 48 -7 13
-57 21 -57 9z m458 -863 c2 -7 -7 -12 -23 -12 -14 0 -33 -7 -41 -15 -19 -19
-34 -19 -34 -1 0 23 51 55 74 46 11 -4 22 -12 24 -18z m221 -121 c10 -18 -5
-81 -20 -81 -11 0 -16 34 -11 68 5 36 17 41 31 13z m-4 -223 c2 -18 6 -49 9
-68 5 -23 2 -48 -8 -72 -9 -20 -13 -45 -10 -55 3 -10 -4 -2 -15 17 -10 20 -31
42 -46 50 -47 25 -48 42 -10 126 l36 78 21 -21 c11 -12 22 -37 23 -55z"/>
<path d="M986 779 c-15 -22 -25 -46 -23 -52 2 -6 12 1 21 16 10 15 24 27 31
27 15 0 28 27 19 41 -10 17 -21 9 -48 -32z"/>
</g>
</svg>
