<?xml version="1.0" standalone="no"?>
<!DOCTYPE svg PUBLIC "-//W3C//DTD SVG 20010904//EN"
 "http://www.w3.org/TR/2001/REC-SVG-20010904/DTD/svg10.dtd">
<svg version="1.0" xmlns="http://www.w3.org/2000/svg"
 width="300.000000pt" height="205.000000pt" viewBox="0 0 300.000000 205.000000"
 preserveAspectRatio="xMidYMid meet">
<metadata>
Created by potrace 1.10, written by Peter Selinger 2001-2011
</metadata>
<g transform="translate(0.000000,205.000000) scale(0.100000,-0.100000)"
fill="#000000" stroke="none">
<path d="M842 2026 c-12 -27 -58 -36 -179 -36 -40 0 -89 -6 -107 -14 -18 -7
-61 -17 -94 -21 -52 -6 -63 -4 -68 9 -7 17 -34 22 -34 6 0 -15 -68 -29 -175
-35 -149 -7 -185 -14 -185 -34 0 -14 7 -17 30 -13 25 4 30 1 30 -17 0 -11 4
-21 8 -21 5 0 8 10 8 22 -1 20 3 22 70 21 39 0 76 -3 83 -7 6 -4 11 -2 11 4 0
7 6 10 14 7 8 -3 17 -1 19 6 2 7 7 -16 11 -50 4 -35 6 -66 4 -70 -2 -4 -16 -7
-33 -7 -16 -1 -29 -5 -27 -11 2 -5 14 -9 27 -7 20 3 24 0 19 -15 -5 -16 -4
-16 10 1 12 15 19 17 27 9 14 -14 2 -36 -14 -27 -7 4 4 -7 24 -24 20 -17 53
-56 74 -86 21 -31 49 -63 62 -71 14 -9 21 -21 17 -28 -4 -7 -4 -9 1 -5 4 4 13
2 19 -5 19 -23 148 -132 216 -182 36 -26 71 -55 78 -64 11 -14 14 -14 22 -1 6
10 0 20 -26 37 -19 13 -34 28 -34 33 0 5 -8 7 -17 4 -17 -5 -17 -5 0 6 9 6 21
9 26 5 5 -3 12 -1 15 4 3 5 -5 12 -18 15 -13 3 -32 9 -43 13 -16 6 -16 5 -4
-10 7 -9 9 -17 4 -17 -15 0 -40 35 -37 53 1 9 -2 17 -8 17 -6 0 -8 -7 -4 -15
3 -8 3 -15 0 -15 -3 0 -12 7 -20 15 -9 9 -11 15 -4 15 6 0 8 5 5 10 -5 8 -11
8 -19 1 -9 -8 -25 2 -60 34 -26 25 -42 45 -35 45 7 0 21 -8 31 -17 18 -16 18
-16 12 0 -3 9 -10 17 -16 17 -5 0 -7 4 -4 9 3 4 -6 7 -19 5 -16 -1 -33 7 -47
23 -13 14 -33 36 -45 48 -13 12 -23 26 -23 31 0 5 -10 18 -23 29 -50 45 -112
200 -96 243 11 30 41 30 34 0 -8 -36 9 -92 28 -96 9 -2 17 2 17 8 0 7 -7 10
-15 6 -10 -4 -14 0 -12 14 2 11 6 23 10 26 4 4 2 13 -4 20 -12 14 -3 54 12 54
5 0 9 -9 9 -19 0 -30 23 -31 74 -5 69 35 72 33 79 -38 6 -70 35 -144 79 -200
33 -42 45 -46 64 -20 12 16 14 16 31 0 17 -17 17 -18 0 -18 -11 0 -15 4 -11
12 4 7 3 8 -4 4 -7 -4 -12 -14 -12 -22 0 -8 -5 -12 -11 -9 -6 4 -5 -2 2 -13
10 -16 17 -18 31 -11 15 8 18 6 18 -13 0 -13 5 -30 10 -38 9 -13 11 -13 20 0
13 20 12 30 -2 30 -9 0 -8 3 2 10 12 8 12 11 -3 28 -9 10 -17 23 -17 28 0 5
-8 21 -17 34 -22 30 -24 62 -6 79 11 10 16 5 29 -26 9 -21 26 -62 40 -92 26
-58 31 -100 13 -118 -6 -6 -8 -16 -4 -23 5 -8 12 -5 22 10 15 21 14 62 -2 103
-4 10 -3 17 4 17 7 0 15 -8 18 -17 10 -28 54 -65 69 -59 7 3 18 -3 24 -12 10
-15 11 -14 7 5 -3 12 -2 24 2 26 3 2 0 2 -6 1 -7 -2 -13 2 -13 8 0 6 -3 8 -7
5 -3 -4 -12 2 -20 13 -14 19 -40 29 -28 11 3 -5 1 -12 -4 -16 -6 -3 -8 4 -6
15 3 16 -4 25 -28 35 -37 15 -73 75 -55 93 6 6 3 14 -10 23 -26 19 -53 74 -46
93 9 24 -24 31 -56 12 -37 -21 -74 -22 -66 0 3 8 2 12 -4 9 -6 -3 -10 -2 -10
4 0 6 -7 8 -15 5 -16 -6 -21 7 -7 20 4 4 7 13 7 19 0 21 49 37 113 37 34 0 62
-4 62 -9 0 -12 -63 -33 -87 -30 -27 4 -73 -10 -73 -22 0 -12 43 -1 48 11 2 5
17 4 33 0 34 -10 68 0 97 27 24 23 73 52 55 32 -15 -16 -17 -55 -3 -64 9 -5
15 15 11 38 -1 4 5 17 13 28 14 20 14 20 20 1 16 -49 173 -177 205 -167 9 2
23 0 31 -6 12 -8 9 -9 -10 -4 l-25 6 25 -14 c32 -19 82 -33 60 -18 -13 9 -12
11 5 12 14 0 16 2 5 6 -38 14 -192 108 -204 125 -8 11 -20 16 -30 12 -9 -3
-16 -2 -16 4 0 6 6 12 13 15 6 2 9 8 5 12 -4 4 -14 3 -22 -4 -12 -10 -14 -4
-14 41 -1 51 0 52 13 28 l14 -25 1 33 c0 27 -4 32 -23 32 -15 0 -28 -9 -35
-24z m-158 -193 c3 -10 9 -25 12 -33 5 -13 4 -13 -6 0 -9 12 -10 8 -5 -17 4
-20 2 -34 -6 -39 -8 -5 -11 -2 -7 8 8 18 -8 46 -19 34 -4 -5 -3 -11 4 -13 7
-2 10 -10 7 -18 -3 -7 -1 -23 6 -34 7 -14 7 -21 0 -21 -5 0 -10 6 -10 13 0 6
-5 4 -11 -5 -7 -12 -6 -24 1 -37 15 -28 13 -33 -10 -19 -11 7 -23 29 -26 48
-3 19 -11 44 -18 55 -6 11 -10 32 -8 46 3 24 24 36 83 48 4 0 9 -7 13 -16z"/>
<path d="M929 2023 c54 -76 159 -156 197 -151 23 3 19 8 -41 47 -37 24 -88 63
-114 87 -52 50 -72 57 -42 17z"/>
<path d="M1040 2007 c86 -80 154 -128 144 -103 -3 8 -12 17 -21 20 -8 4 -13
12 -10 20 3 8 -5 19 -19 26 -13 7 -28 28 -35 47 -12 37 -12 37 -40 23 -13 -7
-19 -7 -19 0 0 5 -10 10 -22 10 -20 0 -18 -6 22 -43z"/>
<path d="M1920 2024 c0 -15 8 -33 18 -40 9 -7 18 -17 18 -23 3 -24 5 -26 12
-15 5 8 37 9 106 4 87 -7 103 -11 142 -39 24 -17 44 -27 44 -23 0 5 22 8 50 8
27 -1 50 -5 50 -9 0 -5 4 -6 9 -3 5 3 34 -3 66 -14 32 -11 96 -24 144 -30 119
-15 171 -34 212 -78 45 -47 61 -74 85 -140 13 -37 33 -67 67 -99 27 -25 50
-43 52 -41 11 11 -14 64 -33 73 -14 6 -31 33 -48 76 -29 77 -75 150 -111 179
-37 29 -122 58 -194 65 -99 10 -192 35 -212 58 -16 19 -18 19 -36 3 -17 -16
-23 -16 -69 -3 -27 9 -65 23 -83 33 -23 11 -69 19 -139 23 l-105 6 -3 28 c-5
38 -42 39 -42 1z"/>
<path d="M929 1964 c-12 -14 -7 -21 31 -55 52 -44 203 -123 222 -116 8 4 5 8
-9 12 -13 4 -23 11 -23 16 0 5 -9 9 -20 9 -11 0 -20 5 -20 12 0 6 -3 8 -6 5
-8 -7 -63 29 -81 53 -6 8 -15 12 -19 7 -11 -10 -44 23 -44 44 0 25 -15 32 -31
13z"/>
<path d="M488 1904 c-5 -4 -8 -20 -8 -35 0 -21 -4 -27 -15 -23 -22 9 -18 -5 8
-27 26 -21 56 -27 39 -6 -6 7 -12 32 -14 56 -2 23 -6 39 -10 35z"/>
<path d="M831 1896 c-18 -21 -2 -46 61 -93 77 -59 284 -143 321 -130 10 4 -90
57 -108 57 -3 0 -46 25 -96 54 -50 30 -97 52 -105 49 -8 -3 -14 0 -14 7 0 6 5
8 13 4 8 -5 7 -2 -2 10 -11 13 -16 14 -22 4 -6 -9 -9 -8 -9 6 0 15 -3 16 -15
6 -9 -8 -15 -9 -15 -2 0 6 5 14 10 17 12 8 13 25 1 25 -5 0 -14 -6 -20 -14z"/>
<path d="M390 1843 c0 -11 79 -77 85 -72 6 7 -29 45 -58 63 -15 10 -27 14 -27
9z"/>
<path d="M795 1840 c-3 -5 -1 -10 5 -10 6 0 8 -5 5 -10 -4 -6 -11 -8 -16 -5
-17 11 -9 -22 10 -39 16 -15 20 -15 33 -2 12 11 18 12 27 3 25 -25 8 10 -19
41 -33 35 -36 37 -45 22z"/>
<path d="M22 1830 c3 -8 13 -16 24 -18 14 -2 24 -16 33 -47 7 -24 24 -59 37
-77 14 -18 50 -70 82 -114 66 -94 166 -209 156 -179 -7 20 -7 20 14 2 11 -11
26 -16 33 -12 7 5 10 3 7 -6 -3 -8 -12 -13 -19 -11 -8 2 -1 -10 15 -27 17 -17
36 -31 43 -31 8 0 16 -6 19 -14 3 -7 23 -28 45 -45 32 -26 42 -30 59 -21 22
12 17 40 -7 40 -13 0 -13 3 -3 15 8 9 9 15 2 15 -17 0 -25 -21 -13 -33 14 -14
15 -40 1 -32 -6 4 -8 10 -5 14 2 5 -7 13 -21 20 -14 6 -22 16 -19 21 3 6 -2
10 -13 10 -10 0 -27 9 -37 20 -19 21 -11 27 14 11 17 -11 55 5 46 19 -11 18
17 21 38 3 22 -18 22 -18 4 3 -16 19 -16 23 -3 37 13 13 13 17 -4 32 -22 20
-39 13 -22 -8 16 -19 3 -29 -14 -12 -8 7 -11 21 -8 29 3 9 1 16 -4 16 -19 0
-24 -21 -9 -38 17 -20 19 -52 3 -52 -6 0 -4 -5 4 -10 12 -8 10 -10 -10 -10
-15 0 -31 9 -38 20 -7 12 -16 18 -21 16 -5 -3 -11 4 -15 17 -5 17 -8 19 -15 8
-9 -14 -35 -6 -26 9 6 9 -58 60 -77 60 -13 1 -99 117 -129 175 -8 16 -28 51
-43 78 -15 26 -24 47 -20 47 4 0 3 5 -4 12 -7 7 -12 20 -12 29 0 23 -18 33
-34 20 -9 -7 -16 -7 -25 2 -11 10 -13 9 -9 -3z"/>
<path d="M165 1812 c-27 -5 -39 -18 -31 -31 5 -8 17 -6 38 5 22 12 33 13 38 4
5 -7 11 -6 21 6 12 15 12 17 -1 12 -8 -3 -22 -2 -30 2 -8 3 -24 5 -35 2z"/>
<path d="M505 1780 c-4 -6 -1 -17 5 -25 6 -8 8 -20 4 -27 -6 -11 -5 -11 8 0
14 11 19 6 43 -33 14 -25 46 -68 71 -96 24 -27 44 -54 44 -60 0 -6 5 -7 10 -4
6 3 10 1 10 -5 0 -7 11 -21 25 -32 13 -10 24 -24 22 -31 -1 -6 5 -11 13 -12 9
0 16 -12 18 -29 2 -16 -1 -26 -6 -22 -6 3 -12 0 -15 -7 -3 -8 3 -13 17 -13 19
0 21 4 18 31 l-5 30 22 -27 c22 -27 26 -68 11 -103 -8 -19 -9 -19 -9 2 -1 16
-5 21 -16 16 -14 -5 -14 -8 2 -25 16 -18 18 -18 30 -2 15 21 17 100 3 109 -5
3 -10 11 -10 18 0 30 30 -23 36 -63 5 -36 1 -56 -19 -100 -56 -122 -202 -280
-259 -280 -18 0 -20 2 -8 10 13 9 13 10 0 10 -13 0 -13 1 0 10 10 7 11 10 2
10 -7 0 -15 -7 -18 -15 -4 -8 -10 -15 -15 -15 -10 0 -101 -61 -110 -73 -4 -5
-15 -7 -25 -5 -14 2 -2 15 49 52 37 26 67 49 67 51 0 2 -21 13 -47 25 -26 11
-55 28 -65 37 -17 15 -18 15 -19 -3 -1 -10 -1 -22 0 -26 0 -5 -3 -8 -9 -8 -5
0 -10 4 -10 10 0 5 -7 7 -15 4 -12 -5 -13 -10 -4 -20 15 -18 33 -18 49 1 9 11
16 12 33 2 38 -21 38 -31 1 -64 -41 -37 -42 -38 -68 -18 -11 8 -27 15 -35 14
-9 0 -1 -8 17 -16 33 -17 45 -53 17 -53 -8 0 -15 -5 -15 -10 0 -6 11 -8 28 -4
48 12 73 24 117 55 63 45 83 35 83 -39 1 -83 2 -90 12 -67 5 11 9 41 9 66 1
33 7 51 21 64 20 18 20 18 15 -26 -7 -64 -14 -241 -9 -236 7 7 13 42 25 156
11 101 20 126 45 117 7 -3 10 3 7 15 -3 11 1 21 11 25 9 3 16 12 16 18 0 7 14
25 30 39 17 15 30 32 30 38 0 5 5 7 11 4 6 -4 7 -14 3 -24 -4 -9 -8 -32 -9
-51 -1 -28 -6 -36 -23 -38 -12 -2 -20 -8 -17 -13 4 -5 1 -9 -4 -9 -6 0 -11 -4
-11 -10 0 -5 9 -10 21 -10 11 0 18 4 14 9 -10 16 12 21 25 6 10 -12 9 -16 -4
-21 -9 -3 -16 -13 -16 -21 0 -13 3 -13 15 -3 22 18 20 -8 -2 -33 -10 -11 -12
-17 -5 -13 9 5 12 -4 12 -33 0 -22 -5 -41 -12 -44 -10 -3 -10 -8 -2 -16 6 -7
10 -33 8 -59 l-4 -47 14 55 c10 38 15 112 15 236 0 99 3 188 7 198 5 12 15 16
38 14 28 -3 32 1 42 32 9 26 9 37 0 42 -8 6 -8 8 1 8 18 0 9 53 -16 88 l-22
32 21 0 c23 0 23 21 0 28 -7 3 -10 0 -6 -7 13 -21 -23 -11 -38 10 -8 12 -19
19 -24 15 -12 -7 -74 58 -65 69 5 4 2 5 -5 1 -24 -14 -196 187 -217 255 -7 21
-20 25 -30 9z m381 -522 c4 -6 -1 -17 -11 -24 -23 -17 -29 -12 -20 15 7 23 20
27 31 9z"/>
<path d="M398 1766 c-24 -18 -22 -27 5 -22 12 1 21 6 20 10 -5 21 -10 23 -25
12z"/>
<path d="M2181 1763 c0 -6 -13 -13 -27 -15 -15 -2 -30 -10 -34 -18 -4 -8 -12
-26 -19 -39 -10 -19 -10 -22 1 -19 7 3 15 17 18 33 4 22 11 29 31 29 21 1 25
-2 22 -19 -4 -18 -3 -19 7 -2 6 10 9 28 7 40 -2 12 -5 17 -6 10z"/>
<path d="M1203 1741 c-1 -15 7 -21 38 -26 22 -4 43 -4 46 -1 4 3 -3 6 -15 6
-31 0 -52 10 -52 26 0 21 -16 17 -17 -5z"/>
<path d="M1685 1735 c-38 -14 -56 -22 -40 -19 58 10 104 25 110 34 8 12 13 14
-70 -15z"/>
<path d="M187 1737 c-3 -8 -1 -20 4 -28 7 -11 9 -11 9 -1 0 7 4 11 8 8 4 -2 9
4 9 15 2 21 -22 26 -30 6z"/>
<path d="M250 1690 c0 -19 -2 -20 -15 -10 -9 7 -17 11 -19 9 -9 -9 40 -36 56
-30 15 5 15 8 -3 30 l-19 23 0 -22z"/>
<path d="M57 1686 c-7 -17 11 -36 35 -36 10 0 17 -5 15 -11 -1 -6 4 -14 11
-16 10 -4 10 2 -1 29 -7 18 -18 33 -23 33 -5 0 -14 4 -20 8 -7 4 -14 1 -17 -7z"/>
<path d="M1655 1693 c-11 -3 -24 -10 -30 -17 -5 -6 -21 -13 -34 -13 -13 -1
-31 -9 -40 -19 -15 -15 -14 -16 4 -11 11 3 53 11 93 17 39 7 70 16 67 20 -3 5
-12 7 -20 3 -11 -4 -13 -1 -9 11 6 16 4 17 -31 9z"/>
<path d="M962 1680 c9 -6 14 -18 11 -28 -6 -24 22 -49 30 -28 7 17 -28 66 -46
66 -7 0 -5 -5 5 -10z"/>
<path d="M1247 1676 c-4 -10 6 -16 34 -21 22 -4 43 -4 46 -1 4 3 -2 6 -13 6
-11 0 -29 7 -41 15 -18 13 -22 13 -26 1z"/>
<path d="M0 1672 c0 -5 11 -19 24 -31 29 -27 47 -10 20 20 -17 19 -44 26 -44
11z"/>
<path d="M201 1640 c6 -16 18 -30 26 -30 12 0 11 5 -4 30 -9 17 -21 30 -25 30
-4 0 -2 -13 3 -30z"/>
<path d="M2610 1620 c-13 -28 -32 -57 -42 -67 -10 -9 -18 -21 -18 -27 1 -6 10
0 21 14 24 29 72 120 66 126 -2 2 -14 -19 -27 -46z"/>
<path d="M1133 1653 c-18 -6 -16 -23 1 -23 8 0 17 -8 19 -17 3 -12 5 -8 6 9 1
29 -7 38 -26 31z"/>
<path d="M280 1640 c0 -5 5 -10 11 -10 5 0 7 -5 3 -12 -5 -8 0 -9 14 -6 12 4
22 2 22 -3 0 -5 7 -9 15 -9 8 0 22 -12 32 -26 35 -50 75 -94 86 -94 6 0 -1 13
-16 28 -15 15 -27 33 -27 40 0 7 -4 12 -10 12 -5 0 -10 4 -10 10 0 5 -11 20
-25 34 -14 14 -25 20 -25 15 0 -6 -13 -1 -29 10 -32 23 -41 26 -41 11z"/>
<path d="M1190 1628 c0 -13 7 -36 15 -52 8 -15 15 -33 15 -39 0 -6 8 -19 17
-29 15 -17 15 -20 3 -28 -10 -6 -22 -4 -35 4 -12 8 -33 12 -48 9 -23 -5 -26
-3 -21 13 4 14 3 15 -4 6 -7 -11 -12 -10 -26 3 -9 10 -16 12 -16 5 0 -6 -6
-10 -12 -7 -7 2 -12 9 -11 15 2 7 -4 9 -14 5 -11 -4 -14 -3 -9 5 4 7 2 12 -6
12 -9 0 -9 3 2 10 13 8 12 10 -2 10 -10 0 -18 -4 -18 -10 0 -5 -9 -10 -21 -10
-15 0 -19 4 -14 19 9 29 -9 33 -22 5 -9 -19 -9 -26 0 -29 7 -2 56 -20 109 -40
58 -21 124 -37 160 -40 35 -2 55 -2 45 1 -9 3 -15 9 -12 14 3 5 1 11 -4 15 -6
3 -8 12 -4 20 3 9 -1 15 -9 15 -8 0 -20 17 -26 38 -10 31 -9 39 4 49 13 10 20
9 31 -3 12 -12 18 -12 30 -2 13 10 12 13 -4 19 -10 3 -35 9 -55 13 -35 6 -38
5 -38 -16z"/>
<path d="M1695 1635 l-30 -13 28 -1 c15 -1 27 3 27 8 0 5 8 12 18 14 12 3 12
5 2 5 -8 1 -28 -5 -45 -13z"/>
<path d="M460 1613 c12 -25 30 -39 30 -24 0 6 5 11 11 11 5 0 7 -4 4 -10 -3
-5 0 -7 8 -4 8 3 18 1 22 -5 3 -6 11 -11 16 -11 6 0 3 7 -6 16 -12 13 -13 19
-4 24 6 5 -2 7 -20 5 -17 -1 -34 -5 -38 -8 -3 -4 -12 1 -20 11 -13 15 -13 15
-3 -5z"/>
<path d="M1595 1623 c-33 -8 -36 -17 -9 -30 13 -6 22 -7 19 -3 -3 5 -1 11 5
15 5 3 10 1 10 -6 0 -8 4 -8 15 1 31 26 13 36 -40 23z"/>
<path d="M2084 1619 c-3 -6 -3 -13 0 -16 3 -4 6 -1 6 5 0 7 13 9 35 5 19 -3
35 -2 35 3 0 13 -68 15 -76 3z"/>
<path d="M1686 1594 c-3 -8 0 -16 6 -20 7 -4 8 -3 4 4 -4 7 -2 12 3 12 6 0 11
-4 11 -9 0 -5 9 -7 20 -4 19 5 28 22 13 24 -5 0 -18 2 -30 3 -12 1 -24 -3 -27
-10z"/>
<path d="M320 1582 c0 -5 16 -26 36 -48 l35 -39 -31 48 c-30 46 -40 55 -40 39z"/>
<path d="M570 1569 c0 -14 11 -36 24 -48 l25 -23 -6 22 c-3 12 -12 24 -19 27
-8 3 -12 8 -10 12 3 4 1 13 -5 21 -6 12 -9 9 -9 -11z"/>
<path d="M1542 1564 c-1 -16 5 -23 26 -27 15 -3 32 -1 37 4 7 7 4 8 -9 3 -16
-6 -17 -4 -11 17 5 18 4 21 -4 9 -9 -13 -15 -8 -13 11 1 3 -5 6 -12 6 -6 0
-13 -10 -14 -23z"/>
<path d="M267 1553 c-3 -3 7 -18 23 -33 18 -17 25 -30 17 -33 -6 -2 -2 -6 9
-9 17 -4 20 -1 16 18 -2 13 -7 24 -11 24 -4 0 -17 9 -28 19 -12 11 -23 17 -26
14z"/>
<path d="M1467 1544 c-3 -3 -3 -12 -1 -19 3 -7 1 -16 -5 -20 -6 -3 -11 -11
-11 -16 0 -6 5 -7 12 -3 6 4 8 3 4 -4 -3 -6 -14 -11 -24 -11 -36 -1 -82 -14
-82 -23 0 -6 16 -8 35 -6 19 2 35 1 35 -3 0 -4 19 -11 43 -15 34 -5 38 -8 22
-15 -11 -4 -14 -8 -7 -8 7 -1 11 -5 8 -10 -3 -5 1 -11 9 -14 10 -4 12 -1 8 10
-4 11 -2 14 8 11 7 -2 16 -15 19 -27 5 -24 22 -30 29 -10 2 7 -1 9 -8 5 -7 -5
-9 -1 -5 8 3 9 2 16 -4 16 -6 0 -8 8 -5 18 6 24 66 23 71 0 2 -10 12 -15 26
-14 17 1 23 6 21 18 -3 14 2 16 27 11 21 -4 29 -3 25 4 -10 16 43 27 57 12 8
-8 6 -10 -11 -5 -12 4 -24 2 -28 -4 -4 -6 9 -10 34 -10 22 0 43 5 47 12 5 8 2
9 -10 5 -10 -4 -15 -3 -11 3 3 6 -2 10 -11 10 -10 0 -15 3 -11 6 3 4 20 2 36
-4 22 -8 32 -8 37 0 5 7 2 8 -6 3 -9 -5 -11 -4 -6 3 13 21 38 14 31 -8 -3 -11
-2 -20 3 -20 6 0 9 11 7 25 -1 14 3 25 9 25 7 0 21 7 32 16 19 15 19 16 -1 9
-11 -4 -29 -9 -40 -10 -11 -2 -49 -12 -85 -23 -36 -11 -89 -23 -117 -27 -49
-6 -53 -5 -53 13 0 12 -4 23 -10 27 -5 3 -7 11 -4 18 7 19 -44 20 -54 1 -6
-11 -11 -13 -16 -5 -4 6 -16 11 -28 11 -17 0 -18 -2 -8 -15 7 -8 19 -14 27
-13 9 2 19 -7 23 -19 7 -17 4 -22 -12 -26 -16 -5 -19 -2 -15 15 3 11 3 17 0
14 -4 -3 -13 0 -22 7 -14 11 -14 10 -2 -6 12 -14 12 -20 1 -30 -10 -9 -13 -9
-17 1 -3 6 -12 12 -21 12 -16 1 -16 2 -1 13 11 8 16 26 16 50 -1 20 -2 37 -2
37 -1 0 -4 -3 -8 -6z m140 -98 c-9 -23 -30 -20 -24 4 3 11 0 23 -5 27 -7 3 -8
1 -4 -5 4 -7 2 -12 -3 -12 -6 0 -11 11 -11 25 l0 26 26 -25 c17 -15 25 -30 21
-40z"/>
<path d="M1639 1506 c-4 -42 7 -54 28 -31 4 4 2 5 -4 1 -9 -5 -13 0 -13 14 0
12 4 19 9 16 4 -3 6 6 3 19 -7 39 -20 29 -23 -19z"/>
<path d="M850 1511 c13 -25 33 -27 51 -4 8 9 9 14 2 10 -6 -4 -14 -1 -16 5 -4
10 -6 10 -6 0 -1 -10 -6 -10 -22 -2 -19 11 -20 10 -9 -9z"/>
<path d="M2081 1496 c-12 -18 -21 -40 -21 -47 0 -12 2 -12 9 0 7 11 10 10 14
-5 3 -10 5 -5 4 13 -1 18 7 41 17 52 11 12 14 21 8 21 -6 0 -20 -15 -31 -34z"/>
<path d="M170 1505 c0 -12 28 -35 44 -35 11 0 6 21 -8 36 -19 18 -36 18 -36
-1z"/>
<path d="M970 1510 c-13 -9 -13 -10 0 -10 13 0 13 -2 1 -9 -8 -5 -21 -7 -30
-4 -9 2 0 -5 19 -15 56 -31 158 -64 178 -58 18 6 27 36 10 36 -4 0 -8 -4 -8
-10 0 -5 -14 -10 -31 -10 -16 0 -28 4 -25 9 3 5 -4 11 -15 14 -12 3 -18 10
-14 17 4 7 -1 9 -18 5 -26 -7 -62 19 -52 36 8 11 4 11 -15 -1z"/>
<path d="M107 1496 c-3 -8 -1 -17 6 -20 9 -3 9 -5 0 -5 -7 -1 -13 -5 -13 -11
0 -5 7 -7 15 -4 16 7 20 39 6 48 -5 3 -11 -1 -14 -8z"/>
<path d="M900 1491 c0 -6 5 -13 10 -16 6 -4 7 -12 4 -18 -4 -7 -4 -9 1 -5 11
10 35 -17 35 -42 0 -11 -7 -31 -16 -44 -10 -16 -12 -26 -5 -31 6 -3 11 0 11 8
0 8 6 27 14 41 16 32 10 63 -15 79 -11 7 -19 17 -19 24 0 7 -4 13 -10 13 -5 0
-10 -4 -10 -9z"/>
<path d="M1967 1489 c-9 -6 -15 -14 -12 -19 9 -14 -27 -21 -44 -8 -15 12 -15
11 -1 -6 14 -18 13 -19 -3 -13 -10 4 -16 3 -13 -2 8 -12 -70 -42 -97 -38 -12
2 -16 2 -9 0 6 -3 12 -8 12 -13 0 -5 -8 -6 -17 -3 -17 7 -17 6 0 -20 22 -34
22 -37 -8 -37 -24 0 -30 -17 -12 -31 4 -3 0 -12 -9 -20 -15 -12 -17 -12 -9 0
8 14 -11 12 -62 -5 -15 -6 -16 -4 -5 7 15 16 16 33 1 23 -6 -3 -15 0 -20 7 -7
11 -9 10 -9 -3 0 -10 4 -18 8 -18 5 0 9 -7 9 -15 0 -8 -4 -15 -9 -15 -4 0 -8
-13 -8 -30 0 -23 5 -31 25 -36 15 -4 25 -13 25 -24 0 -11 5 -22 12 -26 7 -5 9
0 6 14 -3 12 -2 22 2 24 5 2 12 15 15 31 9 33 -6 36 -35 7 -24 -24 -34 -26
-26 -4 3 8 2 12 -4 9 -14 -8 -13 8 1 22 6 6 18 9 27 6 10 -4 13 -2 8 5 -4 7
-3 12 3 12 5 0 11 -6 13 -12 6 -16 58 17 58 36 0 7 7 19 15 26 8 7 15 25 15
40 0 24 6 30 38 41 59 19 139 68 139 84 0 8 -1 15 -1 15 -1 0 -9 -5 -19 -11z"/>
<path d="M2492 1460 c-40 -37 -59 -67 -27 -40 8 7 15 9 15 5 0 -4 14 9 30 30
29 36 34 45 27 45 -2 0 -22 -18 -45 -40z"/>
<path d="M2008 1445 c-28 -40 -40 -75 -14 -39 8 10 18 16 22 11 4 -4 2 -7 -4
-7 -8 0 -10 -11 -7 -31 3 -17 2 -28 -3 -25 -5 3 -7 -7 -4 -22 4 -23 6 -24 12
-7 6 18 7 18 12 -3 3 -11 1 -23 -6 -26 -6 -2 -3 -5 7 -5 24 -1 21 -19 -5 -42
-13 -11 -18 -18 -11 -17 6 2 11 -1 11 -7 0 -5 -5 -9 -10 -7 -15 4 -48 -38 -48
-60 0 -26 19 -60 29 -53 5 3 12 -2 15 -11 4 -12 2 -15 -9 -10 -21 8 -19 -7 6
-38 18 -23 18 -30 -1 -28 -3 0 -7 -11 -8 -25 -1 -15 -9 -34 -17 -43 -8 -9 -15
-21 -15 -26 0 -5 5 -1 11 9 6 9 14 15 20 12 5 -4 14 -3 20 1 8 5 8 9 -1 14 -8
5 -7 11 4 22 8 9 12 19 8 23 -4 4 -2 5 5 3 13 -3 15 5 7 27 -3 8 -11 12 -17 8
-6 -4 -8 3 -3 21 5 19 1 34 -14 53 -11 14 -17 29 -14 34 3 5 0 9 -5 9 -6 0
-11 5 -11 11 0 6 9 8 23 4 17 -5 18 -4 7 4 -17 11 -7 27 10 16 7 -4 10 -21 8
-37 -6 -36 9 -48 18 -14 4 16 15 26 32 29 32 6 42 0 22 -13 -8 -6 -10 -10 -5
-10 15 0 31 13 37 30 5 14 -28 88 -45 101 -4 3 -5 14 -1 24 5 12 4 16 -4 11
-14 -8 -24 24 -31 104 l-6 65 -27 -40z m76 -230 c6 -18 -7 -27 -28 -19 -16 6
-21 25 -10 37 9 8 32 -2 38 -18z"/>
<path d="M220 1440 c0 -5 5 -10 11 -10 5 0 8 -4 5 -8 -6 -10 91 -75 106 -70 6
2 -12 21 -41 43 -28 22 -51 43 -51 47 0 4 -7 8 -15 8 -8 0 -15 -4 -15 -10z"/>
<path d="M405 1429 c-17 -7 -16 -8 8 -8 17 -1 27 -6 27 -16 0 -22 15 -18 17 4
2 22 -23 31 -52 20z"/>
<path d="M1259 1432 c6 -2 9 -8 5 -13 -12 -19 8 -30 23 -12 8 10 12 12 8 6 -3
-7 -2 -13 3 -13 5 0 12 9 15 19 4 16 -1 19 -31 18 -19 -1 -30 -3 -23 -5z"/>
<path d="M1420 1411 c0 -7 -6 -11 -12 -10 -25 3 -38 -1 -38 -12 0 -6 9 -9 20
-6 11 3 17 1 14 -4 -3 -5 11 -8 30 -7 27 2 36 8 36 21 0 9 -4 17 -9 17 -5 0
-16 3 -25 6 -9 3 -16 1 -16 -5z"/>
<path d="M1148 1388 c6 -26 60 -108 71 -108 4 0 14 6 21 13 8 6 0 -4 -18 -23
-33 -37 -39 -50 -22 -50 6 0 10 7 10 16 0 8 5 12 10 9 6 -3 10 -1 10 5 0 7 6
10 13 7 6 -2 11 -10 9 -16 -1 -6 2 -11 8 -11 12 0 13 13 2 26 -5 5 -6 20 -2
34 6 21 8 23 15 8 4 -10 15 -18 24 -18 14 1 14 2 -1 14 -10 7 -18 19 -18 25 0
7 -4 10 -9 6 -5 -3 -11 9 -13 27 -2 25 -8 34 -24 36 -16 2 -22 -2 -20 -14 0
-11 -7 -18 -22 -19 -18 -1 -24 4 -29 27 -3 15 -9 28 -13 28 -5 0 -6 -10 -2
-22z m93 -60 c-15 -39 -29 -42 -46 -8 -8 16 -11 30 -6 30 5 0 11 -6 13 -12 4
-10 9 -8 21 3 9 9 15 19 13 22 -2 2 1 1 6 -3 5 -4 5 -18 -1 -32z"/>
<path d="M1686 1389 c5 -9 -20 -18 -43 -15 -10 2 -12 1 -5 -1 6 -3 12 -9 12
-14 0 -6 8 -5 20 1 16 9 20 8 20 -5 0 -8 -3 -14 -7 -14 -5 1 -15 1 -23 0 -13
-1 -13 -3 -1 -10 9 -6 22 -6 32 0 10 5 29 10 43 11 13 1 22 6 20 10 -3 5 -11
8 -17 7 -24 -3 -37 1 -37 12 0 6 9 8 23 4 16 -5 18 -4 8 3 -11 8 -9 11 10 15
13 2 5 4 -17 3 -23 0 -40 -4 -38 -7z"/>
<path d="M560 1381 c0 -5 9 -13 20 -16 23 -7 26 -21 8 -29 -9 -4 -8 -5 2 -5
31 2 39 -1 34 -16 -5 -11 -2 -13 10 -9 9 3 23 1 32 -6 10 -9 18 -10 25 -3 6 6
1 14 -16 23 -14 7 -25 17 -25 21 0 5 -7 5 -17 2 -11 -4 -14 -3 -9 5 4 7 1 12
-7 12 -8 0 -20 7 -27 15 -14 17 -30 20 -30 6z"/>
<path d="M1300 1380 c0 -6 12 -8 28 -4 19 4 23 3 13 -4 -10 -7 -12 -20 -6 -48
5 -23 10 -32 12 -21 3 10 9 14 16 10 7 -4 6 1 -2 10 -10 13 -11 20 -2 30 8 10
7 17 -1 25 -15 15 -58 16 -58 2z"/>
<path d="M2422 1377 c-7 -7 -31 -32 -55 -56 -23 -24 -50 -51 -59 -59 -9 -9
-14 -20 -11 -25 5 -9 153 131 153 145 0 11 -13 9 -28 -5z"/>
<path d="M1030 1340 c-13 -25 5 -27 19 -2 9 15 12 15 20 2 11 -16 27 -7 16 9
-10 18 -44 12 -55 -9z"/>
<path d="M1399 1339 c-13 -11 -19 -18 -13 -15 16 8 23 -48 8 -62 -6 -6 -15 -8
-18 -4 -4 3 -9 -4 -13 -16 -3 -12 -8 -20 -12 -17 -4 2 -8 -37 -10 -87 -4 -139
24 -91 38 66 0 8 12 27 25 43 12 15 21 35 18 43 -3 10 3 8 18 -6 l22 -21 -21
-39 c-12 -21 -18 -46 -16 -55 3 -10 1 -20 -5 -24 -5 -3 -10 -1 -10 4 0 6 -5
11 -11 11 -8 0 -8 -4 0 -14 6 -7 9 -22 5 -32 -5 -18 -5 -18 6 -1 13 20 32 14
23 -8 -4 -11 2 -15 21 -15 24 0 25 3 23 49 -1 27 -6 47 -11 43 -5 -3 -7 2 -3
11 3 10 2 17 -3 17 -5 0 -11 -10 -13 -22 l-4 -23 -2 23 c0 12 6 25 14 28 10 4
15 20 15 45 0 30 -3 37 -15 33 -11 -5 -15 1 -16 22 -1 16 -1 32 0 37 2 13 -17
7 -40 -14z"/>
<path d="M1496 1353 c-12 -13 -6 -35 9 -30 9 4 22 -7 37 -32 24 -40 49 -44 47
-8 -1 17 -2 18 -6 5 -8 -30 -24 -20 -17 10 4 15 10 32 13 37 3 6 -2 2 -11 -8
-10 -11 -18 -15 -18 -9 0 13 -46 43 -54 35z"/>
<path d="M2150 1332 c0 -5 -10 -13 -22 -19 -19 -8 -20 -10 -5 -16 10 -4 17 -2
17 4 0 6 8 1 18 -11 11 -13 24 -20 30 -16 19 11 14 26 -8 26 -12 0 -20 7 -20
16 0 11 6 15 20 11 11 -3 18 -1 14 4 -7 11 -44 12 -44 1z"/>
<path d="M1606 1318 c-3 -7 -7 -29 -9 -48 -2 -19 -7 -43 -12 -52 -5 -14 -2
-18 15 -18 14 0 19 -4 14 -12 -11 -18 -12 -48 -2 -54 4 -3 8 -17 8 -32 0 -19
3 -23 11 -15 8 8 9 20 1 43 -8 20 -8 39 -2 56 6 14 6 23 1 20 -5 -3 -12 1 -15
10 -9 22 -7 36 2 30 5 -3 9 1 9 9 0 8 -4 15 -8 15 -9 0 -7 20 4 37 4 6 3 14
-3 18 -6 3 -12 0 -14 -7z"/>
<path d="M60 1315 c0 -6 94 -66 182 -116 142 -81 200 -109 153 -75 -17 12 -17
16 -5 31 12 14 12 18 -1 26 -19 12 -42 11 -34 -1 4 -6 11 -8 16 -5 5 4 9 -1 9
-9 0 -18 -16 -21 -25 -6 -4 6 -12 10 -18 9 -26 -3 -37 2 -37 16 0 8 -9 15 -20
15 -23 0 -70 20 -70 30 0 4 -14 13 -31 20 -17 7 -36 18 -42 25 -13 13 -77 46
-77 40z"/>
<path d="M1492 1267 c1 -26 5 -47 9 -47 8 0 3 79 -5 87 -3 4 -5 -15 -4 -40z"/>
<path d="M2403 1298 c2 -7 9 -14 15 -14 23 -3 24 -4 12 -19 -11 -13 -10 -14 2
-10 9 4 19 -3 25 -17 9 -20 12 -21 18 -6 5 12 -3 26 -27 47 -35 32 -52 39 -45
19z"/>
<path d="M640 1271 c0 -24 -10 -27 -30 -8 -8 6 -11 8 -7 3 4 -5 2 -15 -5 -23
-6 -7 -8 -17 -4 -20 4 -4 11 -1 15 6 7 11 11 9 20 -8 7 -11 17 -21 24 -21 8 0
8 3 2 8 -11 8 -12 43 -1 60 3 6 2 13 -4 17 -5 3 -10 -3 -10 -14z"/>
<path d="M708 1268 c10 -13 10 -17 -4 -22 -9 -3 -20 -3 -26 0 -6 4 -9 1 -6 -6
12 -38 68 -37 68 0 0 14 4 19 13 14 8 -5 9 -4 2 3 -5 6 -21 14 -35 18 -22 7
-23 6 -12 -7z"/>
<path d="M929 1266 c8 -9 8 -21 2 -39 -5 -14 -7 -28 -4 -31 4 -3 1 -6 -5 -6
-6 0 -9 -6 -6 -14 3 -8 -4 -16 -18 -20 -19 -5 -21 -8 -8 -16 12 -8 13 -12 2
-19 -8 -4 -12 -19 -10 -32 4 -23 5 -23 19 6 13 29 15 29 31 14 9 -10 14 -20
11 -23 -4 -3 -4 -6 -1 -6 9 0 48 79 48 97 0 19 -51 102 -64 103 -5 0 -3 -6 3
-14z m50 -95 c0 -23 -1 -24 -8 -6 -5 11 -7 23 -5 27 3 4 -1 10 -7 14 -9 5 -10
0 -7 -14 4 -12 2 -22 -3 -22 -6 0 -5 -8 1 -20 8 -14 8 -20 0 -20 -6 0 -8 -4
-5 -10 3 -5 2 -10 -4 -10 -16 0 -22 35 -12 64 6 14 7 26 3 26 -4 0 0 4 8 10
20 13 40 -7 39 -39z"/>
<path d="M340 1240 c0 -11 6 -20 14 -20 7 0 16 9 19 20 4 15 0 20 -14 20 -12
0 -19 -7 -19 -20z"/>
<path d="M1535 1243 c3 -3 -7 -15 -22 -25 -16 -10 -23 -18 -17 -18 6 0 9 -16
7 -38 -2 -27 1 -39 11 -39 10 0 12 12 8 44 -3 25 -1 43 6 43 13 0 21 -47 9
-59 -6 -6 -1 -14 14 -21 19 -10 22 -10 12 0 -7 8 -8 22 -3 41 5 18 5 27 -1 24
-5 -4 -10 1 -10 9 -3 29 -4 34 -11 40 -5 3 -6 3 -3 -1z"/>
<path d="M2331 1229 c-13 -11 -31 -17 -38 -14 -8 2 -35 -11 -60 -30 -25 -19
-40 -35 -32 -35 8 1 30 14 49 31 50 42 49 18 0 -28 -35 -32 -38 -39 -22 -39
11 0 20 3 19 6 -1 3 7 15 18 27 15 17 22 20 33 11 11 -9 12 -7 7 15 -6 23 -4
27 14 27 22 0 29 -24 11 -35 -16 -10 -11 -25 6 -18 11 4 15 15 12 39 -2 21 1
35 9 38 14 6 18 26 6 26 -5 -1 -19 -10 -32 -21z"/>
<path d="M433 1232 c-13 -2 -23 -8 -23 -14 0 -5 8 -7 17 -4 15 6 15 4 -2 -14
-10 -11 -15 -23 -12 -27 4 -3 7 -1 7 5 0 7 4 12 9 12 5 0 7 -9 4 -20 -4 -14 0
-20 12 -20 12 0 16 7 13 24 -2 15 5 30 20 42 l23 19 -23 1 c-13 0 -33 -2 -45
-4z"/>
<path d="M769 1231 c-1 -3 -1 -10 0 -15 1 -5 -7 -15 -19 -23 -11 -8 -20 -19
-20 -24 0 -5 -8 -18 -17 -28 -18 -19 -19 -18 -37 7 -14 18 -15 24 -5 20 10 -4
15 1 15 13 0 23 -6 24 -31 5 -11 -8 -26 -12 -35 -9 -17 5 11 -22 51 -48 13 -9
21 -20 17 -24 -4 -4 -19 0 -33 9 -21 14 -25 14 -25 2 0 -8 -6 -17 -12 -20 -7
-3 0 -2 16 1 20 4 27 3 22 -6 -4 -6 -16 -11 -27 -11 -10 0 -19 -5 -19 -11 0
-6 -7 -8 -16 -5 -8 3 -12 2 -9 -4 3 -6 1 -10 -5 -10 -7 0 -5 -7 4 -16 14 -14
21 -11 69 28 50 41 107 106 134 153 10 18 9 22 -3 22 -7 0 -15 -3 -15 -6z"/>
<path d="M1297 1206 c-12 -9 -14 -16 -7 -21 5 -3 8 -11 5 -16 -4 -5 -2 -9 3
-9 5 0 12 8 16 18 3 9 9 23 12 30 7 16 -6 15 -29 -2z"/>
<path d="M509 1191 c11 -20 2 -31 -51 -64 -31 -20 -35 -32 -13 -41 11 -4 15 0
13 11 -5 27 31 28 60 1 15 -12 21 -16 14 -7 -6 9 -8 20 -4 24 4 5 2 5 -4 2 -7
-4 -17 0 -24 8 -10 12 -9 15 4 15 10 0 14 5 11 11 -4 6 2 13 14 16 12 3 21 10
21 15 0 5 -4 7 -9 4 -5 -3 -11 1 -15 9 -3 8 -10 15 -16 15 -7 0 -8 -6 -1 -19z"/>
<path d="M205 1180 c-3 -6 -11 -7 -17 -4 -7 4 -8 2 -4 -4 5 -9 13 -9 27 -1 16
8 20 7 18 -3 -4 -33 2 -39 34 -37 21 2 31 -1 29 -9 -1 -7 4 -15 12 -18 8 -3
12 -13 9 -24 -3 -10 1 -21 8 -25 8 -5 10 -4 5 3 -4 7 -3 12 1 12 5 0 14 9 21
20 11 18 8 22 -30 40 -23 11 -52 20 -64 20 -14 0 -21 6 -20 16 1 20 -19 30
-29 14z"/>
<path d="M583 1168 c1 -8 -9 -13 -25 -13 -26 1 -27 -1 -14 -20 15 -22 39 -30
62 -21 13 5 13 9 -1 36 -16 31 -27 39 -22 18z"/>
<path d="M1165 1164 c-18 -19 -16 -33 7 -48 12 -7 21 -6 32 3 22 18 20 38 -3
51 -15 7 -24 6 -36 -6z"/>
<path d="M1652 1136 c-2 -43 10 -67 23 -46 3 5 1 10 -5 10 -6 0 -8 10 -4 24 3
14 2 32 -3 41 -7 12 -10 5 -11 -29z"/>
<path d="M846 1154 c-19 -18 -19 -19 -1 -23 14 -2 15 -5 4 -12 -10 -6 -11 -9
-1 -9 15 0 25 22 20 46 -3 16 -4 16 -22 -2z"/>
<path d="M1742 1158 c-24 -24 -7 -48 33 -48 18 0 28 30 14 46 -14 17 -31 18
-47 2z"/>
<path d="M2127 1164 c-4 -4 -7 -15 -7 -25 0 -10 -7 -25 -16 -33 -8 -9 -11 -16
-6 -16 12 0 13 -58 1 -66 -5 -3 -7 -10 -4 -15 4 -5 -1 -9 -9 -9 -13 0 -13 -3
-1 -27 11 -21 12 -30 2 -42 -15 -18 -16 -17 8 -36 11 -9 14 -14 8 -10 -8 4
-13 0 -13 -9 0 -9 5 -16 10 -16 6 0 10 -29 10 -67 0 -36 2 -64 5 -62 2 3 5 90
6 193 1 180 2 187 19 171 10 -9 21 -26 24 -38 3 -12 23 -34 45 -49 l39 -28 1
-89 c1 -49 4 -97 7 -105 12 -32 23 -4 20 52 -2 31 -4 84 -5 116 0 33 -4 57 -7
54 -9 -10 -58 42 -59 64 -1 12 -16 34 -32 48 -17 15 -32 33 -34 39 -3 7 -8 9
-12 5z"/>
<path d="M2041 1123 c-13 -46 -14 -60 -3 -67 5 -3 9 13 10 36 1 22 7 47 13 54
8 10 8 14 1 14 -6 0 -16 -17 -21 -37z"/>
<path d="M1375 1103 c3 -7 1 -22 -6 -35 -10 -18 -8 -24 7 -35 10 -7 23 -13 28
-13 6 0 5 4 -3 9 -8 5 -16 20 -18 33 -2 21 -2 21 10 6 8 -10 18 -14 23 -10 5
4 8 6 7 3 -1 -2 2 -12 8 -22 7 -13 6 -19 -1 -19 -6 0 -2 -9 9 -21 20 -22 18
-46 -6 -65 -14 -12 -7 -48 7 -39 15 9 21 -29 7 -40 -7 -5 -12 -16 -9 -23 3
-10 7 -10 18 -1 10 8 14 8 14 0 0 -6 -9 -16 -20 -23 -11 -7 -20 -24 -20 -37 0
-18 4 -22 20 -18 11 3 20 1 20 -4 0 -5 -6 -9 -12 -9 -9 0 -8 -4 2 -10 13 -9
12 -12 -4 -25 -11 -8 -15 -15 -10 -15 29 0 34 27 34 201 0 98 -4 180 -9 183
-4 3 -23 7 -42 8 -19 1 -40 9 -47 18 -8 8 -11 9 -7 3z"/>
<path d="M1513 1103 c-7 -2 -13 -20 -13 -40 0 -27 4 -34 17 -31 9 2 18 9 21
17 3 10 0 12 -14 7 -17 -6 -17 -5 2 15 10 12 13 19 5 14 -11 -6 -13 -4 -8 8 3
10 5 17 4 16 -1 0 -8 -3 -14 -6z"/>
<path d="M107 1086 c-7 -19 -12 -15 103 -65 103 -45 100 -44 100 -33 0 8 -48
32 -66 32 -6 0 -15 7 -18 16 -3 8 -10 13 -15 9 -5 -3 -12 -1 -16 5 -4 6 -11 8
-16 5 -5 -4 -9 -1 -9 5 0 7 -7 10 -15 6 -8 -3 -21 4 -28 15 -12 17 -15 17 -20
5z"/>
<path d="M1157 1076 c-8 -21 16 -49 39 -45 12 3 20 14 22 32 3 24 0 27 -26 27
-17 0 -32 -6 -35 -14z"/>
<path d="M1296 1083 c-11 -11 -6 -41 9 -57 15 -15 11 -45 -9 -58 -8 -5 -8 -10
0 -18 7 -7 16 0 30 25 17 33 18 38 3 48 -9 7 -14 18 -12 25 3 6 -1 12 -9 12
-11 0 -11 2 1 9 7 5 9 11 3 14 -5 4 -12 4 -16 0z"/>
<path d="M2070 1079 c11 -8 12 -12 3 -16 -7 -2 -13 -10 -13 -15 0 -6 3 -8 7
-5 3 4 12 2 20 -4 16 -14 16 -9 3 25 -5 14 -15 26 -22 26 -9 0 -9 -3 2 -11z"/>
<path d="M922 1069 c2 -7 -3 -14 -9 -15 -27 -3 -27 -6 -5 -15 13 -5 20 -13 17
-19 -4 -6 -1 -9 6 -8 7 2 15 -6 17 -17 2 -11 9 -23 16 -28 8 -5 5 -12 -8 -22
-17 -13 -22 -13 -37 1 -9 8 -15 23 -12 33 3 11 0 22 -7 26 -17 11 -27 -5 -10
-16 10 -6 12 -11 4 -16 -15 -11 -25 -43 -14 -43 6 0 10 5 10 10 0 23 19 7 30
-24 9 -28 15 -33 32 -28 20 5 20 6 3 18 -10 8 -16 17 -12 20 6 6 37 -19 37
-30 0 -4 -15 -15 -32 -26 -18 -11 -27 -20 -20 -20 8 0 12 -7 10 -17 -3 -18
-48 -29 -48 -11 0 6 -3 8 -6 5 -4 -4 -1 -13 6 -22 10 -12 10 -15 -1 -16 -8 0
-4 -4 9 -10 13 -5 20 -13 17 -19 -4 -6 -1 -9 7 -8 8 2 14 -8 16 -26 2 -18 0
-26 -7 -21 -6 3 -9 10 -6 15 3 5 1 11 -5 15 -15 9 -12 -21 3 -34 8 -6 17 -7
22 -3 4 4 5 0 3 -8 -3 -8 -12 -14 -19 -12 -8 1 -6 -4 5 -13 11 -8 17 -17 14
-20 -9 -9 -38 6 -38 20 0 8 -4 16 -8 19 -4 2 -8 -8 -7 -22 0 -16 -5 -26 -12
-24 -18 3 -16 -16 2 -34 15 -15 21 -8 16 19 -1 5 13 7 31 5 32 -3 33 -2 36 40
3 34 7 42 23 42 10 0 19 7 19 15 0 21 -30 19 -46 -2 -12 -16 -13 -16 -14 9 0
16 -9 33 -21 41 -12 9 -16 18 -10 21 5 4 24 27 40 52 34 49 41 103 16 124 -8
7 -15 21 -15 31 0 10 -9 24 -19 31 -14 9 -17 16 -10 24 7 8 6 14 -1 19 -6 4
-9 1 -8 -6z"/>
<path d="M1738 1073 c-25 -6 -22 -17 6 -33 30 -16 59 -6 54 17 -3 18 -29 25
-60 16z"/>
<path d="M1626 1035 c5 -27 3 -40 -7 -46 -10 -6 -11 -11 -3 -19 7 -7 14 0 21
25 7 21 7 37 2 41 -5 3 -7 9 -4 14 3 5 0 12 -5 15 -8 5 -9 -5 -4 -30z"/>
<path d="M1565 1051 c3 -5 1 -12 -5 -16 -5 -3 -10 -14 -10 -23 0 -13 2 -13 15
4 13 18 14 18 8 -6 -3 -14 -2 -21 2 -17 16 14 15 67 -1 67 -9 0 -13 -4 -9 -9z"/>
<path d="M1679 1043 c-1 -10 -1 -22 0 -27 1 -5 -7 -15 -19 -23 -23 -16 -27
-40 -6 -40 8 0 11 8 8 19 -3 12 1 18 13 18 11 0 15 -5 11 -15 -6 -17 -4 -18
17 -9 16 6 12 44 -4 44 -5 0 -7 11 -3 25 4 15 2 25 -5 25 -6 0 -12 -8 -12 -17z"/>
<path d="M1240 1024 c-13 -13 -32 -24 -41 -24 -27 0 -42 -25 -29 -49 6 -12 15
-21 20 -21 12 0 42 45 38 56 -2 5 1 10 5 11 14 4 39 33 35 42 -2 4 -14 -3 -28
-15z"/>
<path d="M1837 1019 c7 -24 17 -31 38 -23 22 9 14 27 -17 35 -22 6 -25 4 -21
-12z"/>
<path d="M139 1016 c6 -7 9 -21 5 -30 -8 -21 10 -21 27 0 11 14 10 18 -6 30
-24 18 -41 18 -26 0z"/>
<path d="M1070 1010 c0 -11 4 -20 9 -20 13 0 32 26 24 33 -13 14 -33 6 -33
-13z"/>
<path d="M1731 1019 c-1 -26 19 -77 34 -83 7 -2 21 1 31 9 15 11 16 15 5 29
-7 9 -21 16 -31 16 -9 0 -22 10 -28 23 -7 15 -11 17 -11 6z"/>
<path d="M1350 994 c0 -16 7 -38 15 -48 13 -17 15 -18 15 -3 0 9 -4 17 -10 17
-5 0 -10 5 -10 11 0 5 5 7 11 3 7 -4 7 2 -1 17 -18 35 -20 35 -20 3z"/>
<path d="M2297 925 c5 -98 13 -128 13 -49 0 28 4 54 8 60 5 5 1 25 -8 44 l-18
35 5 -90z"/>
<path d="M854 977 c1 -12 -2 -28 -7 -34 -10 -14 -1 -63 11 -63 10 0 13 108 3
115 -5 2 -7 -6 -7 -18z"/>
<path d="M220 974 c0 -13 -6 -15 -27 -9 -27 6 -27 6 -10 -12 13 -14 21 -15 35
-7 19 13 29 44 13 44 -6 0 -11 -7 -11 -16z"/>
<path d="M2564 972 c-21 -18 -21 -19 -3 -40 10 -13 20 -18 24 -12 3 5 1 10 -4
10 -15 0 -14 33 1 48 18 18 6 14 -18 -6z"/>
<path d="M250 972 c0 -4 14 -13 30 -20 39 -17 38 -34 -2 -66 -18 -14 -28 -26
-21 -26 7 0 24 11 38 24 14 13 35 30 47 38 20 13 19 14 -21 28 -22 7 -41 17
-41 22 0 4 -7 8 -15 8 -8 0 -15 -3 -15 -8z"/>
<path d="M1259 973 c0 -5 -2 -19 -5 -32 -2 -13 1 -30 7 -37 6 -7 9 -31 8 -53
-2 -22 0 -43 4 -48 4 -4 7 34 6 85 -1 51 -5 92 -10 92 -5 0 -9 -3 -10 -7z"/>
<path d="M1549 955 c-7 -40 -7 -65 1 -65 14 0 20 29 10 52 -5 13 -10 19 -11
13z"/>
<path d="M1610 935 c-7 -8 -10 -15 -7 -15 3 0 -1 -25 -8 -55 -7 -30 -8 -55 -3
-55 4 0 11 13 14 30 4 16 9 28 13 26 3 -2 7 16 9 40 2 48 1 51 -18 29z"/>
<path d="M1694 934 c-4 -11 -9 -22 -11 -26 -2 -5 1 -8 6 -8 6 0 11 8 11 18 1
16 2 16 15 -1 7 -11 11 -25 9 -32 -3 -7 -1 -16 5 -20 7 -4 11 6 11 27 l1 33
18 -22 c22 -26 41 -30 41 -9 0 8 -13 19 -30 25 -16 5 -30 7 -30 4 0 -3 -9 2
-20 12 -19 17 -20 17 -26 -1z"/>
<path d="M1509 938 c-1 -2 -3 -32 -5 -67 -4 -69 6 -78 12 -11 2 23 7 47 11 53
4 6 1 7 -7 2 -10 -6 -12 -4 -7 8 3 10 4 17 2 17 -3 0 -5 -1 -6 -2z"/>
<path d="M1352 863 c2 -48 7 -68 18 -71 12 -4 13 -2 3 9 -17 18 -16 64 1 79
17 13 11 36 -10 44 -12 5 -14 -6 -12 -61z"/>
<path d="M2015 910 c-4 -6 -11 -8 -16 -5 -5 4 -9 -1 -9 -9 0 -21 19 -30 26
-12 3 9 12 16 20 16 8 0 14 5 14 10 0 13 -27 13 -35 0z"/>
<path d="M0 887 c0 -12 9 -28 20 -35 17 -10 20 -10 20 3 0 8 -7 15 -16 15 -11
0 -15 6 -11 20 3 11 1 20 -4 20 -5 0 -9 -10 -9 -23z"/>
<path d="M1172 893 c-10 -10 -6 -25 19 -68 17 -31 38 -55 47 -56 14 0 12 -3
-5 -16 -13 -8 -23 -24 -23 -34 0 -10 -5 -21 -11 -24 -28 -18 -35 -105 -8 -105
6 0 6 7 -1 20 -13 24 -4 60 14 60 8 0 20 8 27 17 10 11 10 14 2 9 -8 -4 -13
-1 -13 9 0 9 4 13 10 10 5 -3 8 0 5 7 -3 8 4 14 20 14 21 2 24 -1 14 -12 -9
-11 -9 -20 1 -40 11 -20 11 -27 0 -37 -10 -10 -12 -8 -7 11 4 19 3 21 -9 11
-15 -12 -19 -49 -6 -49 32 0 57 82 30 93 -10 4 -10 6 0 6 22 2 13 31 -10 32
-20 1 -21 2 -4 6 17 4 15 7 -12 19 -24 10 -30 18 -26 31 5 15 4 16 -5 3 -7 -9
-11 -11 -11 -3 0 7 8 17 18 22 17 11 15 12 -27 15 -8 1 -16 7 -19 15 -3 8 0
11 6 7 9 -6 32 21 32 38 0 10 -37 2 -48 -11z"/>
<path d="M1960 886 c0 -13 7 -29 15 -36 8 -7 15 -9 15 -5 0 4 7 2 15 -5 24
-20 17 -3 -11 25 -14 14 -22 30 -19 35 3 6 1 10 -4 10 -6 0 -11 -11 -11 -24z"/>
<path d="M2730 886 c-68 -26 -90 -36 -90 -41 0 -6 112 35 125 46 12 12 7 11
-35 -5z"/>
<path d="M1846 844 c-3 -9 -2 -23 4 -32 5 -10 10 -12 10 -5 0 6 8 14 18 16 15
4 15 5 -2 6 -12 1 -16 6 -12 16 3 8 1 15 -3 15 -5 0 -12 -7 -15 -16z"/>
<path d="M1611 794 c-11 -50 -15 -55 -34 -50 -21 5 -21 5 -3 -9 11 -8 16 -15
12 -15 -5 0 -3 -6 3 -13 6 -8 7 -18 3 -22 -4 -5 -1 -5 6 0 8 4 12 16 9 26 -3
11 -2 19 3 19 8 0 25 109 17 116 -2 2 -9 -21 -16 -52z"/>
<path d="M1660 814 c-13 -37 -6 -59 10 -34 10 15 14 70 6 70 -3 0 -10 -16 -16
-36z"/>
<path d="M1724 839 c-3 -6 0 -15 7 -20 11 -7 11 -9 1 -9 -7 0 -10 -4 -7 -10 3
-5 1 -10 -5 -10 -6 0 -9 -4 -6 -9 3 -5 -2 -8 -11 -7 -9 0 -18 -5 -21 -13 -3
-9 1 -11 17 -6 15 4 20 2 18 -7 -2 -7 -2 -10 0 -5 3 4 9 4 14 1 6 -3 5 -11 -2
-20 -10 -12 -9 -13 4 -8 10 3 17 -1 20 -13 3 -12 5 -8 6 10 1 16 -5 30 -14 33
-16 6 -15 22 3 67 7 16 12 30 12 33 0 9 -29 3 -36 -7z"/>
<path d="M2680 834 c-15 -9 -18 -13 -6 -9 12 3 24 -2 33 -15 8 -11 19 -20 24
-20 6 0 3 7 -6 16 -9 9 -14 23 -11 30 7 18 -3 17 -34 -2z"/>
<path d="M1990 811 c0 -11 10 -27 21 -35 20 -14 20 -16 5 -31 -9 -9 -16 -24
-16 -33 1 -11 6 -8 16 11 8 15 19 27 24 27 19 0 10 17 -16 29 -16 7 -24 17
-20 26 3 8 1 17 -4 20 -6 4 -10 -3 -10 -14z"/>
<path d="M849 793 c0 -10 -3 -27 -6 -38 -11 -44 -15 -105 -5 -105 13 0 24 44
12 48 -6 2 -3 16 5 32 17 33 20 80 5 80 -5 0 -10 -8 -11 -17z"/>
<path d="M569 767 c-6 -14 -19 -28 -28 -30 -9 -3 -4 -5 10 -6 21 -1 28 5 33
25 9 36 -1 43 -15 11z"/>
<path d="M1508 753 c2 -13 -1 -29 -7 -37 -8 -9 -8 -16 -2 -20 6 -4 8 -13 4
-21 -3 -8 0 -15 6 -15 6 0 11 6 12 13 1 18 6 48 12 77 4 20 1 26 -12 26 -13 0
-16 -7 -13 -23z"/>
<path d="M1364 658 c1 -49 -2 -68 -11 -68 -7 0 -10 -7 -7 -15 7 -17 22 -16 42
3 11 9 11 16 3 26 -7 8 -11 18 -10 22 1 5 -1 16 -4 24 -3 8 -8 29 -11 45 -2
17 -3 0 -2 -37z"/>
<path d="M453 698 c-16 -20 -25 -68 -13 -68 5 0 10 10 10 23 0 13 5 28 12 35
6 6 9 14 6 17 -3 3 -10 0 -15 -7z"/>
<path d="M502 684 c4 -3 1 -13 -7 -20 -8 -8 -11 -22 -8 -31 5 -14 9 -13 25 7
22 28 23 36 1 44 -10 4 -14 4 -11 0z"/>
<path d="M1602 656 c-14 -30 -9 -47 9 -29 6 6 9 21 7 34 -3 23 -3 23 -16 -5z"/>
<path d="M1667 660 c-10 -14 -13 -26 -7 -28 5 -2 10 -8 10 -14 0 -6 -7 -8 -15
-5 -8 4 -17 1 -21 -5 -4 -6 -3 -8 4 -4 6 3 13 2 17 -4 21 -34 47 10 35 60 l-6
24 -17 -24z"/>
<path d="M1750 668 c0 -5 -4 -7 -9 -4 -5 3 -12 -1 -15 -10 -5 -12 -2 -15 10
-10 8 3 19 6 24 6 4 0 10 6 13 13 3 8 -1 14 -9 14 -8 0 -14 -4 -14 -9z"/>
<path d="M222 620 c-51 -54 -212 -340 -212 -377 0 -13 11 -30 26 -40 68 -46
77 -61 71 -116 -2 -29 -8 -60 -12 -69 -11 -27 20 -23 39 4 30 43 14 152 -27
187 -10 7 -28 13 -42 13 -14 0 -25 5 -25 11 0 5 36 74 80 153 44 79 80 148 80
154 0 5 11 17 24 25 13 9 29 29 36 45 20 48 37 37 45 -27 4 -32 13 -69 20 -83
18 -33 35 -131 35 -198 0 -40 -5 -58 -17 -67 -15 -12 -16 -16 -4 -39 13 -23
12 -28 -2 -44 -20 -22 -22 -49 -5 -54 7 -3 11 -22 10 -51 -3 -41 0 -47 16 -47
15 0 21 8 24 34 2 19 0 45 -4 57 -5 12 -4 38 2 58 5 20 10 48 10 63 0 14 6 28
13 31 8 3 9 10 2 23 -5 11 -10 55 -10 99 0 44 -4 83 -9 86 -5 4 -10 17 -12 30
-6 47 -43 151 -60 170 -26 29 -40 24 -92 -31z"/>
<path d="M1506 643 c13 -9 6 -83 -7 -83 -5 0 -9 -8 -9 -17 1 -15 4 -14 20 6
24 28 23 92 0 98 -10 3 -11 2 -4 -4z"/>
<path d="M2988 645 c-3 -3 -27 -8 -54 -12 -46 -5 -111 -30 -102 -38 7 -7 149
32 160 43 7 7 10 12 7 12 -3 0 -8 -2 -11 -5z"/>
<path d="M1410 582 c0 -16 6 -32 13 -35 10 -4 13 4 12 26 -2 41 -25 49 -25 9z"/>
<path d="M914 576 c-8 -21 3 -36 27 -36 15 0 20 6 17 22 -4 27 -35 37 -44 14z"/>
<path d="M1210 565 c0 -25 31 -65 50 -65 5 0 7 7 4 15 -4 8 -13 15 -21 15 -13
0 -13 3 -3 15 7 8 19 15 26 15 8 0 14 5 14 11 0 6 -6 9 -14 6 -8 -3 -17 -1
-20 6 -3 7 -4 6 -3 -3 1 -8 -3 -15 -8 -15 -6 0 -9 6 -9 13 1 6 -2 12 -7 12 -5
0 -9 -11 -9 -25z"/>
<path d="M1551 554 c-15 -33 -14 -34 9 -34 17 0 19 3 10 19 -7 14 -6 21 2 23
8 3 9 6 1 11 -5 3 -15 -5 -22 -19z"/>
<path d="M1646 564 c-10 -26 -7 -52 7 -57 9 -3 11 6 9 34 -4 43 -7 47 -16 23z"/>
<path d="M2421 556 c-16 -17 -23 -38 -25 -74 -1 -32 -9 -58 -20 -70 -14 -16
-16 -35 -14 -103 1 -46 -3 -121 -9 -167 -14 -95 -9 -145 16 -140 13 3 16 17
17 66 1 34 7 96 14 137 7 42 9 85 5 102 -14 49 -2 113 22 113 13 0 15 8 10 50
-6 50 -1 80 12 80 9 0 45 -128 104 -370 33 -135 47 -176 60 -178 24 -5 23 4
-28 215 -57 233 -82 312 -108 341 -26 28 -28 27 -56 -2z"/>
<path d="M464 551 c3 -16 -2 -30 -17 -43 -21 -18 -21 -19 -1 -9 37 18 46 35
28 57 -15 18 -15 18 -10 -5z"/>
<path d="M1340 498 c-11 -30 -13 -31 -21 -13 -7 16 -8 13 -6 -14 1 -21 8 -36
17 -38 13 -4 13 -3 0 6 -9 7 -11 11 -3 11 7 0 17 17 22 37 13 47 7 54 -9 11z"/>
<path d="M1491 488 c-1 -28 14 -47 21 -26 2 6 14 -4 27 -23 19 -29 21 -30 16
-9 -4 14 -13 30 -21 36 -8 6 -14 17 -14 25 0 12 -2 12 -9 0 -7 -11 -10 -10
-14 5 -3 14 -5 12 -6 -8z"/>
<path d="M690 476 c0 -13 -5 -16 -17 -12 -15 5 -15 4 1 -9 31 -24 49 -20 35 8
-16 31 -19 33 -19 13z"/>
<path d="M770 481 c0 -5 -5 -22 -12 -38 -6 -15 -10 -32 -9 -36 1 -5 -3 -6 -8
-3 -5 3 -17 -6 -26 -21 -10 -15 -31 -38 -46 -51 -16 -13 -27 -28 -23 -33 3 -5
0 -9 -5 -9 -6 0 -34 -11 -63 -25 -28 -14 -64 -25 -80 -25 -15 0 -28 -5 -28
-10 0 -13 68 -7 96 8 15 8 24 8 32 0 12 -12 32 -2 32 17 0 9 6 12 17 8 11 -4
14 -3 9 5 -4 7 -2 12 4 12 7 0 9 7 6 16 -3 8 -2 13 2 11 18 -11 50 13 55 42 4
18 13 31 22 31 9 0 15 9 15 24 0 13 7 29 15 36 17 14 20 50 5 50 -5 0 -10 -4
-10 -9z"/>
<path d="M1459 472 c-25 -29 -31 -42 -20 -42 12 0 46 48 39 55 -2 2 -11 -4
-19 -13z"/>
<path d="M1294 385 c0 -49 1 -71 3 -48 2 23 2 64 0 90 -2 26 -3 8 -3 -42z"/>
<path d="M917 453 c-23 -22 14 -53 39 -32 11 9 11 15 3 25 -12 15 -31 18 -42
7z"/>
<path d="M2898 436 c-42 -12 -83 -27 -90 -35 -11 -11 -10 -12 7 -3 11 5 53 15
93 22 68 12 93 23 75 32 -5 3 -43 -5 -85 -16z"/>
<path d="M642 424 c4 -13 -44 -74 -59 -74 -7 0 -13 -8 -13 -18 0 -10 -6 -19
-12 -20 -7 0 -29 -3 -48 -6 -19 -2 -42 -5 -50 -5 -13 -1 -13 -2 0 -11 52 -34
182 36 232 125 10 18 10 19 -5 6 -14 -11 -20 -11 -33 -1 -8 8 -14 9 -12 4z"/>
<path d="M1414 385 c-4 -8 -11 -15 -18 -15 -6 0 -12 -20 -13 -50 -1 -28 3 -50
8 -50 5 0 9 11 9 24 0 13 7 42 15 65 8 22 12 41 9 41 -2 0 -7 -7 -10 -15z"/>
<path d="M1536 352 c-4 -11 -2 -30 2 -43 9 -22 10 -21 14 14 4 41 -7 60 -16
29z"/>
<path d="M1720 341 c-13 -24 -13 -78 -1 -86 15 -8 25 15 12 28 -18 18 -13 47
9 47 13 0 18 5 14 15 -8 21 -21 19 -34 -4z"/>
<path d="M914 299 c-10 -17 23 -46 37 -32 7 7 9 19 6 27 -7 18 -33 21 -43 5z"/>
<path d="M418 254 c-3 -11 -1 -28 3 -39 6 -16 8 -17 8 -3 1 9 6 18 11 20 7 2
6 10 -3 22 -14 19 -14 19 -19 0z"/>
<path d="M913 193 c-19 -7 -16 -31 5 -42 28 -15 47 1 33 28 -12 21 -17 23 -38
14z"/>
<path d="M1296 192 c-9 -15 0 -110 13 -130 4 -7 6 16 4 50 -6 91 -7 96 -17 80z"/>
<path d="M1513 170 c-1 -17 2 -30 6 -30 11 0 19 31 14 48 -8 22 -18 13 -20
-18z"/>
<path d="M880 155 c0 -5 10 -19 22 -32 18 -20 19 -23 5 -23 -9 0 -17 -4 -17
-10 0 -12 40 -13 59 -1 11 7 7 13 -15 27 -16 10 -35 24 -41 33 -7 8 -13 11
-13 6z"/>
<path d="M890 40 c-12 -8 -11 -10 5 -9 11 1 34 5 50 9 l30 8 -35 1 c-19 0 -42
-4 -50 -9z"/>
</g>
</svg>
