<?xml version="1.0" standalone="no"?>
<!DOCTYPE svg PUBLIC "-//W3C//DTD SVG 20010904//EN"
 "http://www.w3.org/TR/2001/REC-SVG-20010904/DTD/svg10.dtd">
<svg version="1.0" xmlns="http://www.w3.org/2000/svg"
 width="300.000000pt" height="450.000000pt" viewBox="0 0 300.000000 450.000000"
 preserveAspectRatio="xMidYMid meet">
<metadata>
Created by potrace 1.10, written by Peter Selinger 2001-2011
</metadata>
<g transform="translate(0.000000,450.000000) scale(0.100000,-0.100000)"
fill="#000000" stroke="none">
<path d="M1350 3333 c0 -4 -28 -8 -63 -9 -153 -3 -353 -100 -483 -236 -62 -63
-87 -104 -142 -223 -48 -106 -68 -177 -83 -299 -15 -120 7 -254 63 -386 43
-103 88 -250 88 -290 0 -15 5 -31 12 -38 6 -6 11 -34 11 -62 0 -28 3 -53 8
-56 13 -8 11 -94 -2 -94 -23 0 -182 -162 -267 -272 -33 -43 -62 -74 -66 -71
-3 3 -6 1 -6 -5 0 -6 -12 -17 -27 -24 -15 -7 -29 -20 -31 -29 -4 -22 91 -114
173 -167 39 -24 85 -58 104 -76 l35 -31 -23 29 c-12 16 -36 38 -54 49 -18 11
-39 28 -48 38 -9 10 -19 16 -22 12 -4 -3 -9 2 -13 11 -3 9 -10 13 -15 10 -5
-3 -9 -1 -9 5 0 6 -11 20 -24 33 -27 26 -31 73 -6 73 19 1 59 24 42 25 -7 0
-10 5 -7 10 4 6 -10 1 -31 -10 l-37 -21 42 47 c22 26 41 51 41 56 0 6 7 8 15
4 11 -4 15 1 15 19 0 15 11 31 30 45 17 12 30 30 30 41 0 10 4 19 10 19 15 0
110 92 110 107 0 7 6 13 13 13 7 0 28 16 46 35 31 33 33 39 27 83 -4 26 -8 67
-10 92 -1 25 -5 52 -9 60 -3 8 -18 62 -32 120 -15 58 -39 132 -54 165 -33 70
-65 174 -80 260 -10 56 -3 180 15 270 15 72 57 179 74 190 6 4 8 10 5 15 -3 5
10 33 30 62 19 29 35 59 35 66 0 7 31 44 68 81 64 63 71 67 110 65 23 -1 40 2
37 6 -6 9 47 50 64 50 6 0 11 4 11 10 0 13 -43 -4 -82 -31 -16 -12 -31 -19
-34 -17 -6 6 74 59 93 62 8 1 22 9 31 17 10 9 23 14 30 11 6 -2 32 6 58 17 29
13 52 18 61 12 11 -6 1 -11 -34 -20 -71 -19 -103 -32 -98 -41 3 -4 -2 -21 -10
-36 -8 -16 -15 -31 -15 -34 0 -11 62 -32 80 -27 11 3 20 1 20 -4 0 -13 -40
-36 -90 -50 -25 -8 -54 -21 -65 -30 -60 -50 -79 -68 -73 -69 4 0 13 6 20 14
29 28 241 126 275 126 7 0 13 -6 13 -12 0 -9 3 -10 8 -2 4 6 24 14 45 18 40 7
46 16 22 36 -31 26 -11 70 33 70 17 0 23 -5 20 -17 -2 -10 -10 -18 -18 -18 -8
0 -14 6 -12 13 1 8 -2 11 -8 7 -5 -3 -10 -15 -10 -27 0 -17 4 -19 27 -13 15 3
31 11 34 17 4 6 20 16 35 23 19 7 24 14 16 19 -7 4 -12 2 -12 -3 0 -21 -27
-11 -40 14 -10 20 -11 28 -2 37 7 7 12 8 12 2 0 -6 19 -10 43 -10 30 1 41 -3
39 -12 -1 -8 2 -11 9 -6 7 4 25 10 42 13 l29 6 -23 20 c-21 18 -22 18 -9 1 14
-18 13 -18 -30 -10 -25 4 -70 8 -102 9 -31 0 -60 3 -64 8 -4 4 -2 8 4 8 32 4
37 6 35 17 -2 6 4 9 12 6 8 -4 15 -11 15 -17 0 -6 3 -8 6 -4 3 3 17 2 30 -3
21 -8 24 -7 24 14 0 21 -5 23 -55 25 -30 1 -55 -2 -55 -6z m-20 -62 c0 -5 3
-16 6 -25 4 -11 0 -16 -14 -16 -15 0 -21 -8 -24 -37 -3 -21 -1 -41 4 -44 10
-6 -7 -22 -35 -32 -17 -6 -17 -5 -2 15 24 36 17 42 -16 14 -32 -27 -63 -34
-74 -15 -4 6 -12 8 -19 6 -6 -3 -25 1 -41 8 -17 7 -24 14 -17 14 7 1 10 6 7
11 -10 16 5 49 27 61 28 15 42 -2 23 -27 -13 -16 -16 -17 -25 -4 -8 13 -10 13
-10 -2 0 -41 26 -29 78 36 7 9 26 16 42 16 22 0 31 -6 39 -27 l10 -28 -2 26
c-1 14 4 34 12 43 15 18 31 21 31 7z"/>
<path d="M1470 3310 c0 -11 4 -20 10 -20 5 0 7 7 4 15 -9 22 81 10 184 -24 45
-15 82 -26 82 -24 0 8 -97 44 -156 58 -92 21 -124 20 -124 -5z"/>
<path d="M1570 3269 c0 -6 9 -9 20 -6 11 3 23 1 26 -5 3 -5 18 -7 33 -4 21 5
23 4 11 -5 -13 -9 -13 -10 1 -6 9 3 22 0 28 -6 8 -8 11 -8 11 0 0 6 -10 17
-22 25 -29 18 -108 23 -108 7z"/>
<path d="M1494 3231 c-18 -11 -35 -25 -39 -32 -4 -6 6 -1 23 11 18 13 37 20
47 16 22 -8 13 -32 -11 -28 -14 2 -16 1 -6 -6 12 -8 11 -15 -2 -40 -16 -31
-22 -57 -8 -35 5 8 12 9 22 2 13 -8 13 -10 0 -20 -13 -9 -12 -10 3 -5 11 3 17
0 17 -9 0 -8 5 -15 11 -15 6 0 8 7 5 16 -5 12 -2 15 11 9 28 -12 150 -21 170
-14 15 7 15 8 -5 8 -21 1 -22 3 -10 24 16 29 19 47 7 47 -6 0 -7 4 -4 10 4 6
17 4 36 -6 24 -12 29 -19 23 -37 -6 -19 -5 -20 9 -9 13 11 22 10 57 -7 23 -11
47 -18 54 -15 8 3 29 -4 47 -15 19 -12 28 -21 21 -21 -7 0 -10 -5 -7 -10 4 -6
10 -8 15 -5 7 5 35 -22 35 -34 0 -3 4 -5 8 -3 5 1 6 -2 2 -8 -6 -9 7 -14 28
-11 4 0 7 -5 7 -13 0 -8 3 -23 6 -33 4 -10 -10 -2 -35 22 -23 22 -39 45 -36
53 2 7 1 10 -5 7 -5 -3 -18 0 -29 7 -16 10 -18 15 -8 27 10 12 9 14 -5 8 -10
-3 -20 -2 -23 2 -4 8 -36 9 -97 3 -11 -1 -14 -8 -11 -22 5 -17 0 -20 -27 -20
-32 0 -64 22 -52 35 4 5 -1 5 -11 2 -10 -4 -26 -7 -35 -8 -9 0 -2 -7 16 -15
18 -8 30 -19 27 -24 -3 -6 1 -7 10 -4 9 4 46 -16 98 -53 106 -77 104 -76 124
-63 16 10 15 11 -4 7 -13 -3 -23 -2 -23 2 0 4 -15 15 -32 25 -78 44 -93 75
-60 117 14 16 24 20 38 15 12 -6 15 -10 7 -13 -22 -8 -14 -24 16 -34 22 -8 28
-15 24 -27 -6 -15 -4 -15 14 1 19 17 21 16 47 -8 24 -22 26 -28 14 -42 -11
-14 -10 -15 11 -8 17 5 22 4 19 -6 -3 -8 -9 -14 -14 -14 -5 -1 -23 -10 -41
-21 -23 -15 -29 -24 -22 -35 7 -13 4 -15 -16 -12 -15 3 -22 10 -18 19 3 9 -2
14 -17 14 -20 0 -21 -2 -9 -17 13 -16 12 -17 -3 -4 -10 7 -18 17 -18 22 0 5 8
9 18 10 14 0 14 2 -3 8 -11 5 -27 6 -35 3 -13 -5 -13 -4 0 13 14 17 14 18 -7
6 -21 -11 -27 -8 -24 12 1 4 -4 7 -11 6 -20 -3 -51 13 -39 20 7 5 4 13 -8 23
-18 15 -19 15 -24 -2 -3 -13 0 -17 10 -13 8 3 13 0 11 -6 -2 -7 30 -38 71 -69
41 -32 76 -62 78 -67 1 -6 -22 -25 -52 -44 -65 -39 -67 -52 -4 -20 66 33 120
80 114 98 -3 11 2 16 18 17 13 1 44 21 68 46 44 43 45 44 26 63 -10 11 -23 19
-27 18 -13 -4 -51 48 -43 60 4 6 1 7 -6 3 -8 -5 -14 0 -18 13 -3 11 -9 18 -14
15 -5 -3 -9 2 -9 10 0 10 -6 13 -15 10 -9 -4 -15 0 -15 10 0 9 -6 15 -12 14
-7 -2 -12 2 -11 8 1 7 -5 11 -15 10 -9 0 -17 4 -17 11 0 6 -4 15 -9 20 -5 4
-6 3 -3 -3 4 -7 0 -14 -7 -17 -10 -4 -14 0 -11 13 2 11 -1 23 -7 26 -7 5 -8 2
-3 -6 6 -10 4 -12 -9 -7 -10 4 -27 7 -37 7 -11 0 -17 5 -14 10 7 12 -34 30
-52 23 -7 -3 -13 1 -13 8 0 8 -5 7 -13 -5 -12 -16 -16 -16 -72 -2 -54 15 -60
14 -77 -1 -17 -15 -18 -15 -18 0 0 22 -8 21 -46 -2z m151 -22 c-4 -5 8 -9 24
-9 17 0 31 5 31 10 0 6 11 10 25 10 14 0 25 -4 25 -8 0 -5 20 -17 45 -28 25
-10 45 -21 45 -25 0 -4 9 -11 20 -14 11 -4 17 -11 14 -17 -4 -5 -9 -6 -13 -1
-7 10 -106 59 -140 68 -17 5 -22 4 -16 -5 5 -9 4 -11 -3 -6 -7 4 -12 1 -12 -7
0 -8 7 -18 16 -21 12 -4 13 -10 6 -19 -6 -6 -10 -16 -10 -22 -1 -15 -35 -23
-60 -14 -32 12 -44 11 -36 -3 6 -10 4 -10 -7 0 -7 6 -23 12 -35 12 -12 0 -27
7 -34 15 -11 13 -10 22 6 53 21 39 54 56 54 27 0 -10 -5 -13 -12 -9 -8 5 -9 2
-5 -9 3 -10 3 -17 -2 -17 -4 0 -8 -7 -8 -15 0 -8 7 -15 14 -15 8 0 11 5 8 10
-9 15 22 60 41 60 9 0 12 5 8 12 -4 7 -3 8 5 4 6 -4 9 -12 6 -17z"/>
<path d="M1440 3147 c0 -7 -10 -13 -22 -14 -52 -1 -68 -3 -68 -10 0 -8 94 -6
119 3 11 3 11 7 1 19 -15 18 -30 19 -30 2z"/>
<path d="M970 3101 c0 -10 -11 -30 -25 -45 -14 -15 -25 -34 -25 -42 0 -22 32
14 57 64 16 32 17 42 7 42 -8 0 -14 -8 -14 -19z"/>
<path d="M1427 3094 c4 -11 -6 -14 -43 -14 -54 0 -175 -19 -187 -29 -4 -4 23
-3 59 3 49 7 71 6 85 -2 16 -10 19 -9 19 3 0 8 5 15 10 15 6 0 10 -8 10 -17 0
-15 2 -15 9 -4 7 11 22 12 63 8 66 -8 85 1 52 26 -23 17 -24 17 -24 -2 0 -15
-5 -18 -22 -13 -18 4 -19 6 -5 11 13 5 12 8 -8 17 -19 9 -22 9 -18 -2z"/>
<path d="M1375 3011 c-3 -6 -11 -8 -17 -5 -7 5 -9 1 -5 -9 3 -9 2 -19 -4 -23
-7 -4 -7 -10 0 -18 7 -9 7 -16 -2 -25 -10 -11 -9 -13 3 -9 8 3 16 13 18 24 2
10 8 29 14 41 12 23 6 43 -7 24z"/>
<path d="M2118 2948 c-10 -12 -18 -26 -18 -30 0 -4 -6 -8 -12 -8 -7 0 -24 -17
-38 -36 -30 -42 -61 -74 -72 -74 -4 0 -8 -5 -8 -11 0 -6 9 -9 20 -6 10 3 24
-1 31 -9 6 -8 15 -11 20 -8 5 3 2 12 -6 20 -17 17 -21 39 -5 29 6 -3 10 2 10
13 0 22 30 52 52 52 9 0 18 -9 21 -21 4 -16 3 -18 -8 -9 -14 12 -17 9 -41 -37
-10 -18 -8 -25 17 -49 28 -26 40 -52 19 -39 -5 3 -10 1 -10 -4 0 -14 13 -14
28 1 9 9 12 9 12 -3 0 -9 -6 -16 -12 -16 -7 0 -20 -2 -28 -4 -10 -3 -14 3 -13
16 1 11 0 15 -3 8 -3 -7 -18 3 -39 25 -51 54 -42 32 11 -30 25 -29 62 -79 81
-111 20 -31 38 -55 40 -53 2 2 -5 19 -16 37 -11 18 -17 37 -14 42 3 6 1 7 -5
3 -7 -4 -13 -2 -13 3 -1 6 -2 16 -3 21 0 6 -8 15 -16 20 -12 8 -9 10 13 10 16
0 26 -4 22 -10 -3 -6 1 -13 10 -16 9 -4 14 -13 11 -20 -3 -8 0 -13 7 -11 7 1
11 -6 11 -16 -1 -10 1 -16 4 -12 3 3 21 -20 40 -52 18 -32 30 -47 27 -35 -6
21 -5 23 13 13 26 -14 49 -78 33 -94 -13 -13 -15 -31 -3 -23 4 2 13 -4 20 -14
9 -14 9 -21 0 -26 -7 -5 -5 -12 8 -21 15 -11 16 -15 5 -22 -11 -7 -10 -11 5
-20 11 -6 13 -11 7 -11 -7 0 -13 -7 -13 -16 0 -8 3 -13 8 -11 4 3 7 -9 6 -26
0 -18 3 -42 7 -53 4 -13 3 -26 -4 -33 -6 -6 -7 -11 -2 -11 9 0 14 -23 18 -92
1 -14 5 -24 8 -22 4 2 9 -6 12 -17 5 -18 2 -20 -21 -14 -29 7 -166 16 -161 10
2 -2 41 -8 87 -15 46 -6 89 -13 97 -16 7 -3 15 2 17 10 3 14 6 14 28 3 14 -8
32 -14 40 -15 8 -1 40 -7 70 -14 l55 -13 -40 -5 c-23 -4 -54 -1 -74 7 -39 15
-101 17 -101 4 0 -13 24 -19 105 -26 98 -8 125 -15 122 -28 -2 -14 -71 -119
-90 -138 -7 -8 -22 -27 -33 -44 -10 -16 -37 -55 -60 -85 -22 -30 -53 -77 -69
-105 -15 -27 -31 -52 -34 -55 -3 -3 -13 -17 -21 -32 -8 -14 -46 -76 -85 -137
-38 -61 -75 -121 -82 -133 -6 -12 -19 -25 -27 -30 -9 -5 -16 -13 -16 -17 0 -5
-17 -37 -38 -72 -45 -73 -92 -98 -147 -78 -84 30 -165 14 -165 -34 0 -47 42
-245 60 -277 26 -49 22 -153 -5 -175 -34 -25 -67 -18 -97 22 -16 20 -28 30
-28 22 0 -8 5 -20 12 -27 17 -17 -7 -16 -64 4 -43 14 -46 17 -44 47 2 18 1 24
-1 14 -5 -21 -33 -23 -33 -1 0 8 -4 13 -10 9 -5 -3 -7 -12 -3 -20 6 -16 -17
-21 -32 -7 -6 5 -28 16 -50 24 -22 9 -58 24 -81 34 -40 17 -40 18 -22 36 39
39 6 88 -44 69 l-28 -10 23 -38 22 -38 -32 23 c-17 12 -39 22 -50 22 -26 1
-56 26 -47 41 5 8 3 10 -6 4 -8 -5 -18 -1 -27 10 -7 11 -13 14 -13 8 0 -6 -9
-9 -21 -6 -21 6 -21 6 2 19 13 7 26 11 30 9 3 -2 5 18 3 45 -1 28 1 48 4 46 4
-2 16 0 27 5 14 6 7 8 -26 7 -48 -2 -73 7 -64 23 4 5 -2 9 -11 9 -10 0 -14 -3
-11 -7 4 -3 1 -13 -6 -22 -10 -14 -10 -14 3 -4 12 9 19 8 34 -3 11 -7 18 -15
15 -16 -41 -25 -53 -30 -57 -19 -2 6 -12 11 -22 11 -16 0 -30 18 -30 41 0 5
10 14 23 20 20 9 20 9 1 6 -13 -3 -26 3 -34 17 l-13 20 -8 -22 c-12 -33 -26
-27 -34 14 -7 39 7 59 35 48 8 -3 11 -1 6 3 -4 4 -18 8 -29 8 -17 0 -23 -7
-27 -34 -3 -23 -11 -35 -23 -37 -14 -2 -18 2 -14 16 3 11 1 20 -5 22 -15 5
-12 68 5 85 8 9 23 13 31 10 18 -7 22 -37 5 -37 -5 0 -7 5 -4 10 3 6 1 10 -5
10 -11 0 -26 -28 -18 -35 3 -3 19 0 37 6 41 14 65 -3 57 -40 -5 -22 -4 -23 4
-9 12 19 40 25 40 8 0 -5 -7 -10 -16 -10 -8 0 -12 -4 -9 -10 3 -6 1 -10 -5
-10 -6 0 -8 -5 -5 -11 5 -7 15 -3 29 10 12 12 28 21 34 21 18 0 14 18 -5 24
-10 3 -49 26 -87 51 -39 25 -73 41 -76 36 -9 -16 -60 -25 -60 -10 0 7 -2 10
-5 7 -3 -3 2 -19 11 -35 19 -33 13 -63 -12 -63 -14 0 -14 3 -4 15 9 11 10 22
3 38 -6 12 -10 26 -11 31 0 5 -8 13 -17 19 -19 10 -55 -16 -41 -30 4 -4 13 0
20 9 12 16 14 16 26 -6 16 -31 5 -48 -25 -40 -12 3 -26 1 -30 -5 -4 -8 -16 -6
-38 6 -18 10 -32 18 -33 18 -1 0 -4 12 -8 28 -6 24 -4 27 18 27 16 0 23 5 22
16 0 9 5 19 12 21 6 3 12 -3 12 -12 0 -10 5 -14 13 -10 6 4 5 1 -4 -7 -9 -7
-14 -19 -11 -27 3 -8 0 -11 -7 -7 -6 4 -14 0 -17 -9 -8 -19 -6 -20 25 -30 21
-6 23 -5 16 23 -5 24 -2 33 17 46 18 13 19 16 6 16 -20 0 -43 36 -28 45 15 9
0 35 -21 35 -11 0 -23 10 -28 24 -11 26 -38 41 -44 23 -4 -13 45 -67 62 -67 6
0 11 -4 11 -10 0 -5 -5 -10 -10 -10 -6 0 -9 -5 -8 -12 2 -6 -5 -14 -16 -16
-11 -2 -16 0 -12 7 4 6 1 11 -6 11 -10 0 -9 3 2 11 12 8 10 9 -9 4 -16 -5 -21
-4 -17 4 4 6 2 11 -4 11 -7 0 -9 7 -6 16 3 9 2 12 -5 8 -6 -3 -8 -15 -6 -26 3
-11 -2 -28 -10 -38 -17 -19 -43 -16 -43 5 0 11 -17 23 -42 30 -5 2 -11 4 -15
5 -5 1 -11 2 -15 1 -22 -3 -4 22 22 32 17 7 30 19 30 29 0 9 9 19 19 23 11 3
25 13 33 23 11 15 11 15 -2 5 -8 -6 -19 -11 -23 -11 -5 0 -25 -14 -44 -31 -20
-18 -41 -30 -47 -28 -10 3 -36 -15 -36 -26 0 -3 45 -35 99 -73 55 -38 102 -75
104 -84 2 -8 22 -24 43 -35 21 -11 61 -35 89 -53 48 -31 88 -45 53 -18 -10 7
-15 16 -11 19 3 4 -2 7 -12 7 -14 0 -16 3 -8 11 8 8 17 7 32 -3 20 -12 26 -27
22 -57 -2 -7 2 -10 8 -6 6 3 14 -1 17 -9 3 -9 10 -16 16 -16 5 0 16 -7 25 -16
9 -8 22 -13 29 -10 8 3 14 -1 14 -9 0 -21 36 -39 43 -21 4 10 -1 12 -16 8 -19
-5 -20 -4 -8 11 12 15 16 15 42 1 30 -15 41 -31 15 -21 -20 8 -28 -19 -10 -34
13 -10 17 -10 24 1 7 11 11 8 19 -13 6 -15 15 -27 20 -27 5 0 16 -6 23 -13 7
-6 33 -22 58 -34 25 -13 39 -23 32 -23 -30 0 -362 184 -387 215 -11 15 -129
95 -139 95 -20 0 2 -20 54 -48 33 -19 60 -37 60 -41 0 -5 -13 -11 -30 -14 -46
-10 -78 -93 -50 -137 7 -11 14 -12 32 -3 60 28 73 30 123 17 27 -8 60 -14 72
-14 47 0 243 -75 420 -161 83 -40 264 -104 336 -119 66 -13 99 -8 127 20 28
28 29 176 1 211 -10 14 -27 69 -39 129 -12 58 -24 115 -28 128 -8 27 9 29 80
7 103 -31 171 -10 214 66 13 24 55 89 92 144 37 55 111 170 165 255 107 171
281 423 327 476 16 18 27 38 23 44 -10 16 -71 44 -165 75 -47 16 -88 32 -93
35 -4 4 -14 51 -22 106 -40 272 -81 460 -130 604 -24 70 -102 220 -114 220 -3
0 -14 -10 -23 -22z m39 -53 c12 -11 23 -27 22 -35 0 -10 -4 -8 -9 5 -8 19 -9
19 -9 -2 -1 -13 5 -23 12 -24 6 0 2 -5 -10 -11 -13 -6 -23 -16 -23 -22 0 -6 4
-6 12 2 13 13 52 -3 42 -19 -3 -6 2 -16 11 -23 10 -7 16 -19 13 -26 -2 -8 -13
1 -27 23 -13 22 -27 34 -34 30 -8 -5 -8 -8 1 -11 22 -7 13 -22 -13 -22 -22 0
-24 -2 -13 -14 9 -10 17 -11 26 -4 16 13 52 -17 52 -43 0 -10 5 -21 11 -24 10
-7 19 -26 34 -74 5 -18 4 -22 -6 -16 -8 5 -5 -2 6 -15 l20 -23 -25 8 c-14 4
-25 8 -26 9 -12 14 -84 147 -84 155 0 6 -9 15 -20 21 -11 6 -18 15 -15 20 3 5
-2 13 -11 18 -19 11 -15 58 5 54 8 -2 20 -1 28 2 12 5 10 12 -8 38 -13 17 -17
28 -10 24 8 -5 12 -3 10 5 -1 8 0 21 1 29 1 13 2 13 7 0 4 -8 17 -24 30 -35z
m-1167 -2010 c0 -8 -8 -15 -17 -15 -17 -1 -17 -2 1 -15 17 -13 17 -14 -5 -12
-26 1 -49 19 -49 37 0 8 9 10 24 6 14 -3 28 -2 31 4 9 14 15 12 15 -5z m-153
-62 c6 -18 -56 -48 -71 -33 -8 9 -5 16 13 31 26 21 52 22 58 2z m283 -12 c0
-26 -16 -35 -24 -15 -10 25 -7 34 9 34 8 0 15 -9 15 -19z m208 -113 c-4 -27
-28 -36 -28 -10 0 20 8 32 22 32 5 0 8 -10 6 -22z"/>
<path d="M1461 2937 c-11 -13 -21 -35 -21 -49 0 -14 -10 -33 -21 -44 -53 -46
-74 -150 -45 -219 l15 -34 -27 5 c-15 3 -47 -2 -71 -10 -24 -9 -54 -16 -66
-16 -13 0 -25 -7 -29 -15 -3 -8 -13 -15 -23 -16 -10 0 -36 -9 -58 -19 l-40
-19 40 2 c22 2 45 6 50 9 6 3 51 18 100 33 50 15 112 36 138 47 49 21 58 45
16 40 -19 -2 -21 0 -9 8 13 9 8 14 -12 12 -3 -1 -12 5 -18 13 -14 17 -6 50 10
40 17 -10 11 7 -7 22 -10 8 -13 12 -7 9 7 -3 10 3 7 17 -3 14 8 37 30 67 20
25 37 56 39 70 2 18 8 24 23 22 16 -2 17 -1 5 7 -13 9 -13 11 3 11 18 0 23 15
8 24 -4 3 -18 -5 -30 -17z"/>
<path d="M1157 2944 c7 -3 9 -13 6 -22 -4 -14 -3 -15 6 -2 9 13 12 13 28 -3
17 -18 17 -19 -1 -33 -17 -12 -18 -14 -3 -14 9 0 17 5 17 12 0 6 3 9 6 6 3 -4
1 -22 -4 -42 -6 -20 -7 -36 -2 -36 5 0 11 12 13 28 3 23 4 21 5 -8 1 -31 -16
-91 -17 -64 -1 6 -8 11 -16 11 -8 0 -12 -4 -9 -8 2 -4 0 -10 -6 -14 -5 -3 -10
-12 -10 -18 0 -8 3 -8 8 -2 10 14 35 18 30 5 -2 -7 -8 -12 -13 -12 -6 0 -20
-4 -33 -9 -15 -6 -21 -5 -17 1 3 6 1 10 -4 10 -6 0 -11 -7 -11 -15 0 -8 -3
-15 -8 -15 -12 0 -33 -40 -26 -51 4 -6 13 2 21 19 11 23 19 29 36 24 18 -5 19
-7 5 -10 -10 -2 -18 -8 -18 -13 0 -6 -4 -7 -10 -4 -5 3 -10 -1 -10 -10 0 -8
-11 -20 -24 -24 -13 -5 -26 -19 -29 -31 -3 -11 -10 -19 -15 -18 -5 2 -18 -8
-30 -22 -18 -22 -22 -23 -38 -10 -18 14 -18 14 -5 -2 11 -14 11 -18 1 -18 -8
0 -11 -3 -8 -6 4 -3 30 6 60 19 98 45 208 194 208 281 0 64 -40 126 -80 125
-9 0 -10 -2 -3 -5z"/>
<path d="M1293 2918 c-5 -7 -14 -20 -18 -28 -7 -12 -6 -13 6 -4 8 7 23 13 33
15 17 4 17 6 4 17 -12 10 -17 10 -25 0z"/>
<path d="M1021 2896 c-19 -7 -30 -15 -24 -19 10 -6 73 19 73 29 0 6 -11 4 -49
-10z"/>
<path d="M1120 2870 c-13 -8 -12 -10 4 -10 10 0 25 -8 33 -17 12 -17 13 -16
11 7 -3 27 -24 36 -48 20z"/>
<path d="M1776 2846 c-10 -6 -33 -23 -50 -38 -17 -16 -34 -28 -38 -28 -3 0
-19 -5 -35 -11 l-28 -12 30 -8 c16 -5 32 -5 35 -1 3 4 26 23 52 42 56 41 83
85 34 56z"/>
<path d="M1124 2842 c5 -8 0 -12 -13 -12 -11 0 -23 -5 -27 -12 -5 -7 -3 -8 6
-3 7 4 16 2 21 -6 4 -8 13 -14 18 -14 6 0 17 -9 25 -20 16 -21 16 -21 16 23 0
7 -4 8 -36 11 -13 1 -14 4 -5 15 9 11 9 16 0 22 -8 4 -9 3 -5 -4z"/>
<path d="M1820 2817 c-19 -19 -57 -46 -83 -62 -45 -26 -55 -44 -29 -53 6 -2
27 13 46 32 19 20 40 36 47 36 7 0 9 3 6 7 -4 3 3 11 14 17 24 12 57 56 42 56
-5 0 -24 -15 -43 -33z"/>
<path d="M1540 2790 c0 -6 -5 -8 -12 -4 -7 4 -8 3 -4 -4 4 -6 12 -9 19 -6 7 2
26 -9 42 -26 16 -16 25 -30 22 -30 -4 0 -3 -9 3 -19 14 -27 -10 -22 -52 9 -18
14 -37 24 -41 22 -5 -1 -6 2 -3 7 3 5 -2 15 -10 22 -15 12 -16 10 -9 -21 6
-29 5 -33 -6 -22 -18 17 -29 15 -29 -5 0 -13 2 -15 8 -5 7 9 13 8 27 -8 16
-18 17 -23 5 -30 -8 -5 -19 -6 -25 -3 -5 4 -1 -4 10 -17 l20 -24 -24 15 c-23
15 -31 36 -33 87 0 12 -5 22 -10 22 -6 0 -8 -14 -5 -35 3 -19 2 -35 -4 -35 -5
0 -9 -5 -9 -11 0 -5 5 -7 10 -4 6 4 15 -7 21 -23 15 -44 72 -32 61 13 -5 19
-4 19 15 3 24 -22 34 -23 27 -3 -4 8 -9 13 -13 11 -3 -2 -14 7 -24 20 -19 26
-8 34 13 9 7 -9 21 -13 31 -10 14 5 16 1 12 -15 -4 -15 -1 -20 15 -20 12 0 23
4 26 9 3 4 20 11 37 15 27 5 30 8 19 21 -13 16 -35 21 -25 6 3 -5 1 -12 -4
-16 -6 -3 -8 3 -6 13 2 12 -13 33 -46 61 -27 23 -49 37 -49 31z"/>
<path d="M914 2764 l-29 -26 28 17 c16 9 34 14 41 12 7 -3 19 -1 27 4 9 5 9 9
2 9 -6 0 -18 3 -26 6 -8 3 -27 -7 -43 -22z"/>
<path d="M1003 2782 c4 -5 0 -15 -8 -22 -8 -7 -12 -16 -9 -21 6 -11 24 -12 23
-1 -3 20 2 32 12 26 7 -4 10 -1 7 6 -2 8 -10 16 -18 18 -7 3 -10 0 -7 -6z"/>
<path d="M1085 2770 c-3 -5 -3 -10 2 -11 4 0 -3 -5 -17 -11 l-25 -11 24 -5
c13 -2 27 2 31 8 4 6 11 11 16 10 5 -1 10 4 12 10 3 8 -3 10 -18 5 -15 -5 -20
-4 -16 4 4 6 5 11 2 11 -3 0 -8 -4 -11 -10z"/>
<path d="M1035 2685 c4 -38 10 -73 14 -78 4 -4 4 25 0 64 -5 39 -11 74 -15 78
-3 3 -3 -25 1 -64z"/>
<path d="M1800 2689 c-19 -5 -40 -10 -47 -11 -7 -1 -10 -5 -7 -10 3 -4 -9 -8
-26 -8 -20 0 -29 -4 -25 -11 4 -6 14 -8 24 -5 13 5 13 3 -2 -8 -12 -9 -14 -16
-7 -21 5 -3 7 -11 4 -17 -4 -7 -2 -8 5 -4 6 4 9 12 5 17 -3 6 6 21 21 35 28
26 45 33 27 11 -9 -11 -5 -13 21 -10 50 5 66 8 74 18 4 4 -2 5 -14 2 -13 -3
-23 -1 -23 4 0 5 14 9 31 9 24 0 30 -4 25 -15 -5 -13 -2 -14 15 -4 17 9 20 8
17 -3 -3 -7 -24 -15 -48 -18 -27 -3 -45 -11 -47 -20 -4 -12 -3 -12 5 -1 8 10
14 11 32 1 15 -8 20 -8 16 -1 -4 7 1 11 13 11 11 0 27 9 35 21 15 22 36 18 36
-6 0 -9 9 -14 23 -12 12 1 21 -3 20 -9 -3 -15 25 -13 31 3 3 7 -1 13 -8 13 -7
0 -34 11 -58 25 -52 29 -118 38 -168 24z"/>
<path d="M1647 2636 c-3 -7 0 -19 6 -25 21 -21 -2 -23 -32 -1 -17 12 -31 17
-31 12 0 -5 12 -15 26 -22 32 -18 50 -48 36 -62 -13 -13 -66 37 -56 54 4 7 3
8 -4 4 -13 -8 5 -56 20 -56 5 0 6 -10 3 -22 -4 -15 -3 -19 3 -10 5 7 14 12 21
10 7 -2 20 7 28 20 12 17 13 22 2 22 -7 0 -3 7 10 17 23 16 23 17 5 31 -13 10
-15 16 -6 19 6 3 10 9 6 14 -8 14 -31 11 -37 -5z"/>
<path d="M992 2608 c-6 -18 -9 -34 -7 -37 3 -2 5 1 5 8 0 7 4 9 10 6 6 -4 7 1
3 11 -4 12 -3 15 5 10 7 -4 12 -1 12 8 0 28 -16 25 -28 -6z"/>
<path d="M1935 2631 c-3 -6 0 -13 5 -16 6 -4 15 -17 20 -29 7 -19 40 -33 40
-18 0 12 -60 70 -65 63z"/>
<path d="M1781 2599 c-23 -25 -61 -118 -61 -149 0 -12 7 -20 17 -20 13 0 14
-3 5 -12 -14 -14 -16 -32 -3 -23 5 3 12 1 16 -4 3 -5 -2 -14 -12 -19 -15 -9
-13 -14 18 -53 19 -24 34 -47 34 -51 0 -5 15 -17 33 -28 17 -11 32 -16 32 -11
0 5 -7 12 -16 15 -8 3 -12 11 -8 17 4 7 3 9 -3 6 -13 -8 -42 23 -48 50 -3 17
1 20 18 16 16 -3 18 -2 8 5 -7 5 -9 12 -5 14 5 3 3 3 -5 1 -8 -2 -22 -1 -33 3
-15 4 -17 9 -7 20 6 7 14 12 18 10 4 -3 13 0 21 5 11 7 8 9 -14 7 -18 -2 -31
2 -34 11 -3 10 3 11 29 6 19 -4 31 -4 27 0 -4 5 -2 15 5 23 10 13 9 14 -10 4
-30 -17 -53 -15 -53 4 0 8 -4 12 -10 9 -15 -10 -12 21 4 34 8 7 12 19 9 29 -3
11 7 23 28 36 25 15 31 16 27 4 -5 -11 1 -13 23 -10 17 3 29 0 29 -7 0 -6 -6
-11 -12 -12 -7 -1 -2 -4 12 -8 32 -10 34 -7 20 18 -6 12 -29 29 -51 38 -28 11
-37 18 -28 24 8 4 11 11 7 14 -3 4 -15 -4 -27 -16z"/>
<path d="M1492 2595 l-24 -13 38 -28 c20 -16 47 -38 59 -49 49 -44 55 -13 7
35 -20 20 -24 21 -18 6 6 -16 4 -17 -10 -6 -9 8 -14 23 -11 37 4 20 2 21 -11
11 -13 -11 -15 -10 -9 5 3 9 5 17 4 16 -1 -1 -13 -7 -25 -14z"/>
<path d="M1893 2576 c-9 -11 -8 -15 7 -19 25 -6 47 18 24 27 -19 7 -17 8 -31
-8z"/>
<path d="M1431 2558 c12 -22 11 -22 -8 -5 -30 27 -39 20 -12 -9 32 -35 133
-106 194 -137 40 -20 55 -36 78 -79 15 -30 51 -76 80 -104 28 -27 39 -35 24
-18 -15 17 -24 34 -20 38 5 4 3 6 -3 4 -16 -4 -56 43 -49 59 3 9 0 11 -7 7 -8
-5 -9 -2 -5 10 4 9 3 15 -2 12 -5 -3 -14 8 -20 24 -7 21 -22 36 -46 45 -19 9
-35 18 -35 20 0 3 15 14 33 25 17 11 27 20 21 20 -6 0 -23 -9 -38 -21 l-26
-21 -45 27 c-25 14 -43 30 -39 36 3 5 2 8 -3 7 -14 -4 -63 34 -57 44 3 5 14 2
24 -7 12 -11 20 -13 25 -5 3 6 1 9 -6 8 -7 -2 -13 2 -14 7 -1 20 -17 35 -36
35 -17 0 -18 -3 -8 -22z"/>
<path d="M1692 2556 c-11 -24 -10 -24 19 -14 33 11 40 23 8 15 -16 -4 -18 -3
-8 9 6 8 7 14 2 14 -5 0 -15 -11 -21 -24z"/>
<path d="M1892 2505 c-12 -14 -31 -25 -42 -25 -11 0 -20 -4 -20 -8 0 -5 13 -7
29 -4 38 5 50 -16 14 -24 -46 -10 -49 -12 -18 -14 26 0 28 -2 12 -11 -10 -6
-25 -8 -33 -5 -8 3 -14 0 -14 -5 0 -7 11 -9 25 -7 14 3 25 1 25 -3 0 -5 7 -9
15 -9 8 0 12 -6 9 -14 -3 -8 0 -17 7 -22 7 -4 10 -3 5 4 -3 6 -2 22 3 35 6 15
6 38 1 56 -6 23 -4 33 10 46 20 18 51 17 58 -3 2 -8 -2 -10 -14 -5 -14 5 -16
3 -11 -11 5 -13 1 -19 -13 -23 -11 -3 -17 -10 -14 -15 3 -5 14 -2 24 7 9 8 37
21 61 28 37 11 41 14 22 19 -13 3 -23 2 -23 -3 0 -5 -5 -9 -11 -9 -6 0 -9 6
-6 14 4 10 -5 18 -25 25 -44 16 -52 14 -76 -14z"/>
<path d="M1680 2501 c0 -10 -3 -26 -6 -35 -3 -9 -1 -16 5 -16 6 0 11 6 11 14
0 8 6 17 13 19 9 4 9 6 -1 6 -7 1 -11 5 -7 10 3 5 1 12 -5 16 -5 3 -10 -3 -10
-14z"/>
<path d="M981 2479 c-16 -25 -17 -36 -9 -55 11 -23 12 -23 30 -7 16 14 22 14
43 3 19 -10 28 -11 37 -2 16 16 -14 26 -62 19 -34 -4 -40 -2 -40 13 0 23 16
35 25 20 5 -8 13 -6 26 6 21 19 16 34 -12 34 -11 0 -27 -13 -38 -31z"/>
<path d="M1187 2488 c-10 -5 -30 -7 -44 -3 l-26 6 29 -28 c16 -15 52 -53 79
-83 63 -71 159 -145 255 -200 69 -39 170 -84 170 -76 0 2 -25 20 -56 40 -37
25 -54 42 -50 52 3 8 1 14 -4 14 -5 0 -12 16 -16 35 -3 19 -10 33 -14 30 -4
-3 -11 2 -14 11 -3 8 -10 13 -15 10 -5 -4 -12 0 -14 6 -3 7 -6 3 -6 -10 -1
-13 4 -32 9 -43 6 -10 8 -19 5 -19 -10 0 -49 25 -98 63 -27 20 -53 37 -58 37
-15 0 -89 71 -89 86 0 7 -8 17 -17 23 -13 7 -14 12 -6 23 17 20 2 39 -20 26z"/>
<path d="M1686 2445 c-16 -12 -22 -12 -28 -2 -5 8 -8 7 -8 -5 0 -12 -5 -16
-17 -12 -15 5 -16 4 -3 -5 8 -5 26 -7 39 -4 21 5 23 3 17 -13 -6 -15 -4 -16 5
-7 9 9 23 64 16 63 -1 0 -11 -7 -21 -15z"/>
<path d="M1117 2442 c7 -4 11 -17 11 -28 -2 -17 -9 -21 -37 -21 -20 0 -42 7
-50 15 -13 12 -16 12 -28 -3 -14 -20 -7 -39 12 -31 7 2 17 0 23 -6 6 -6 25
-11 42 -10 20 0 30 -4 30 -14 0 -8 5 -12 10 -9 6 3 10 15 10 26 0 10 2 19 4
19 10 0 63 -60 58 -65 -3 -3 0 -5 6 -5 7 0 12 -6 12 -14 0 -8 5 -18 12 -22 6
-4 8 -3 5 3 -4 6 0 14 9 17 12 4 15 2 10 -9 -3 -8 -1 -15 5 -15 8 0 14 -12 35
-69 2 -8 7 -11 10 -8 3 3 0 15 -6 27 -19 36 -7 32 44 -15 26 -25 54 -45 62
-45 8 0 14 -4 14 -10 0 -5 15 -16 33 -25 17 -8 39 -18 47 -23 98 -57 168 -74
283 -70 56 1 107 -1 114 -5 6 -4 14 -3 17 2 10 16 -5 19 -125 31 -137 14 -209
36 -313 95 -89 51 -217 144 -249 182 -12 14 -36 42 -54 61 -17 20 -30 40 -27
44 3 4 -5 8 -18 8 -14 0 -19 -3 -11 -8z"/>
<path d="M1506 2410 c-20 -21 -13 -48 8 -31 7 6 15 9 17 7 2 -2 5 7 5 20 2 28
-4 29 -30 4z"/>
<path d="M1614 2357 c5 -20 1 -29 -14 -37 -11 -6 -20 -18 -20 -27 0 -13 4 -12
19 5 22 26 31 28 31 7 0 -9 9 -15 23 -15 18 0 19 2 7 10 -8 5 -12 10 -7 10 4
0 1 10 -7 23 -8 12 -15 26 -15 32 0 5 -5 11 -12 14 -8 2 -10 -4 -5 -22z"/>
<path d="M1460 2362 c0 -7 11 -24 25 -38 l25 -25 10 27 c12 31 3 47 -13 23
-10 -15 -12 -15 -28 5 -11 12 -18 16 -19 8z"/>
<path d="M1835 2331 c-4 -7 3 -11 17 -11 17 0 27 -8 34 -27 l10 -28 1 33 c1
21 -3 32 -12 32 -7 0 -20 3 -28 6 -8 3 -18 1 -22 -5z"/>
<path d="M1604 2237 c-16 -9 -19 -47 -4 -47 6 0 15 -11 21 -24 7 -14 23 -27
36 -31 14 -3 32 -13 40 -20 8 -8 23 -15 34 -15 11 0 64 -11 117 -24 95 -23
216 -44 297 -52 56 -6 24 12 -35 20 -25 3 -56 7 -70 10 -187 33 -230 45 -230
66 0 5 -8 9 -17 8 -41 -3 -63 3 -63 17 0 9 -9 15 -25 15 -13 0 -28 7 -33 16
-5 9 -13 15 -18 14 -15 -3 -15 17 1 33 8 9 15 18 15 20 0 8 -50 3 -66 -6z"/>
<path d="M1802 1958 c-7 -7 -12 -18 -12 -25 0 -11 4 -11 19 -1 11 7 17 16 15
20 -11 17 10 7 28 -14 l20 -23 -36 -3 c-46 -4 -47 -22 -2 -22 45 0 61 34 30
64 -18 19 -45 21 -62 4z"/>
<path d="M920 1574 c14 -10 31 -24 37 -32 7 -9 16 -13 19 -9 9 9 -43 57 -63
57 -14 0 -12 -3 7 -16z"/>
<path d="M710 1508 c0 -7 9 -28 20 -46 11 -18 18 -37 15 -42 -3 -6 1 -7 10 -4
29 11 47 -16 41 -61 -5 -28 -2 -47 8 -60 14 -20 15 -19 44 8 30 29 47 24 36
-10 -5 -17 -5 -17 6 1 12 17 13 17 29 -8 10 -14 21 -23 24 -19 4 3 16 -2 27
-12 11 -10 30 -23 43 -30 17 -8 21 -18 19 -41 -4 -38 18 -59 53 -50 18 5 25
13 25 30 0 24 -45 60 -154 121 -27 15 -51 36 -54 47 -3 11 -10 17 -19 14 -14
-6 -71 47 -135 127 -21 27 -38 43 -38 35z"/>
<path d="M760 1509 c-13 -9 -13 -10 0 -8 43 4 58 -2 70 -31 7 -16 15 -30 19
-30 3 -1 26 -19 51 -40 40 -36 43 -41 27 -52 -15 -12 -14 -14 13 -30 17 -9 30
-13 30 -8 0 4 -6 10 -12 13 -9 3 -8 9 5 18 17 13 16 17 -14 57 -23 31 -37 42
-50 39 -10 -3 -18 -2 -17 2 4 19 -19 44 -58 61 -50 23 -45 22 -64 9z"/>
<path d="M600 1405 c0 -14 34 -71 46 -78 20 -12 17 -27 -3 -20 -10 3 -15 3
-11 -1 3 -4 14 -9 24 -10 10 -2 20 -8 22 -14 2 -8 -3 -10 -15 -5 -15 5 -14 1
6 -20 18 -20 28 -24 41 -17 13 7 20 4 29 -16 6 -14 9 -29 6 -34 -3 -4 2 -13
10 -20 12 -10 18 -10 32 1 9 8 14 9 10 3 -7 -13 25 -42 41 -36 7 2 12 -4 12
-13 0 -14 3 -15 14 -6 10 8 16 9 21 1 11 -17 28 -11 20 8 -4 12 -1 11 15 -5
11 -13 30 -23 41 -23 11 0 22 -7 25 -15 4 -8 9 -13 13 -11 4 3 13 0 21 -6 13
-8 12 -9 -2 -5 -9 3 -21 0 -27 -7 -11 -14 -5 -26 13 -26 6 0 4 5 -4 10 -13 8
-13 10 1 10 9 0 19 -9 22 -20 3 -11 11 -20 18 -20 10 0 10 3 1 12 -14 14 -16
38 -2 38 5 0 7 -6 4 -14 -3 -8 0 -17 5 -21 6 -3 9 -10 6 -15 -10 -17 17 -22
34 -6 10 9 21 16 26 16 5 0 1 -6 -9 -13 -10 -8 -18 -26 -18 -40 0 -15 -4 -24
-8 -22 -5 3 -6 -4 -3 -15 3 -11 9 -20 14 -20 5 0 6 7 3 14 -5 13 -2 13 20 3
21 -10 23 -13 8 -19 -19 -7 -17 -9 15 -12 12 -1 20 1 17 6 -8 12 10 10 24 -4
7 -7 12 -9 12 -6 0 4 -19 20 -42 37 -31 23 -37 31 -22 31 10 0 15 4 9 8 -14
10 -15 44 -1 39 6 -3 10 -9 9 -15 -2 -6 4 -9 13 -5 8 3 13 8 10 11 -11 10
-235 134 -314 173 -74 37 -91 51 -167 140 -47 55 -85 97 -85 94z"/>
<path d="M657 1385 c12 -21 95 -106 99 -102 2 2 1 18 -2 36 -4 20 -10 28 -14
21 -4 -7 -13 -9 -19 -5 -9 5 -9 10 -1 20 8 9 8 15 0 20 -5 3 -10 -1 -10 -11 0
-13 -3 -14 -15 -4 -8 7 -13 16 -10 20 3 4 -2 11 -11 14 -23 9 -26 8 -17 -9z"/>
<path d="M1050 1316 c7 -10 31 -26 51 -37 21 -10 42 -25 46 -33 8 -15 83 -51
83 -41 0 12 -76 88 -100 100 -14 7 -41 16 -60 20 -32 7 -33 6 -20 -9z"/>
<path d="M1911 1271 c26 -20 100 -59 84 -44 -5 5 -27 21 -47 36 -41 30 -74 38
-37 8z"/>
<path d="M842 1254 c-9 -16 -14 -17 -39 -5 l-28 13 23 -25 c12 -13 35 -30 50
-38 15 -8 57 -31 94 -51 38 -20 68 -35 68 -34 0 14 -26 72 -34 78 -5 4 -23 4
-38 1 -30 -6 -35 5 -19 36 7 13 6 18 -4 18 -7 0 -11 -6 -8 -14 4 -9 0 -11 -13
-7 -16 5 -16 4 -4 -5 9 -7 10 -11 3 -11 -13 0 -26 17 -29 38 -4 23 -12 25 -22
6z"/>
<path d="M1872 1258 c4 -13 106 -73 113 -66 2 2 -23 20 -57 41 -33 20 -58 32
-56 25z"/>
<path d="M1143 1195 c15 -14 35 -25 44 -25 19 0 -20 33 -52 43 -15 6 -14 1 8
-18z"/>
<path d="M550 1170 c11 -21 48 -45 57 -36 13 12 -7 34 -26 29 -15 -4 -21 -1
-21 11 0 9 -5 16 -10 16 -7 0 -7 -6 0 -20z"/>
<path d="M773 1137 c9 -8 17 -22 17 -31 0 -10 8 -16 24 -16 13 0 26 -4 28 -9
2 -4 11 -5 21 -2 14 5 4 14 -45 39 -35 18 -55 27 -45 19z"/>
<path d="M1140 1082 c0 -16 -5 -19 -22 -15 -22 4 -23 4 -4 -11 20 -16 86 -22
86 -8 0 4 -8 14 -18 23 -34 29 -42 31 -42 11z"/>
</g>
</svg>
