<?xml version="1.0" standalone="no"?>
<!DOCTYPE svg PUBLIC "-//W3C//DTD SVG 20010904//EN"
 "http://www.w3.org/TR/2001/REC-SVG-20010904/DTD/svg10.dtd">
<svg version="1.0" xmlns="http://www.w3.org/2000/svg"
 width="300.000000pt" height="300.000000pt" viewBox="0 0 300.000000 300.000000"
 preserveAspectRatio="xMidYMid meet">
<metadata>
Created by potrace 1.10, written by Peter Selinger 2001-2011
</metadata>
<g transform="translate(0.000000,300.000000) scale(0.100000,-0.100000)"
fill="#000000" stroke="none">
<path d="M1415 2180 c-101 -52 -212 -86 -370 -114 -171 -31 -290 -58 -302 -68
-10 -8 -13 -22 -8 -42 5 -25 6 -552 1 -686 -1 -32 5 -39 85 -100 47 -36 127
-103 176 -150 101 -96 166 -138 280 -182 72 -28 88 -30 213 -32 109 -1 146 3
190 18 98 33 150 58 143 69 -3 6 -1 7 5 3 17 -10 94 45 193 140 48 45 121 107
163 138 42 31 77 62 77 69 1 6 0 87 -1 178 -1 113 2 169 9 173 13 9 15 121 1
145 -8 17 -11 104 -7 216 2 58 27 48 -248 100 -229 44 -275 56 -386 106 -100
45 -154 50 -214 19z m88 -20 c7 0 6 -4 -3 -10 -9 -6 -11 -10 -3 -10 7 0 10 -7
7 -15 -4 -8 -10 -12 -15 -9 -5 3 -9 1 -9 -5 0 -18 -29 0 -36 21 -7 23 12 41
34 33 8 -3 19 -5 25 -5z m39 -21 c-2 -8 5 -6 19 6 l22 20 -7 -23 c-7 -21 -5
-22 36 -21 24 1 54 -5 68 -13 53 -29 78 -50 83 -68 3 -11 13 -23 24 -27 10 -5
18 -18 18 -32 0 -13 5 -26 10 -28 6 -2 9 15 7 42 -3 38 -1 45 14 46 11 0 14 3
7 6 -7 2 -13 10 -13 17 0 15 26 17 28 2 1 -6 5 -28 8 -50 4 -25 3 -37 -4 -32
-6 4 -8 -2 -5 -15 6 -21 7 -21 20 -3 7 10 11 24 9 31 -3 7 1 13 10 13 8 0 20
11 26 25 15 34 29 32 22 -4 -4 -21 -2 -30 11 -35 19 -7 38 1 30 13 -2 5 9 11
25 15 38 7 46 5 42 -13 -3 -13 -1 -13 12 -2 13 11 16 11 16 0 0 -11 2 -11 10
1 9 15 24 8 26 -13 0 -7 2 -20 2 -29 3 -25 32 -23 32 2 0 11 -4 20 -10 20 -5
0 -10 4 -10 10 0 5 7 7 15 4 8 -4 15 -17 15 -30 0 -13 2 -24 4 -24 2 0 11 -3
20 -6 13 -5 15 0 12 22 -2 16 -1 23 1 15 4 -12 6 -12 15 0 7 10 8 8 5 -8 -4
-19 -1 -23 21 -23 19 0 23 -3 13 -9 -7 -5 -11 -14 -7 -20 4 -7 1 -9 -8 -5 -10
4 -15 0 -14 -13 0 -10 -3 -27 -7 -38 -7 -19 -7 -19 7 -2 13 17 14 15 12 -25
-4 -91 -5 -96 -15 -53 -7 27 -6 41 1 43 5 2 10 8 10 13 0 4 -7 6 -15 3 -8 -4
-23 0 -33 7 -14 11 -14 10 2 -8 10 -12 19 -35 21 -50 1 -15 5 -35 8 -43 3 -8
8 -22 10 -30 4 -12 6 -11 6 3 2 31 18 18 24 -20 4 -24 1 -48 -9 -70 -23 -47
-38 -42 -32 11 3 24 2 50 -2 56 -11 19 -17 -74 -6 -112 7 -29 9 -31 16 -13 4
12 15 26 23 33 13 11 15 10 10 -7 -3 -12 -9 -21 -15 -21 -5 0 -8 -10 -7 -22 4
-40 -1 -59 -11 -53 -5 3 -10 2 -10 -3 0 -6 -9 -8 -20 -5 -11 3 -18 8 -16 12 3
4 1 13 -3 20 -6 9 -10 5 -13 -13 -5 -25 1 -31 31 -26 10 1 12 -6 8 -27 -3 -16
-2 -35 3 -43 6 -9 2 -20 -13 -32 l-21 -19 27 -25 c15 -14 27 -30 27 -35 0 -6
7 -9 15 -5 9 3 15 0 15 -8 0 -20 -12 -27 -27 -15 -16 14 -17 5 -1 -21 10 -15
10 -22 0 -32 -9 -9 -12 -9 -12 2 0 9 -6 6 -16 -8 -11 -16 -22 -21 -37 -17 -17
5 -19 4 -7 -4 13 -10 13 -11 0 -11 -12 0 -12 -2 -1 -9 7 -5 9 -11 5 -14 -5 -3
-18 2 -30 12 l-20 16 22 20 c12 10 19 25 16 34 -3 9 -1 12 6 7 7 -4 12 -14 12
-22 0 -8 4 -14 9 -14 5 0 7 10 3 22 -4 17 -2 20 11 15 11 -4 17 -1 17 9 0 11
-4 12 -18 5 -11 -6 -24 -6 -35 0 -14 8 -17 6 -17 -11 0 -11 -9 -30 -20 -42
-18 -20 -18 -23 -4 -39 21 -23 3 -32 -31 -15 -15 8 -33 12 -41 9 -9 -3 -12 4
-9 26 2 17 7 35 10 40 3 5 -3 7 -13 4 -13 -3 -18 -11 -15 -27 3 -16 0 -22 -15
-22 -13 0 -18 5 -14 15 4 10 1 12 -7 6 -8 -4 -17 -2 -23 6 -8 11 -9 10 -5 -3
6 -18 -31 -73 -41 -63 -4 3 0 11 8 16 12 8 10 10 -7 6 -37 -8 -27 11 34 68 56
52 83 63 63 24 -7 -13 -7 -19 -1 -19 6 0 13 11 16 23 6 21 35 35 35 16 0 -4
10 -5 21 -2 20 6 19 8 -12 23 -18 10 -39 16 -46 13 -7 -3 -13 0 -13 5 0 13
-59 44 -70 37 -5 -3 -11 1 -14 7 -3 7 -3 1 0 -14 3 -14 1 -36 -6 -47 -14 -27
-8 -26 40 4 30 19 40 22 40 11 0 -17 -80 -96 -97 -96 -7 0 -13 -7 -13 -15 0
-29 -19 -14 -26 20 -7 38 -24 48 -24 14 0 -13 -4 -18 -12 -13 -7 5 -9 2 -5 -8
3 -9 3 -19 -1 -23 -4 -3 -11 8 -17 26 -6 18 -17 35 -24 37 -10 3 -10 0 -2 -17
7 -11 9 -21 5 -21 -3 0 1 -11 10 -25 18 -27 22 -60 6 -50 -6 4 -8 11 -5 16 4
5 1 9 -4 9 -6 0 -11 -6 -11 -12 -1 -7 -9 -3 -20 10 -10 13 -17 31 -14 40 5 13
4 14 -4 3 -6 -8 -15 -10 -23 -6 -9 6 -11 4 -6 -8 4 -11 0 -15 -13 -14 -18 1
-37 37 -19 37 5 0 9 5 9 11 0 8 -5 8 -15 -1 -10 -8 -13 -23 -10 -41 6 -31 0
-35 -25 -19 -13 8 -13 13 -2 31 12 19 12 21 -2 16 -9 -4 -16 -2 -16 4 0 6 -4
7 -10 4 -5 -3 -10 4 -10 16 0 18 2 19 15 9 11 -9 15 -9 15 -1 0 13 -60 42 -72
35 -5 -3 -8 2 -8 10 0 24 -21 30 -38 11 -16 -16 -16 -17 4 -11 16 5 23 2 27
-13 5 -21 -18 -37 -28 -21 -4 6 -12 10 -18 10 -7 0 -4 -7 6 -14 11 -9 15 -20
10 -31 -4 -13 -3 -16 5 -11 7 4 12 15 12 24 0 10 7 3 16 -15 9 -18 21 -33 26
-33 5 0 3 -10 -4 -22 -7 -13 -11 -26 -10 -29 0 -4 -10 -6 -23 -5 -14 0 -25 7
-25 14 0 6 -4 12 -10 12 -5 0 -10 -5 -10 -12 0 -9 -3 -9 -12 0 -17 17 -31 15
-24 -3 3 -9 0 -15 -10 -15 -8 0 -13 -4 -9 -10 4 -6 15 -5 30 2 46 21 69 -10
34 -45 -19 -18 -45 -6 -36 17 7 17 -8 22 -18 6 -10 -17 -25 -1 -25 26 0 14 -7
32 -16 41 -14 14 -13 18 7 39 12 13 18 24 13 24 -13 0 -41 -20 -29 -20 6 0 4
-4 -4 -9 -9 -6 -11 -15 -6 -27 9 -21 15 -44 11 -44 -2 0 -13 9 -26 20 -25 21
-50 26 -50 10 0 -5 11 -12 25 -16 27 -7 35 -34 10 -34 -13 0 -14 -2 -3 -14 14
-15 29 -16 39 -3 7 9 41 -7 75 -36 20 -17 22 -16 42 2 12 10 22 28 22 40 0 12
6 21 15 21 18 0 20 -16 3 -23 -10 -4 -10 -6 0 -6 7 -1 15 6 18 14 8 20 26 19
22 -1 -5 -27 51 -24 80 3 14 13 22 23 18 23 -4 0 -2 9 4 20 13 24 33 26 55 4
15 -15 13 -18 -16 -40 -18 -13 -36 -21 -41 -18 -5 3 -7 0 -6 -8 2 -8 -10 -15
-32 -18 -49 -7 -51 -39 -4 -63 19 -9 41 -17 48 -17 8 0 16 -9 19 -20 6 -24 37
-17 37 9 0 14 -2 14 -10 1 -5 -8 -12 -12 -15 -8 -4 3 -1 15 6 26 10 17 10 23
0 36 -8 9 -19 16 -25 16 -6 0 -5 -4 3 -9 16 -11 8 -41 -12 -41 -9 0 -13 12
-13 36 1 29 4 34 19 30 12 -3 17 0 14 9 -6 13 11 35 26 35 4 0 5 -6 2 -12 -4
-7 2 -3 13 10 25 27 30 28 34 0 4 -29 23 -34 25 -6 3 36 25 108 33 108 11 0
30 -57 30 -87 0 -16 4 -22 13 -17 10 6 10 4 0 -7 -18 -18 -16 -30 2 -23 8 4
15 14 15 24 0 11 3 21 8 24 11 7 52 -39 44 -50 -11 -15 -52 -35 -52 -25 0 5
-9 7 -20 4 -12 -3 -20 -14 -20 -26 0 -16 3 -18 12 -9 13 13 48 16 48 5 -1 -19
-19 -35 -34 -30 -12 5 -16 0 -16 -21 0 -15 -7 -38 -16 -50 -13 -19 -21 -22
-50 -16 -39 7 -64 -8 -64 -38 0 -10 -4 -16 -10 -13 -5 3 -10 1 -10 -4 0 -6 -9
-11 -20 -11 -16 0 -20 7 -20 33 0 40 7 50 25 34 11 -10 11 -16 -1 -35 -14 -22
-14 -22 6 -10 27 17 25 42 -5 58 -22 12 -28 12 -43 -3 -14 -14 -14 -21 -4 -37
15 -24 15 -33 2 -25 -6 4 -10 -6 -10 -22 -1 -24 -2 -26 -11 -10 -6 9 -15 15
-20 12 -5 -4 -6 -12 -2 -18 5 -8 2 -8 -9 0 -8 7 -17 11 -20 8 -3 -3 -11 3 -19
12 -13 17 -13 17 5 3 17 -13 19 -13 14 0 -6 18 -34 20 -31 3 4 -21 -33 -35
-47 -18 -12 15 -5 39 9 30 5 -2 8 5 7 17 0 12 -8 24 -16 26 -13 5 -13 3 -1
-11 7 -10 9 -17 3 -17 -5 0 -15 7 -22 15 -12 14 -16 13 -36 -6 -24 -22 -24
-22 -4 -36 11 -8 20 -19 20 -25 0 -7 -5 -6 -14 1 -10 8 -16 9 -21 2 -4 -7 -14
-6 -29 4 -12 8 -27 12 -31 8 -5 -5 -5 -1 0 7 7 12 6 11 -6 -1 -13 -15 -18 -15
-42 -2 -15 7 -27 18 -27 24 0 6 -4 7 -10 4 -5 -3 -10 -1 -10 6 0 6 8 9 20 6
11 -3 20 -1 20 4 0 5 -4 9 -10 9 -5 0 -10 6 -10 14 0 8 -6 16 -13 19 -10 4
-14 -5 -15 -30 -1 -20 -4 -38 -6 -40 -9 -9 -46 9 -46 21 0 8 -8 20 -17 27 -10
8 -14 9 -10 2 4 -6 2 -15 -4 -19 -8 -4 -9 -3 -5 4 4 7 1 12 -6 12 -10 0 -9 3
2 11 12 8 8 10 -16 7 -31 -4 -32 -4 -17 18 8 13 12 27 9 33 -4 5 2 12 13 16
11 3 22 12 25 20 7 19 -1 19 -21 0 -17 -18 -22 -16 -27 11 -3 16 2 19 34 19
31 0 41 -4 49 -23 16 -33 13 -50 -4 -28 -13 17 -15 18 -15 3 0 -9 5 -17 10
-17 6 0 10 -5 10 -11 0 -6 -7 -9 -15 -6 -8 4 -17 2 -20 -3 -3 -5 -13 -7 -23
-4 -14 5 -14 3 2 -10 11 -9 26 -16 33 -16 7 0 15 -11 19 -24 3 -14 12 -27 20
-30 11 -4 13 -2 5 11 -6 11 -6 24 0 35 7 14 6 16 -6 12 -20 -8 -20 19 0 36 8
7 12 16 9 21 -3 5 2 9 10 9 8 0 35 11 60 24 32 17 41 26 30 30 -8 3 -13 10 -9
15 3 6 -13 11 -35 13 l-41 3 20 22 c17 18 19 27 11 50 -5 15 -9 41 -7 57 2 28
-1 30 -33 32 l-35 3 30 -12 c35 -14 38 -49 5 -40 -11 3 -17 9 -14 14 9 15 -15
10 -28 -6 -31 -38 -52 -54 -61 -48 -6 3 -1 10 11 14 28 10 29 23 2 14 -32 -10
-24 4 39 66 40 41 61 55 64 45 3 -7 0 -19 -6 -25 -8 -8 -8 -11 1 -11 7 0 17
10 22 23 5 12 9 18 10 12 0 -5 5 -3 10 5 8 13 10 13 10 -2 0 -11 5 -15 15 -12
22 9 18 22 -7 30 -13 4 -26 12 -30 18 -6 8 -8 7 -8 -1 0 -20 -17 -15 -23 6 -3
12 -18 22 -38 26 -19 4 -37 13 -41 19 -5 6 -5 -3 -2 -21 3 -17 1 -39 -5 -50
-10 -17 -10 -16 -11 5 0 13 -4 20 -10 17 -14 -8 -13 -45 1 -45 14 0 81 40 91
54 4 6 8 2 8 -10 0 -14 -17 -36 -46 -60 -39 -31 -44 -33 -34 -13 12 22 12 23
-3 10 -10 -7 -16 -21 -15 -30 4 -22 -22 -20 -36 2 -8 12 -8 20 0 25 19 13 2
108 -17 97 -12 -8 -12 -55 1 -55 6 0 10 -9 10 -20 0 -11 -3 -20 -7 -20 -12 0
-33 -52 -26 -64 3 -6 -3 -2 -14 9 -11 11 -18 28 -15 38 2 9 -1 17 -8 17 -7 0
-10 -7 -6 -16 6 -15 4 -15 -11 -3 -82 61 -99 102 -26 61 39 -21 45 -23 40 -8
-4 10 -7 32 -7 49 0 24 -3 28 -10 17 -7 -10 -10 -11 -10 -2 0 17 -59 -13 -67
-34 -3 -8 -12 -13 -19 -10 -8 3 -14 1 -14 -4 0 -5 -6 -7 -13 -4 -8 3 -19 -2
-26 -9 -9 -12 -8 -16 4 -21 8 -3 15 -1 15 4 0 16 24 6 32 -12 4 -10 13 -18 20
-18 9 0 9 3 1 11 -6 6 -9 18 -6 26 4 10 16 2 43 -27 20 -22 40 -40 45 -40 9 0
34 -31 35 -44 0 -4 -7 -6 -15 -2 -8 3 -15 1 -15 -3 0 -5 6 -12 13 -14 7 -3 5
-6 -6 -6 -10 -1 -20 7 -24 17 -8 22 -39 53 -46 45 -3 -3 -3 -11 -1 -18 7 -18
-29 -14 -38 5 -5 11 -7 9 -7 -7 -1 -16 -7 -23 -21 -23 -17 0 -18 4 -10 25 8
22 7 27 -15 35 -28 11 -35 32 -7 24 14 -5 14 -3 -2 10 -26 21 -54 22 -36 1 14
-16 5 -54 -9 -39 -5 5 -11 23 -12 39 -5 44 -16 57 -40 42 -25 -16 -25 -31 0
-17 26 13 28 13 28 -7 0 -25 -17 -33 -39 -20 -19 13 -25 47 -7 47 5 0 7 5 3
11 -3 6 -1 15 6 19 11 7 11 14 1 38 -10 23 -10 35 -1 52 8 15 8 20 1 16 -6 -4
-11 -2 -11 3 0 6 0 14 0 18 0 4 6 8 13 9 32 3 35 5 30 24 -4 14 4 29 23 47 16
15 21 24 12 21 -9 -4 -19 -2 -21 5 -3 7 -8 0 -12 -15 -4 -16 -11 -28 -15 -28
-5 0 -10 -10 -12 -22 -3 -21 -4 -21 -18 -3 -8 10 -10 16 -3 12 13 -8 28 27 19
42 -3 5 8 26 24 46 17 21 29 40 27 42 -9 9 -35 -10 -46 -34 -6 -14 -14 -23
-18 -20 -3 4 4 25 15 48 12 23 19 46 16 51 -3 4 2 8 10 8 8 0 18 -4 21 -10 3
-5 1 -10 -6 -10 -7 0 -10 -2 -7 -5 8 -8 43 8 45 20 1 6 -15 11 -34 10 -27 0
-37 -4 -39 -19 -1 -10 -8 -24 -15 -30 -9 -8 -10 -5 -5 14 3 14 6 34 6 44 0 11
3 16 6 13 4 -4 20 5 36 18 33 28 53 32 45 10 -4 -8 -2 -17 3 -20 13 -8 50 13
50 27 0 9 -3 9 -12 0 -16 -16 -28 -15 -28 3 0 9 -7 27 -16 40 -9 13 -13 29 -9
36 6 8 10 7 16 -2 5 -8 9 -9 9 -3 0 6 -10 19 -22 30 -19 15 -20 16 -9 2 12
-16 11 -18 -7 -18 -12 0 -24 -4 -27 -10 -10 -16 -25 -12 -25 7 0 15 -2 14 -16
-3 -14 -17 -14 -15 0 9 15 25 15 30 2 49 -14 20 -14 22 7 33 12 6 25 7 28 2 9
-13 39 21 39 44 0 12 4 17 11 13 6 -3 15 0 20 7 7 12 9 12 9 0 0 -7 6 -11 15
-8 8 4 17 2 20 -3 4 -6 11 -10 17 -10 6 0 4 8 -5 18 -16 18 -15 18 13 14 16
-2 28 -8 25 -12 -3 -4 2 -13 10 -20 8 -7 15 -19 15 -27 0 -11 7 -13 28 -8 15
3 32 11 37 16 7 7 2 8 -15 5 -31 -8 -62 9 -41 23 8 5 11 16 6 30 -8 27 11 28
25 1 6 -11 16 -20 23 -20 7 0 13 -14 14 -30 2 -22 -2 -30 -14 -30 -26 0 -53
-31 -52 -59 1 -17 3 -20 6 -8 2 9 12 17 21 18 11 0 12 2 5 6 -7 2 -13 10 -13
15 0 6 3 8 7 5 3 -4 13 -1 21 6 13 10 14 8 9 -13 -4 -14 -4 -19 -1 -11 5 11 8
11 15 0 7 -10 8 -5 5 14 -3 15 -1 27 4 27 5 0 6 16 3 35 -3 19 -2 42 1 52 7
17 8 17 22 -1 17 -24 19 -13 2 17 -10 21 -10 21 7 7 14 -11 19 -12 22 -2 5 13
43 17 43 5 -1 -19 -19 -35 -34 -30 -13 5 -16 -1 -17 -31 -1 -23 -3 -28 -6 -15
-3 18 -7 20 -17 10 -11 -10 -11 -14 1 -22 18 -14 30 -81 12 -70 -7 5 -10 4 -6
-2 4 -5 -4 -16 -17 -23 -26 -13 -50 -56 -41 -71 4 -5 -2 -9 -12 -9 -10 0 -25
-6 -34 -13 -14 -10 -14 -14 -3 -25 11 -10 14 -10 14 2 0 24 22 31 36 12 15
-21 8 -46 -13 -46 -8 0 -11 -5 -7 -11 4 -7 10 -7 16 -1 6 6 16 8 23 6 14 -6
30 26 18 35 -4 3 -15 15 -23 25 -14 18 -13 19 3 13 12 -4 16 -3 11 4 -4 7 0 9
14 5 12 -4 22 -2 25 7 3 9 -2 13 -16 13 -23 -1 -30 20 -14 41 7 9 13 9 27 1
10 -7 17 -15 15 -18 -2 -3 6 -12 18 -19 18 -11 20 -11 10 0 -17 17 -17 34 0
21 8 -7 18 -7 27 -2 13 8 13 10 1 10 -8 0 -23 8 -33 17 -18 16 -18 16 -12 -3
7 -17 6 -18 -10 -5 -12 10 -14 17 -6 25 5 5 10 18 10 28 0 12 8 18 24 18 19 0
26 -7 34 -37 7 -27 10 -31 11 -15 2 39 -17 62 -50 62 -27 0 -29 2 -19 21 7 11
9 27 6 34 -3 9 3 15 17 17 12 2 23 12 26 23 6 35 25 36 36 2 13 -38 11 -44
-10 -27 -9 8 -15 9 -15 2 0 -6 7 -15 17 -20 15 -9 14 -10 -3 -20 -10 -5 -30
-8 -44 -5 -32 5 -15 -13 21 -22 22 -5 28 -1 45 33 10 22 22 38 25 36 4 -2 23
8 44 21 40 28 61 25 44 -6 -5 -11 -8 -25 -5 -32 3 -7 5 -6 5 3 1 9 10 16 20
16 14 0 17 -4 12 -14 -8 -15 8 -62 22 -62 11 0 8 38 -3 45 -6 4 -8 16 -4 28 8
28 7 27 34 32 16 3 20 0 16 -10 -3 -8 -1 -15 3 -15 17 0 20 30 3 39 -11 6 -26
4 -45 -6 -26 -13 -31 -13 -48 3 -11 10 -18 23 -15 30 3 7 -5 15 -17 17 -16 3
-13 5 10 6 17 0 34 5 37 10 7 11 58 -12 76 -34 17 -20 23 -19 51 8 14 12 23
30 21 41 -3 12 1 17 10 13 7 -2 12 -11 10 -18z m-219 -52 c3 -7 -3 -18 -13
-25 -15 -9 -19 -7 -23 8 -4 17 4 27 24 29 4 1 9 -5 12 -12z m-49 -15 c8 -13
-7 -29 -26 -29 -21 0 -23 8 -6 25 14 14 25 15 32 4z m539 -15 c8 -21 -7 -39
-26 -31 -20 7 -22 30 -4 37 20 9 25 8 30 -6z m97 -12 c0 -17 -28 -27 -33 -12
-7 20 4 36 19 30 8 -3 14 -11 14 -18z m-1136 -227 c-5 -7 -7 -26 -7 -43 l2
-30 -10 33 c-7 25 -7 38 2 48 14 17 24 11 13 -8z m58 -11 c4 -19 -1 -26 -25
-35 -27 -10 -29 -10 -23 11 3 12 6 28 6 35 0 7 5 10 10 7 6 -3 10 -1 10 5 0
20 17 1 22 -23z m1392 -339 c-4 -6 -2 -8 3 -5 14 9 25 -34 13 -48 -6 -7 -7
-15 -2 -19 4 -4 -2 -12 -12 -18 -14 -8 -15 -12 -5 -18 15 -10 21 -40 8 -40 -5
0 -9 7 -9 15 0 7 -7 18 -16 23 -9 5 -14 15 -10 21 4 6 12 9 17 6 12 -8 12 11
0 33 -11 21 -3 74 10 66 5 -3 6 -10 3 -16z m-644 -214 c0 -7 -5 -16 -11 -20
-17 -10 -32 12 -24 36 5 17 10 19 21 9 8 -6 14 -17 14 -25z m-695 -58 c-13
-29 -30 -35 -30 -9 0 6 -4 15 -8 19 -14 15 -6 23 22 22 28 -1 29 -2 16 -32z
m255 -53 c0 -15 4 -22 11 -17 8 4 8 0 0 -15 -10 -17 -9 -20 4 -15 8 4 15 14
15 24 0 25 17 34 27 15 15 -27 76 -65 104 -65 15 0 29 -7 33 -15 3 -8 0 -15
-6 -15 -6 0 -19 -7 -29 -16 -11 -10 -25 -13 -38 -9 -23 7 -28 30 -8 39 6 2 1
4 -13 3 -20 -2 -24 2 -22 17 3 18 2 19 -15 5 -10 -7 -21 -18 -25 -24 -5 -6 -8
-5 -8 3 0 6 -9 12 -21 12 -19 0 -20 -4 -14 -49 4 -31 2 -57 -4 -68 -9 -15 -10
-13 -5 12 4 23 3 26 -5 15 -10 -13 -11 -13 -12 0 0 10 -3 9 -10 -5 -6 -14 -8
-4 -4 33 6 57 -10 77 -40 52 -12 -10 -15 -10 -15 0 0 7 -7 10 -15 6 -9 -3 -15
0 -15 9 0 9 -9 15 -22 15 -20 0 -21 1 -3 20 20 22 40 27 30 8 -4 -7 0 -5 8 5
18 22 27 22 27 -2 0 -10 7 -22 16 -25 10 -4 14 -1 11 6 -4 12 19 102 30 122 8
12 33 -51 33 -81z m456 79 c17 -11 24 -61 7 -55 -7 3 -13 0 -13 -7 0 -8 10
-10 34 -6 31 6 33 5 28 -19 -3 -20 -10 -25 -34 -25 -22 0 -28 4 -26 18 2 11
-3 17 -13 16 -19 -2 -19 17 -1 39 9 10 10 17 2 22 -12 7 -14 25 -2 25 4 0 12
-4 18 -8z m-592 -48 c17 -7 22 -34 6 -34 -5 0 -20 -10 -32 -22 -14 -14 -23
-18 -26 -10 -2 7 -8 10 -13 6 -11 -6 -11 -2 -3 20 3 9 10 14 14 11 5 -3 6 4 3
15 -4 15 0 20 15 20 11 0 27 -3 36 -6z m270 -21 c-4 -22 -3 -25 5 -13 10 13
11 13 11 0 0 -21 -12 -35 -30 -35 -17 1 -60 24 -44 25 5 0 14 -3 20 -7 5 -5 1
-1 -8 9 -31 28 -20 45 30 47 19 1 22 -3 16 -26z m729 -11 c-3 -23 -2 -24 6 -7
8 17 10 18 10 3 1 -10 5 -18 10 -18 5 0 7 9 4 20 -5 20 11 28 22 10 3 -5 12
-7 20 -3 9 3 15 -1 15 -10 0 -14 -52 -34 -73 -29 -5 2 -6 -2 -2 -7 3 -6 12 -8
20 -4 8 3 15 0 15 -6 0 -6 -8 -11 -17 -11 -10 0 -27 -7 -37 -15 -27 -20 -35
-19 -33 5 1 15 6 18 27 13 l25 -6 -24 27 c-14 14 -29 26 -35 26 -6 0 -2 -7 8
-15 11 -8 15 -15 9 -15 -31 0 -39 54 -10 67 31 14 45 6 40 -25z m-1073 16 c-1
-29 -15 -39 -36 -22 -10 8 -14 13 -8 10 7 -3 14 1 18 9 7 18 26 20 26 3z m726
-96 c6 -4 9 -15 5 -24 -5 -14 -9 -15 -25 -3 -26 20 -8 46 20 27z m295 -15 c-1
-32 -16 -78 -27 -88 -11 -9 -14 -9 -14 0 0 7 -4 10 -9 7 -5 -3 -11 1 -15 9 -4
10 1 15 14 15 13 0 22 9 26 25 3 14 11 25 18 25 6 0 4 5 -4 11 -10 7 -11 9 -2
7 8 -2 13 -7 13 -11z m-868 -10 c3 -8 1 -20 -4 -28 -8 -12 -12 -11 -24 5 -12
16 -12 22 -2 28 17 11 24 10 30 -5z m408 -156 c0 -3 2 -18 4 -34 3 -25 2 -26
-13 -11 -20 20 -23 51 -5 51 7 0 13 -3 14 -6z"/>
<path d="M1603 2095 c4 -8 2 -17 -4 -21 -6 -3 16 -19 48 -35 32 -16 54 -29 48
-29 -5 0 -2 -5 8 -11 21 -12 37 -4 37 19 0 14 -2 15 -10 2 -5 -8 -12 -11 -16
-7 -4 4 -2 13 4 19 18 18 15 36 -8 48 -19 10 -20 10 -8 -10 11 -17 11 -22 -2
-30 -17 -10 -33 -3 -24 12 4 6 -1 8 -15 3 -12 -4 -21 -2 -21 4 0 6 -7 11 -15
11 -9 0 -12 6 -9 15 4 8 13 15 20 15 8 0 17 -7 20 -15 8 -19 24 -20 24 -1 0
16 -21 26 -57 26 -18 0 -24 -4 -20 -15z"/>
<path d="M1487 2073 c-16 -15 -5 -24 26 -21 35 3 35 3 24 -64 -6 -41 9 -48 29
-13 13 24 7 48 -10 38 -6 -3 -7 -2 -3 3 5 5 14 9 20 9 15 0 16 30 2 31 -5 0
-23 6 -38 12 -33 14 -41 15 -50 5z"/>
<path d="M1466 2025 c-3 -9 -10 -13 -16 -10 -5 3 -10 1 -10 -4 0 -6 6 -11 14
-11 8 0 17 -6 19 -12 3 -7 6 -4 6 7 1 14 4 16 12 8 8 -8 8 -17 0 -31 -14 -26
2 -38 23 -16 17 17 22 46 7 42 -5 -2 -18 7 -29 20 -17 19 -21 20 -26 7z"/>
<path d="M1306 1985 c-9 -24 11 -46 24 -26 6 11 10 5 15 -22 6 -31 11 -37 26
-32 23 8 24 -1 4 -22 -12 -12 -13 -18 -4 -29 9 -11 8 -20 -5 -39 -9 -13 -16
-31 -16 -40 0 -26 -20 -16 -42 22 -12 20 -24 31 -26 25 -7 -23 38 -72 64 -70
17 2 23 7 19 19 -3 10 1 19 10 23 8 3 15 14 15 25 0 14 5 18 20 14 11 -3 20
-12 20 -19 0 -8 5 -14 10 -14 19 0 10 18 -21 44 -17 14 -36 23 -41 20 -7 -4
-8 -2 -4 4 4 6 14 9 24 6 13 -5 14 -4 3 4 -10 7 -10 11 -1 17 7 4 25 -2 42
-15 16 -12 36 -19 45 -16 8 4 13 1 11 -6 -5 -15 -48 -21 -48 -6 0 6 -3 8 -7 5
-3 -4 1 -15 10 -24 8 -10 17 -31 20 -48 4 -27 4 -26 6 8 1 39 20 53 20 15 -1
-54 -11 -108 -20 -103 -8 6 -14 -54 -9 -100 2 -16 0 -17 -14 -6 -9 7 -16 19
-16 27 0 13 -38 39 -46 32 -2 -2 12 -22 31 -43 26 -30 34 -47 30 -65 -4 -22
-2 -21 10 5 8 17 14 26 15 21 0 -13 80 70 80 83 0 19 -31 -1 -46 -30 -17 -33
-34 -38 -34 -10 0 34 23 121 32 121 5 0 21 11 36 25 15 14 29 25 32 25 3 0 11
-14 17 -30 10 -25 9 -32 -5 -39 -9 -4 -23 -6 -30 -4 -8 3 -10 -1 -6 -11 4 -11
1 -16 -10 -16 -9 0 -16 8 -16 21 0 27 -16 16 -22 -16 -6 -27 -8 -27 55 -9 21
7 42 27 47 49 2 6 10 16 19 23 14 11 13 12 -6 7 -18 -5 -23 -2 -23 12 0 10 -7
28 -15 40 -9 12 -15 26 -14 30 4 22 -4 23 -34 4 l-34 -21 1 45 c1 25 4 45 7
45 3 0 20 -11 39 -25 42 -31 49 -32 24 -4 -19 21 -19 22 2 15 19 -6 23 -2 29
31 4 23 9 32 14 24 5 -7 12 -12 17 -11 5 0 10 -6 12 -14 2 -9 -1 -16 -7 -16
-6 0 -11 -5 -11 -11 0 -8 4 -9 13 0 15 12 27 5 27 -16 0 -8 -4 -11 -10 -8 -14
9 -13 -28 1 -42 9 -9 8 -16 -5 -28 -9 -9 -16 -22 -15 -28 0 -9 2 -8 6 1 8 20
22 14 16 -8 -7 -25 4 -25 42 1 l30 21 -27 -6 c-29 -7 -49 11 -28 24 7 4 10 15
7 25 -4 9 -11 13 -17 10 -5 -3 -10 -1 -10 4 0 6 4 11 9 11 12 0 19 77 9 93 -6
9 -8 9 -8 0 0 -20 -17 -15 -23 7 -8 29 -34 24 -52 -10 -9 -16 -23 -31 -33 -31
-49 -4 -68 -3 -79 5 -9 6 -13 3 -13 -8 0 -10 4 -15 9 -12 5 3 9 -6 9 -19 0
-15 -6 -25 -15 -25 -8 0 -13 8 -11 18 2 12 -4 17 -18 17 -11 0 -28 6 -36 13
-9 7 -23 10 -32 6 -10 -4 -16 -1 -16 9 0 9 -10 28 -23 43 -22 25 -24 25 -31 9z
m256 -169 c4 -18 -1 -27 -19 -35 -31 -14 -30 -14 -36 9 -3 11 -1 18 4 14 5 -3
9 1 9 10 0 13 12 23 31 25 4 1 9 -10 11 -23z"/>
<path d="M876 1975 c-8 -8 -18 -24 -21 -35 -4 -11 -10 -18 -14 -16 -4 3 -13 1
-21 -4 -8 -5 -22 -4 -34 2 -20 10 -20 9 -5 -7 9 -9 33 -18 52 -19 33 -1 36 1
39 29 2 22 8 29 21 27 10 -2 17 3 17 12 0 23 -17 28 -34 11z"/>
<path d="M1420 1971 c0 -10 7 -22 16 -25 22 -8 27 -2 19 23 -8 26 -35 28 -35
2z"/>
<path d="M1936 1978 c5 -7 -1 -9 -20 -4 -38 9 -32 -9 7 -20 21 -7 33 -17 35
-31 2 -12 10 -24 18 -27 11 -4 13 -2 5 11 -6 12 -6 25 1 38 10 18 10 19 -5 6
-15 -12 -17 -11 -17 7 0 11 -7 23 -16 26 -10 4 -13 2 -8 -6z"/>
<path d="M2041 1978 c0 -7 4 -22 9 -33 8 -19 9 -19 9 3 1 37 21 14 21 -24 0
-31 2 -34 19 -24 32 16 36 12 12 -14 -22 -23 -22 -25 -4 -34 17 -10 17 -12 -6
-35 -15 -17 -21 -32 -17 -45 6 -17 3 -20 -16 -16 -21 4 -21 4 -3 -5 25 -11 35
-5 35 20 0 10 5 19 10 19 6 0 10 9 10 19 0 11 5 23 10 26 6 3 10 1 10 -6 0 -7
3 -9 7 -5 4 3 12 -6 18 -21 9 -23 12 -25 18 -10 6 17 -4 30 -58 72 -13 9 -15
14 -5 12 8 -2 11 -2 7 1 -4 2 0 10 10 18 16 12 16 15 3 24 -8 5 -20 8 -27 5
-7 -2 -15 5 -18 15 -12 37 -56 67 -54 38z"/>
<path d="M1720 1969 c0 -14 19 -20 45 -13 36 9 31 19 -10 20 -19 0 -35 -3 -35
-7z"/>
<path d="M1265 1960 c-3 -5 -4 -14 -1 -19 4 -5 3 -17 0 -26 -9 -23 -26 3 -18
27 4 13 1 16 -10 12 -16 -6 -23 -44 -8 -44 5 0 18 -9 31 -21 13 -13 21 -16 20
-8 -2 8 2 24 9 37 11 19 10 25 -2 37 -9 10 -17 11 -21 5z"/>
<path d="M927 1953 c-11 -10 -8 -43 3 -43 6 0 10 -5 10 -11 0 -5 -4 -7 -10 -4
-6 3 -7 -1 -4 -9 10 -26 26 -6 20 24 -6 33 2 44 20 29 10 -8 11 -16 4 -30 -8
-15 -7 -17 5 -13 18 7 20 35 3 52 -13 13 -41 16 -51 5z"/>
<path d="M1699 1942 c6 -11 8 -29 5 -39 -7 -17 -6 -17 12 0 14 13 16 21 8 34
-16 26 -39 30 -25 5z"/>
<path d="M2004 1915 c1 -25 -1 -45 -5 -45 -7 0 -5 -37 3 -45 2 -3 13 4 24 16
10 11 14 19 9 17 -6 -2 -10 2 -10 7 0 6 3 9 8 8 10 -4 9 15 -2 21 -5 4 -12 0
-14 -6 -3 -8 -6 -6 -6 5 -1 9 3 17 8 17 16 0 19 38 4 44 -8 3 -16 6 -18 6 -1
0 -2 -20 -1 -45z"/>
<path d="M1756 1937 c-11 -8 -16 -21 -13 -33 5 -18 5 -17 12 4 8 24 34 29 53
10 9 -9 12 -8 12 4 0 14 -19 28 -39 28 -4 0 -15 -6 -25 -13z"/>
<path d="M1873 1943 c-7 -2 -13 -11 -13 -19 0 -8 -11 -26 -24 -39 l-24 -23 27
1 c19 2 26 -3 25 -15 -1 -10 4 -18 12 -18 20 0 17 -17 -3 -29 -11 -6 -13 -11
-5 -11 9 0 10 -5 2 -19 -13 -25 -13 -61 0 -61 11 0 11 2 15 38 4 38 21 47 39
21 9 -13 16 -18 16 -11 0 17 11 15 38 -8 22 -18 22 -20 6 -45 -16 -25 -18 -25
-42 -9 -23 15 -25 15 -19 -1 4 -9 7 -22 7 -28 0 -8 3 -7 9 2 6 9 11 10 15 2 4
-6 14 -11 22 -11 8 0 12 5 9 11 -4 6 -1 10 6 8 26 -3 39 1 39 12 0 6 -7 9 -15
5 -23 -9 -18 12 7 25 21 11 20 12 -11 25 -18 7 -46 23 -62 34 -20 15 -36 19
-51 15 -19 -6 -21 -5 -10 6 17 18 16 23 -12 56 -22 26 -23 31 -10 53 7 14 13
21 14 17 0 -4 9 -3 20 3 20 11 25 5 21 -26 -1 -6 6 -11 14 -11 20 0 19 20 -3
40 -19 17 -36 20 -59 10z"/>
<path d="M2196 1925 c-3 -8 -10 -15 -16 -15 -6 0 -8 5 -5 10 3 6 2 10 -4 10
-16 0 -8 -34 13 -54 14 -15 18 -15 13 -4 -3 9 1 24 8 35 8 10 15 21 15 26 0
13 -18 7 -24 -8z"/>
<path d="M1291 1878 c0 -10 -8 -18 -16 -18 -9 0 -15 -9 -15 -22 l0 -22 21 21
c12 12 19 28 16 39 -4 17 -5 17 -6 2z"/>
<path d="M1740 1875 c0 -6 9 -18 20 -28 19 -16 20 -15 31 4 10 19 8 20 -11 14
-15 -5 -26 -2 -31 6 -5 8 -9 9 -9 4z"/>
<path d="M943 1863 c-7 -2 -13 -13 -13 -23 0 -10 -4 -22 -10 -25 -16 -10 -12
-25 5 -19 8 4 12 10 9 15 -3 5 1 9 9 9 10 0 14 9 13 25 0 14 -1 25 -1 24 0 0
-6 -3 -12 -6z"/>
<path d="M1712 1835 c-11 -13 -8 -15 19 -15 27 0 30 2 19 15 -15 18 -21 18
-38 0z"/>
<path d="M1794 1833 c-4 -10 -6 -21 -6 -25 1 -5 -6 -8 -15 -8 -26 -1 -53 -24
-52 -46 0 -18 1 -18 9 1 5 11 9 14 9 8 1 -21 18 -14 25 9 5 22 6 22 23 6 15
-15 15 -21 3 -43 -7 -14 -10 -28 -7 -32 4 -3 7 1 7 10 0 10 5 17 11 17 5 0 7
-4 4 -10 -3 -5 -2 -10 4 -10 19 0 22 38 5 59 -23 26 -26 51 -8 58 15 6 19 23
5 23 -5 0 -12 -8 -17 -17z"/>
<path d="M1163 1797 c-13 -6 -23 -16 -23 -23 0 -7 -4 -14 -10 -16 -11 -4 -2
-48 11 -48 5 0 5 7 2 17 -4 11 -3 14 5 9 18 -11 15 -59 -3 -52 -8 3 -15 1 -15
-4 0 -6 6 -10 14 -10 8 0 23 -3 33 -6 15 -6 16 -4 6 7 -18 19 -16 49 5 66 15
13 15 13 -5 4 -18 -9 -23 -8 -28 10 -4 12 -3 25 2 30 12 12 45 1 37 -12 -6
-11 7 -12 22 -1 8 5 5 12 -10 23 -16 12 -26 14 -43 6z"/>
<path d="M1242 1786 c20 -14 40 -26 43 -26 13 0 -1 33 -15 36 -8 2 -26 6 -40
10 -20 5 -18 1 12 -20z"/>
<path d="M948 1793 c-10 -2 -18 -11 -18 -19 0 -19 10 -17 40 6 24 19 17 23
-22 13z"/>
<path d="M1975 1780 c36 -24 45 -25 45 -6 0 7 -10 16 -22 20 -44 11 -53 6 -23
-14z"/>
<path d="M1404 1759 c21 -17 24 -24 15 -35 -9 -11 -8 -14 5 -14 9 0 16 6 17
13 0 6 4 3 9 -8 8 -20 9 -20 9 1 1 25 -38 64 -63 64 -15 0 -14 -4 8 -21z"/>
<path d="M2137 1762 c12 -9 19 -22 15 -28 -11 -17 -40 -24 -46 -11 -3 7 -4 1
-3 -13 1 -16 9 -26 22 -27 20 -3 20 -3 0 6 -18 8 -17 10 13 16 24 6 32 13 32
29 0 26 -18 46 -39 46 -12 0 -10 -5 6 -18z"/>
<path d="M1235 1760 c-3 -5 4 -11 15 -15 25 -8 25 -17 1 -39 -18 -16 -51 -13
-51 6 0 5 -5 6 -10 3 -7 -4 -6 -13 1 -27 8 -15 13 -17 19 -9 5 9 9 9 13 -3 4
-9 14 -16 22 -16 9 0 13 5 10 10 -4 6 5 10 19 10 32 0 34 17 4 22 -23 3 -23 4
3 18 l27 15 -34 16 c-19 9 -37 13 -39 9z"/>
<path d="M1673 1750 l-32 -17 25 -12 c22 -9 24 -9 22 7 -2 9 3 16 10 15 6 -2
12 4 12 12 0 8 -1 14 -2 14 -2 -1 -17 -9 -35 -19z"/>
<path d="M935 1745 l-30 -13 28 -13 c40 -18 33 -28 -15 -22 -36 5 -41 3 -30
-8 18 -20 15 -27 -12 -22 -19 4 -28 -1 -39 -23 -15 -28 -14 -29 12 -30 14 -1
20 1 14 3 -10 3 -10 10 -2 25 7 13 14 17 18 10 8 -13 51 -4 51 10 0 5 -4 6
-10 3 -5 -3 -10 1 -10 10 0 12 4 13 18 7 9 -5 23 -7 31 -4 9 3 11 0 6 -8 -5
-8 -2 -11 10 -8 23 4 32 28 11 28 -9 0 -16 5 -16 11 0 5 5 7 12 3 7 -4 8 -3 4
5 -4 6 -11 9 -16 6 -4 -3 -10 2 -14 10 -3 8 3 19 12 24 24 15 3 12 -33 -4z"/>
<path d="M1333 1733 c4 -6 1 -14 -5 -16 -7 -3 -1 -6 13 -6 15 -1 29 -8 33 -16
3 -8 13 -14 23 -14 17 1 17 2 0 6 -15 4 -16 7 -5 21 11 13 11 15 -3 10 -9 -4
-27 1 -40 9 -12 9 -19 12 -16 6z"/>
<path d="M1100 1690 c0 -25 4 -39 10 -35 6 3 10 19 10 35 0 16 -4 32 -10 35
-6 4 -10 -10 -10 -35z"/>
<path d="M1837 1723 c-11 -10 -8 -73 3 -73 6 0 10 18 10 40 0 41 -2 45 -13 33z"/>
<path d="M1694 1707 c-3 -8 -18 -11 -42 -9 -21 3 -33 1 -29 -4 9 -10 14 -11
53 -13 14 0 22 -5 19 -11 -3 -5 1 -10 9 -10 8 0 18 5 22 11 5 8 9 8 14 -1 6
-9 11 -6 20 10 15 28 8 35 -19 18 -17 -10 -23 -10 -33 0 -11 11 -10 12 5 7 9
-4 17 -5 17 -2 0 12 -31 15 -36 4z"/>
<path d="M2045 1691 c3 -5 -2 -17 -11 -25 -14 -15 -14 -16 3 -18 10 0 25 -1
35 0 9 1 22 -5 28 -13 10 -12 10 -15 0 -15 -8 0 -11 -2 -8 -5 3 -3 12 -3 21 1
13 5 14 10 5 30 -12 26 -37 31 -56 12 -9 -9 -12 -9 -12 3 0 8 5 20 12 27 9 9
8 12 -6 12 -9 0 -15 -4 -11 -9z"/>
<path d="M1767 1667 c-7 -11 -24 -19 -39 -19 -18 0 -25 -5 -21 -14 6 -17 20
-18 26 -1 3 9 7 9 20 -2 18 -14 24 -36 7 -26 -5 3 -10 1 -10 -4 0 -14 37 -14
45 -1 4 6 10 8 15 5 4 -3 14 3 21 12 13 15 11 16 -14 9 -36 -9 -63 10 -46 31
7 7 20 11 30 8 12 -4 19 -1 19 7 0 21 -39 16 -53 -5z"/>
<path d="M1330 1655 c0 -8 6 -12 13 -9 8 3 20 -2 27 -11 10 -13 10 -15 -5 -15
-10 0 -16 -3 -12 -6 3 -3 15 -3 26 1 17 5 19 9 9 31 -13 27 -58 35 -58 9z"/>
<path d="M1572 1658 c-7 -7 -12 -19 -12 -27 0 -11 6 -9 24 8 13 12 25 18 27
12 4 -11 49 -4 49 8 0 11 -77 10 -88 -1z"/>
<path d="M2130 1651 c0 -5 13 -24 30 -42 16 -19 30 -41 31 -49 0 -9 2 -10 5
-3 7 16 -32 89 -51 96 -8 4 -15 3 -15 -2z"/>
<path d="M977 1634 c6 -17 23 -19 23 -3 0 6 6 9 13 6 6 -2 11 -15 10 -28 -2
-22 -2 -22 6 -4 8 17 10 18 10 3 1 -20 16 -24 26 -8 4 6 11 8 16 5 5 -4 9 -4
9 -1 0 2 3 13 7 23 6 16 5 17 -12 3 -19 -16 -22 -16 -45 5 -20 18 -70 17 -63
-1z"/>
<path d="M1180 1635 c-9 -11 -17 -12 -32 -4 -11 6 -22 8 -25 5 -8 -8 7 -26 23
-26 8 0 14 -4 14 -10 0 -5 5 -10 10 -10 6 0 10 9 10 20 0 10 8 24 18 29 9 6
12 11 6 11 -6 0 -17 -7 -24 -15z"/>
<path d="M1916 1633 c-5 -11 -14 -14 -36 -10 -24 5 -28 4 -23 -10 4 -10 2 -14
-5 -9 -6 3 -13 2 -17 -4 -9 -14 18 -12 34 3 11 10 14 10 18 0 6 -15 53 -18 53
-3 0 6 -8 10 -17 10 -16 0 -16 1 0 18 17 16 19 16 32 -1 8 -11 23 -17 37 -15
17 2 22 -1 20 -14 -2 -12 3 -15 18 -11 25 7 37 23 16 23 -8 0 -19 8 -25 18 -8
14 -13 15 -30 5 -16 -10 -19 -10 -16 0 3 7 -6 13 -24 14 -19 1 -31 -4 -35 -14z"/>
<path d="M1643 1595 c11 -7 26 -11 35 -8 8 4 13 2 9 -3 -3 -6 -1 -16 4 -24 7
-11 8 -9 6 9 -4 24 -26 39 -57 40 -12 0 -11 -3 3 -14z"/>
<path d="M1376 1579 c-18 -18 -42 -17 -31 2 7 11 -5 12 -22 1 -8 -5 -3 -11 13
-19 14 -6 26 -7 30 -2 3 5 10 9 15 9 6 0 7 -4 4 -10 -4 -6 1 -7 11 -3 12 4 15
3 10 -5 -4 -7 -3 -12 3 -12 20 0 22 20 4 39 -17 18 -19 18 -37 0z"/>
<path d="M1539 1579 c-8 -15 -8 -24 0 -30 6 -5 8 -6 6 -2 -3 4 5 13 17 21 13
7 15 11 6 8 -10 -3 -18 -1 -18 4 0 5 12 11 28 13 l27 4 -27 2 c-19 1 -31 -6
-39 -20z"/>
<path d="M2068 1584 c-16 -8 -28 -17 -28 -20 0 -3 4 -3 8 0 4 2 14 1 22 -4 9
-5 19 -5 27 2 9 7 13 7 13 -1 0 -7 4 -10 9 -7 5 4 11 0 14 -6 3 -10 7 -10 17
-1 10 9 8 16 -10 35 -16 16 -21 18 -17 6 4 -12 2 -15 -7 -12 -8 3 -17 0 -21
-5 -3 -6 -11 -9 -16 -5 -6 3 -3 12 8 20 24 18 15 17 -19 -2z"/>
<path d="M872 1569 c-7 -11 -10 -30 -6 -42 6 -20 5 -21 -11 -7 -17 14 -18 13
-12 -4 6 -14 4 -17 -8 -12 -18 6 -20 -5 -4 -21 9 -9 18 -8 36 5 23 15 26 14
35 -2 6 -10 19 -16 31 -14 12 1 28 -2 36 -6 11 -7 12 -6 6 5 -8 12 -6 12 8 0
9 -7 17 -11 17 -8 0 3 3 12 6 20 4 12 -2 13 -38 7 -47 -9 -61 -5 -38 11 12 9
12 10 -2 5 -10 -3 -18 -1 -18 4 0 6 3 10 8 10 4 0 13 9 19 20 9 14 10 21 1 26
-6 4 -8 3 -5 -3 4 -5 -4 -19 -17 -30 l-24 -21 -11 24 c-10 24 -5 30 23 25 5
-1 4 5 -4 13 -15 20 -13 20 -28 -5z"/>
<path d="M1601 1568 c-7 -11 -9 -29 -5 -41 6 -19 5 -20 -10 -8 -14 12 -16 12
-10 -3 3 -9 2 -16 -4 -16 -6 0 -12 6 -14 12 -3 7 -7 3 -10 -8 -6 -24 14 -29
50 -11 20 9 25 8 34 -6 6 -11 19 -17 31 -15 12 1 28 -2 36 -6 11 -7 12 -6 6 5
-7 12 -6 12 7 1 20 -16 34 1 29 37 -2 15 1 21 8 17 6 -4 11 0 11 10 0 13 -3
14 -14 5 -10 -8 -16 -9 -21 -1 -3 5 4 14 16 18 19 7 20 10 6 15 -10 4 -17 2
-17 -4 0 -6 -4 -7 -10 -4 -5 3 -10 -1 -10 -9 0 -8 -8 -17 -17 -19 -11 -3 -7
-5 10 -6 19 -1 27 -6 27 -20 0 -14 -9 -20 -37 -23 -44 -6 -54 -1 -33 13 12 9
12 10 -2 5 -10 -3 -18 -1 -18 4 0 6 4 10 10 10 16 0 32 38 18 46 -6 4 -8 3 -5
-3 4 -5 -4 -19 -17 -30 l-24 -21 -10 23 c-10 21 -8 25 16 33 24 8 25 9 6 14
-14 3 -25 -1 -33 -14z"/>
<path d="M1040 1572 c0 -4 30 -6 66 -4 60 4 66 3 62 -14 -2 -12 -11 -18 -23
-17 -11 1 -23 -4 -28 -10 -6 -9 -10 -9 -13 -1 -6 13 -52 6 -61 -10 -3 -6 -3
-8 2 -4 4 4 13 3 20 -2 13 -11 8 -70 -6 -70 -5 0 -9 -7 -9 -15 0 -8 5 -15 10
-15 6 0 11 -17 11 -37 l1 -38 16 53 c8 28 18 52 22 52 4 0 14 -24 23 -52 14
-50 15 -51 16 -18 0 19 -6 44 -14 54 -13 18 -13 22 7 40 13 12 17 21 10 24 -8
2 -6 13 8 32 36 51 29 60 -50 60 -38 0 -70 -4 -70 -8z m93 -85 c-7 -34 -36
-33 -41 1 -3 16 1 20 11 16 8 -3 18 0 22 6 11 17 14 8 8 -23z"/>
<path d="M1213 1568 c4 -12 2 -18 -8 -18 -30 0 -14 -15 18 -16 17 -1 26 1 19
3 -6 3 -10 8 -7 13 3 4 -3 14 -12 21 -15 12 -16 12 -10 -3z"/>
<path d="M1782 1571 c-8 -5 15 -8 58 -8 42 0 66 3 58 8 -17 11 -99 11 -116 0z"/>
<path d="M964 1558 c-4 -7 -3 -8 4 -4 7 4 12 2 12 -4 0 -6 7 -18 15 -26 9 -9
15 -11 15 -4 0 6 5 8 10 5 6 -3 10 3 10 14 0 11 -5 23 -12 27 -6 4 -8 3 -5 -2
3 -6 1 -16 -4 -24 -7 -12 -10 -11 -15 8 -7 24 -19 28 -30 10z"/>
<path d="M1948 1551 c3 -9 1 -12 -6 -7 -6 3 -13 2 -17 -4 -3 -5 3 -10 14 -10
11 0 27 -7 36 -16 24 -24 28 -11 5 14 -19 20 -19 22 -3 24 10 0 23 2 30 2 6 1
15 5 19 9 4 4 -13 6 -38 5 -34 -2 -44 -6 -40 -17z"/>
<path d="M1309 1527 c12 -15 11 -17 -3 -17 -16 0 -16 -2 -2 -15 21 -22 28 -19
24 12 -2 14 -10 29 -18 31 -13 5 -13 3 -1 -11z"/>
<path d="M1428 1516 c-5 -25 1 -30 29 -27 9 1 12 -11 11 -37 0 -21 4 -47 10
-58 14 -24 15 -14 3 20 -6 13 -6 26 -2 28 4 2 4 18 -1 37 -5 18 -12 30 -16 27
-3 -4 -11 3 -18 15 -11 22 -11 21 -16 -5z"/>
<path d="M2033 1529 c24 -14 21 -28 -5 -22 -22 4 -22 4 -3 -8 19 -12 19 -12 0
-20 -19 -7 -19 -8 2 -8 12 -1 26 7 32 16 8 14 12 15 25 4 9 -7 23 -11 31 -7
10 4 15 -1 15 -14 0 -11 -5 -20 -11 -20 -6 0 -3 -7 5 -16 12 -12 14 -20 5 -36
-12 -22 -6 -34 11 -23 6 4 9 13 6 20 -2 7 0 17 6 23 12 12 -16 82 -32 82 -5 0
-7 8 -4 18 5 14 3 14 -11 -3 -17 -20 -17 -20 -12 3 5 22 5 23 -12 7 -17 -14
-19 -14 -24 0 -4 8 -14 15 -24 15 -17 -1 -17 -1 0 -11z"/>
<path d="M1344 1519 c-7 -13 21 -33 49 -35 9 -1 17 3 17 8 0 6 -6 8 -14 5 -20
-8 -28 4 -14 22 10 13 10 14 -2 4 -17 -15 -34 -17 -25 -3 3 6 4 10 1 10 -3 0
-8 -5 -12 -11z"/>
<path d="M1774 1518 c-4 -6 -2 -8 4 -4 6 3 14 1 17 -5 4 -5 13 -8 21 -5 7 3
18 -3 23 -12 9 -15 10 -15 11 -1 0 9 -6 21 -12 26 -18 13 -56 14 -64 1z"/>
<path d="M1201 1502 c8 -12 20 -20 28 -17 9 4 11 0 7 -11 -5 -13 -4 -14 7 -6
8 7 18 8 23 4 4 -4 2 1 -5 11 -7 9 -21 17 -30 17 -9 0 -23 6 -30 13 -10 9 -10
7 0 -11z"/>
<path d="M1920 1514 c0 -16 35 -45 45 -37 4 5 5 -1 1 -11 -5 -15 -4 -17 7 -8
8 7 16 10 19 7 2 -3 5 2 5 10 0 9 -10 15 -24 15 -16 0 -22 4 -17 12 5 7 3 8
-6 3 -7 -4 -16 -2 -21 6 -5 8 -9 9 -9 3z"/>
<path d="M1800 1471 c0 -10 -7 -32 -15 -47 -8 -16 -15 -23 -15 -15 0 8 -3 12
-6 8 -3 -3 -3 -11 1 -17 5 -8 11 -7 22 2 15 12 16 6 9 -54 -4 -42 -3 -69 4
-73 5 -3 10 -1 10 5 0 6 4 9 9 6 5 -3 12 2 16 12 6 15 8 14 16 -5 10 -26 35
-21 45 9 9 30 -4 34 -15 4 -13 -32 -23 -34 -21 -3 3 30 -10 68 -21 61 -5 -3
-9 -18 -9 -35 0 -29 -15 -40 -23 -16 -3 11 -1 23 18 97 5 19 4 22 -4 10 -9
-12 -11 -11 -11 8 0 40 36 8 51 -45 13 -47 13 -47 17 -15 2 20 -3 38 -12 48
-9 9 -13 20 -10 25 3 6 -3 13 -15 16 -12 3 -21 12 -21 19 0 8 -4 14 -10 14 -5
0 -10 -8 -10 -19z"/>
<path d="M1906 1464 c-5 -17 -12 -24 -21 -20 -21 8 -19 -18 4 -38 17 -15 19
-15 25 -1 9 24 7 32 -4 15 -9 -13 -10 -13 -10 0 0 19 12 36 29 41 11 4 10 7
-2 17 -12 10 -16 8 -21 -14z"/>
<path d="M802 1463 c-10 -10 -11 -18 -3 -26 5 -7 8 -22 5 -34 -3 -11 -1 -24 5
-27 16 -10 14 -24 -4 -28 -12 -2 -11 -6 6 -16 11 -8 18 -9 15 -3 -4 5 -2 12 4
16 6 3 10 -4 11 -17 0 -15 3 -18 6 -8 3 8 10 18 16 21 5 4 0 10 -11 13 -22 7
-36 47 -27 77 4 10 3 25 -2 33 -7 12 -10 12 -21 -1z"/>
<path d="M1287 1473 c10 -7 8 -13 -7 -26 -11 -9 -20 -12 -20 -7 0 14 -43 5
-48 -10 -3 -9 2 -11 17 -7 11 3 21 1 21 -4 0 -5 13 0 28 11 34 26 61 18 63
-19 2 -23 2 -24 6 -3 5 24 18 29 26 10 3 -7 6 -8 6 -2 1 13 -47 49 -79 58 -15
4 -20 4 -13 -1z"/>
<path d="M878 1446 c5 -19 4 -20 -13 -6 -17 14 -17 14 -7 -5 6 -11 14 -29 18
-40 7 -18 8 -18 12 5 6 35 22 54 36 40 13 -13 26 -13 26 -1 0 10 -32 23 -61
26 -12 1 -15 -4 -11 -19z"/>
<path d="M1586 1461 c-7 -11 29 -85 50 -102 10 -8 15 -9 11 -2 -8 13 28 43 51
43 9 0 11 -7 7 -22 -7 -23 -7 -23 8 -3 9 11 14 21 13 23 -8 7 -65 20 -65 14 3
-20 -3 -23 -18 -11 -10 8 -14 9 -10 2 4 -6 3 -14 -3 -18 -6 -3 -10 4 -10 18 0
28 24 54 35 37 3 -5 11 -10 18 -10 7 0 5 6 -4 16 -18 17 -76 28 -83 15z"/>
<path d="M1730 1451 c-13 -11 -28 -17 -32 -15 -4 3 -8 0 -8 -5 0 -13 57 -15
64 -2 4 5 -4 7 -16 4 -22 -5 -22 -5 -3 10 10 8 25 13 32 10 7 -3 13 0 13 6 0
17 -22 13 -50 -8z"/>
<path d="M1410 1450 c8 -5 10 -10 5 -10 -6 0 -11 -8 -11 -17 -1 -10 -4 -26 -9
-35 -8 -20 3 -23 25 -7 12 8 12 12 2 16 -8 3 -9 9 -4 16 20 27 20 43 -1 45
-17 1 -19 -1 -7 -8z"/>
<path d="M2020 1450 c0 -6 -4 -8 -10 -5 -5 3 -10 1 -10 -4 0 -14 17 -14 25 -1
10 17 28 11 21 -6 -5 -14 -4 -15 8 -5 12 10 15 7 19 -16 4 -22 5 -20 3 7 -1
30 -5 35 -28 38 -16 2 -28 -2 -28 -8z"/>
<path d="M960 1439 c0 -12 8 -16 29 -15 19 0 27 5 24 13 -6 16 -20 17 -29 2
-4 -8 -9 -7 -15 2 -7 11 -9 11 -9 -2z"/>
<path d="M931 1408 c-1 -20 -21 -25 -22 -5 0 6 -4 3 -9 -8 -9 -24 7 -47 19
-26 5 8 10 9 12 2 2 -5 9 1 16 14 6 14 7 23 3 20 -5 -3 -11 1 -13 7 -3 8 -6 6
-6 -4z"/>
<path d="M1277 1396 c3 -4 0 -12 -6 -16 -7 -4 1 -7 18 -8 17 0 40 -4 51 -7 13
-4 20 -2 20 6 0 7 -3 9 -6 6 -8 -8 -46 12 -40 21 2 4 -6 7 -19 7 -13 0 -21 -4
-18 -9z"/>
<path d="M1530 1396 c0 -8 5 -18 10 -21 15 -9 12 -25 -5 -25 -9 0 -18 7 -21
15 -5 11 -10 12 -25 2 -24 -15 -31 -34 -13 -34 8 0 14 6 14 14 0 7 5 13 10 13
6 0 10 -5 10 -11 0 -6 12 -9 27 -7 16 2 28 -2 31 -11 3 -9 0 -11 -8 -6 -9 5
-11 4 -6 -3 9 -15 26 -15 26 0 0 6 -8 29 -17 50 -17 38 -33 50 -33 24z"/>
<path d="M2000 1404 c0 -4 8 -13 18 -20 15 -12 15 -12 -5 -7 -13 3 -23 1 -23
-5 0 -12 85 -10 97 2 4 4 4 7 -2 6 -23 -5 -35 1 -36 18 0 10 -3 12 -6 5 -3 -9
-10 -10 -24 -3 -10 6 -19 8 -19 4z"/>
<path d="M1761 1372 c0 -7 -5 -11 -10 -8 -14 9 -71 -24 -71 -41 0 -12 -3 -13
-14 -4 -11 9 -15 9 -19 -1 -4 -8 -8 -5 -12 10 -5 14 -15 22 -29 22 -20 -1 -20
-1 -3 -11 18 -10 18 -11 0 -31 -18 -21 -18 -21 10 -16 21 4 34 0 49 -16 16
-16 20 -17 15 -4 -11 32 10 28 41 -7 16 -19 36 -35 43 -35 7 0 -6 19 -29 43
-54 55 -54 75 0 38 24 -16 43 -29 44 -28 1 1 -2 25 -6 52 -4 28 -8 44 -9 37z"/>
<path d="M1377 1353 c-4 -3 -7 -11 -7 -17 0 -6 4 -4 10 4 5 8 13 11 17 6 4 -4
-1 -14 -12 -23 -19 -15 -19 -15 5 -8 35 10 13 -12 -37 -37 -21 -10 -28 -16
-15 -14 31 6 28 -18 -4 -30 -24 -8 -24 -10 -9 -29 16 -20 16 -20 12 1 -3 15 0
21 11 20 9 0 18 8 20 19 5 25 32 56 42 50 5 -3 10 1 13 7 3 10 7 10 20 -1 10
-7 17 -9 17 -4 0 16 -22 32 -39 26 -12 -3 -11 0 4 13 16 13 17 16 3 11 -10 -3
-20 -2 -23 3 -7 12 -19 13 -28 3z"/>
<path d="M2104 1346 c-14 -36 1 -42 36 -18 19 14 27 22 18 19 -10 -3 -20 -2
-23 3 -9 15 -25 12 -31 -4z"/>
<path d="M1060 1312 c0 -25 11 -34 28 -23 9 5 7 12 -8 26 -19 18 -20 18 -20
-3z"/>
<path d="M2139 1314 c-7 -9 -30 -23 -51 -31 -21 -8 -35 -19 -32 -25 3 -5 12
-4 21 3 12 11 14 10 11 -7 -1 -10 -7 -23 -13 -27 -6 -5 -4 -7 5 -4 8 2 17 12
19 23 4 25 31 55 42 48 5 -3 9 -1 9 4 0 6 10 8 23 4 20 -5 21 -4 8 11 -17 21
-25 21 -42 1z"/>
<path d="M1400 1265 c0 -9 4 -14 10 -10 5 3 16 -7 25 -22 l16 -28 -6 28 c-4
20 -1 27 10 27 8 0 15 5 15 10 0 7 -6 8 -17 1 -11 -6 -24 -6 -35 0 -14 7 -18
6 -18 -6z"/>
<path d="M1790 1061 c0 -6 -13 -9 -29 -7 l-28 3 21 -33 c12 -18 28 -36 37 -39
11 -4 15 -13 12 -29 -3 -15 1 -25 12 -30 13 -5 16 -2 11 10 -3 8 -6 28 -6 43
0 22 -4 27 -22 27 -29 -1 -36 30 -8 37 13 3 20 0 20 -9 0 -8 5 -14 10 -14 18
0 11 29 -10 40 -13 7 -20 7 -20 1z"/>
<path d="M1411 1036 c-14 -8 -31 -12 -38 -9 -15 6 -18 -23 -4 -32 5 -3 12 -19
16 -35 4 -17 7 -30 8 -30 1 -1 19 -3 39 -6 32 -5 37 -3 32 10 -3 9 -11 13 -16
10 -6 -4 -4 4 3 17 11 22 11 23 -4 11 -9 -8 -21 -11 -26 -7 -7 4 -8 -1 -5 -12
3 -10 -3 -5 -13 12 -18 27 -18 31 -4 46 23 23 55 33 48 15 -4 -10 -1 -13 9 -9
11 4 14 -5 15 -38 1 -24 4 -34 6 -21 2 12 9 22 14 22 12 0 11 -17 -1 -41 -9
-16 -7 -19 10 -19 11 0 20 2 20 4 0 2 3 12 7 22 4 12 3 15 -5 10 -7 -4 -12 -2
-12 4 0 12 -39 71 -55 82 -13 10 -16 10 -44 -6z"/>
<path d="M1490 1030 c0 -17 3 -19 19 -10 33 17 44 12 36 -17 -6 -24 -5 -25 11
-12 9 8 20 13 23 12 3 -2 6 3 6 10 0 6 -4 12 -10 13 -5 0 -23 6 -38 12 -39 17
-47 15 -47 -8z"/>
<path d="M1553 978 c-18 -23 -23 -48 -10 -48 17 0 37 34 28 49 -6 9 -10 9 -18
-1z"/>
<path d="M1611 949 c-11 -12 -21 -29 -21 -36 0 -8 -6 -13 -12 -12 -26 3 -40
-1 -36 -12 2 -7 18 -13 36 -14 17 -2 29 1 27 6 -3 4 -3 19 0 32 5 18 12 23 26
20 20 -6 24 4 10 25 -7 11 -13 9 -30 -9z"/>
<path d="M1305 950 c-6 -10 -2 -12 25 -14 9 -1 16 -13 18 -31 3 -28 6 -30 38
-29 20 1 41 8 48 14 8 10 7 12 -6 7 -10 -3 -20 -2 -24 4 -3 6 -13 8 -21 5 -10
-4 -18 4 -26 24 -11 29 -39 40 -52 20z"/>
<path d="M1720 951 c0 -18 25 -29 48 -20 30 11 28 21 -3 13 -15 -4 -25 -2 -25
5 0 6 -4 11 -10 11 -5 0 -10 -4 -10 -9z"/>
</g>
</svg>
