<?xml version="1.0" standalone="no"?>
<!DOCTYPE svg PUBLIC "-//W3C//DTD SVG 20010904//EN"
 "http://www.w3.org/TR/2001/REC-SVG-20010904/DTD/svg10.dtd">
<svg version="1.0" xmlns="http://www.w3.org/2000/svg"
 width="300.000000pt" height="450.000000pt" viewBox="0 0 300.000000 450.000000"
 preserveAspectRatio="xMidYMid meet">
<metadata>
Created by potrace 1.10, written by Peter Selinger 2001-2011
</metadata>
<g transform="translate(0.000000,450.000000) scale(0.100000,-0.100000)"
fill="#000000" stroke="none">
<path d="M993 4242 c-22 -14 -25 -56 -5 -80 14 -16 19 -38 20 -89 1 -37 6 -88
11 -113 5 -25 17 -97 25 -160 9 -63 21 -145 28 -183 l12 -67 -36 -30 c-20 -17
-42 -46 -48 -66 -7 -20 -18 -48 -26 -62 -15 -29 -19 -102 -6 -102 18 0 61 58
87 118 15 34 33 62 41 62 7 0 14 4 16 10 2 5 17 11 33 12 17 1 36 8 43 15 7 7
22 13 33 13 11 0 18 4 14 9 -3 5 4 13 16 16 15 5 18 10 9 15 -8 5 -7 9 5 13 9
4 13 3 10 -2 -19 -31 64 -13 102 22 25 23 56 78 66 119 4 14 17 48 29 75 20
44 33 153 18 153 -17 0 -81 -80 -86 -109 -4 -18 -18 -54 -30 -80 -13 -25 -24
-51 -24 -57 0 -19 -54 -71 -80 -77 -14 -4 -57 -21 -95 -39 -91 -43 -95 -44
-62 -15 23 19 26 25 14 30 -19 7 -36 86 -46 219 -9 116 0 168 29 168 10 0 22
5 25 10 14 23 27 9 22 -25 -3 -19 -1 -37 4 -40 5 -4 9 -17 9 -31 0 -14 12 -47
26 -75 l25 -51 -20 -15 c-26 -18 -27 -45 -1 -68 11 -10 22 -26 25 -36 4 -11
14 -19 23 -19 14 0 17 10 16 63 0 34 -8 86 -17 116 -24 76 -22 110 14 214 30
91 32 137 5 137 -8 0 -27 11 -43 24 -16 13 -39 22 -53 21 -14 -1 -29 1 -35 5
-5 4 -27 7 -48 7 -21 1 -46 8 -56 17 -20 18 -22 18 -38 8z m28 -25 c-1 -4 -1
-16 -1 -28 0 -11 -4 -17 -10 -14 -14 8 -13 58 1 53 6 -2 10 -7 10 -11z m101
-29 c-6 -24 -21 -40 -33 -32 -10 6 14 54 28 54 7 0 9 -9 5 -22z m78 -23 c0
-16 -6 -25 -15 -25 -28 0 -18 40 13 49 1 1 2 -10 2 -24z m-95 -38 c18 -3 24
-20 14 -39 -6 -11 -16 -15 -27 -11 -12 4 -10 -1 7 -15 23 -21 48 -21 35 -1
-10 17 5 56 21 56 10 0 15 -10 14 -31 0 -26 -2 -28 -9 -11 -7 16 -9 17 -9 3
-1 -9 2 -24 6 -33 5 -15 8 -14 19 6 l13 24 1 -25 c0 -22 -7 -28 -52 -42 -29
-9 -61 -20 -70 -23 -24 -10 -23 11 2 32 22 19 27 44 8 41 -7 -2 -15 12 -19 32
l-6 35 -2 -33 c0 -18 -5 -31 -10 -28 -11 7 -1 59 13 68 6 4 18 5 26 2 8 -3 20
-6 25 -7z m118 -84 c-3 -18 -9 -33 -14 -33 -10 0 -12 50 -3 75 11 27 23 -4 17
-42z"/>
<path d="M1270 3449 c-26 -21 -24 -22 29 -8 8 2 17 -6 22 -21 6 -23 7 -23 8
-3 1 12 -6 29 -15 37 -19 19 -14 20 -44 -5z"/>
<path d="M1145 3431 c-6 -11 1 -93 14 -153 5 -24 14 -68 20 -98 58 -285 74
-371 80 -405 4 -23 10 -46 14 -51 3 -6 8 -27 11 -47 2 -20 9 -51 15 -69 6 -18
21 -71 35 -118 13 -47 36 -123 51 -170 51 -160 84 -295 85 -340 0 -25 7 -58
15 -74 62 -118 202 -679 220 -876 2 -25 9 -85 14 -135 12 -99 14 -391 5 -472
-5 -38 -10 -50 -20 -46 -8 3 -14 0 -14 -6 0 -6 5 -11 10 -11 6 0 10 -9 10 -21
0 -30 14 -16 63 59 59 93 93 191 105 312 11 105 5 412 -8 405 -3 -1 -13 6 -23
15 -18 17 -18 18 0 17 13 -2 17 4 15 18 -2 11 -4 37 -5 58 -1 20 -6 37 -10 37
-5 0 -7 9 -4 20 3 11 1 20 -5 20 -6 0 -8 7 -5 15 4 8 1 17 -4 21 -6 4 -8 19
-5 36 4 20 2 27 -6 22 -7 -5 -9 0 -6 14 3 12 2 22 -3 24 -5 2 -11 24 -12 50
-1 25 -6 43 -11 40 -5 -3 -7 4 -4 16 3 12 2 22 -4 24 -5 2 -10 20 -11 40 -1
20 -5 34 -8 32 -8 -5 -32 94 -25 105 3 5 1 11 -6 13 -6 2 -12 21 -12 41 -1 20
-5 37 -10 37 -4 0 -6 7 -2 15 3 8 1 15 -4 15 -6 0 -10 7 -10 15 0 9 -6 12 -16
8 -11 -4 -12 -8 -4 -13 9 -6 9 -9 -1 -13 -10 -4 -9 -6 4 -6 9 -1 17 -6 17 -12
0 -6 -8 -8 -17 -5 -12 4 -9 -1 7 -15 14 -11 20 -18 13 -15 -6 4 -14 2 -18 -4
-3 -5 -2 -10 3 -10 5 0 12 -9 15 -20 3 -11 0 -20 -6 -20 -7 0 -5 -5 3 -10 8
-5 11 -10 5 -10 -5 0 -2 -5 8 -11 10 -6 14 -15 10 -22 -12 -19 -12 -37 -1 -37
6 0 8 -6 5 -14 -3 -8 -1 -16 6 -19 10 -3 13 -16 20 -79 0 -10 6 -18 11 -18 5
0 6 -3 3 -7 -4 -3 1 -15 10 -26 10 -11 12 -17 6 -13 -7 4 -13 2 -13 -3 0 -6 4
-11 9 -11 14 0 19 -35 9 -54 -7 -13 -4 -22 13 -37 16 -14 22 -29 21 -55 -1
-20 -4 -39 -7 -42 -3 -3 1 -15 8 -26 8 -12 13 -31 12 -44 -1 -12 2 -22 7 -22
4 0 8 -7 8 -16 0 -8 -4 -13 -9 -10 -10 6 -9 -9 3 -35 4 -9 8 -31 9 -50 1 -19
6 -40 10 -46 6 -9 3 -11 -9 -6 -14 5 -15 3 -5 -15 7 -12 9 -22 6 -22 -3 0 2
-12 11 -27 11 -19 11 -22 1 -10 -8 9 -18 17 -23 17 -4 0 -3 -5 4 -12 7 -7 12
-20 12 -29 0 -10 6 -19 13 -22 7 -3 2 -9 -13 -15 -14 -6 -20 -11 -13 -11 18
-1 36 -38 23 -46 -6 -4 -9 -1 -8 6 2 6 -4 14 -12 16 -13 4 -13 3 0 -6 8 -6 11
-11 6 -11 -5 0 -4 -6 2 -13 14 -17 26 -80 13 -73 -5 4 -13 1 -17 -5 -3 -6 0
-15 7 -20 8 -5 10 -9 4 -9 -5 0 -11 -19 -12 -42 -1 -23 -6 -44 -13 -46 -8 -3
-8 -8 1 -18 9 -11 7 -14 -10 -14 -15 0 -20 -4 -14 -12 11 -18 13 -39 3 -33
-11 7 -23 -32 -14 -46 4 -7 -1 -18 -11 -26 -14 -9 -15 -13 -4 -13 12 0 12 -2
0 -9 -8 -5 -16 -17 -17 -26 -3 -18 -12 -31 -18 -24 -2 2 1 50 7 105 7 69 7
141 1 220 -6 66 -9 120 -8 122 1 2 10 -10 20 -27 10 -17 21 -31 24 -31 10 0 6
145 -5 153 -7 6 -6 10 3 14 6 2 12 22 12 43 0 31 -5 42 -22 51 -20 11 -21 10
-11 -2 7 -8 10 -32 7 -54 -2 -22 -5 -44 -5 -50 -1 -5 2 -18 6 -27 4 -12 3 -18
-5 -18 -9 0 -8 -7 4 -24 9 -15 12 -27 6 -31 -18 -11 -38 41 -45 120 -12 142
-64 400 -121 607 -20 70 -32 133 -28 139 5 8 3 9 -6 4 -10 -6 -11 -2 -6 19 4
16 3 25 -2 22 -6 -3 -15 16 -23 42 -17 63 -17 66 1 74 10 4 6 7 -11 7 -16 1
-30 8 -34 19 -11 28 -33 187 -30 216 2 14 -1 26 -6 26 -5 0 -9 11 -9 25 0 14
-4 25 -9 25 -13 0 -21 53 -9 67 14 18 2 44 -17 37 -8 -3 -15 -1 -15 4 0 6 10
13 23 15 18 3 16 5 -8 7 -30 2 -30 2 -5 10 23 7 23 8 3 9 -30 1 -40 21 -11 21
l23 0 -25 20 c-14 11 -19 20 -12 20 18 0 15 20 -3 20 -11 0 -14 7 -9 25 4 15
2 25 -4 25 -6 0 -16 15 -22 34 -6 19 -16 37 -23 39 -8 3 -7 10 6 24 22 25 22
47 1 39 -11 -4 -15 -2 -11 8 3 8 -3 22 -14 32 -20 18 -26 44 -9 44 7 0 7 7 0
21 -7 11 -9 31 -6 44 4 15 -1 32 -15 49 -19 24 -19 26 -3 26 16 0 16 1 -2 16
-16 13 -16 15 -1 10 24 -8 21 11 -4 24 -22 12 -20 37 2 32 8 -1 4 6 -8 17 -13
11 -23 30 -23 43 0 12 -7 45 -15 73 -14 46 -14 51 2 64 15 11 15 13 2 8 -12
-4 -18 2 -22 21 -3 15 0 30 6 34 8 5 6 8 -5 8 -11 0 -20 11 -24 28 -3 15 -7
33 -10 40 -2 6 1 12 7 12 6 0 6 6 0 19 -6 10 -7 21 -4 25 3 3 1 6 -5 6 -7 0
-12 17 -12 44 0 34 4 46 18 49 16 4 16 5 0 6 -10 0 -18 6 -18 11 0 13 -17 13
-25 1z"/>
<path d="M1295 3381 c-3 -5 3 -16 13 -23 10 -7 24 -26 30 -43 l12 -30 -5 30
c-4 17 -13 35 -22 42 -8 6 -12 16 -8 22 3 6 2 11 -4 11 -5 0 -12 -4 -16 -9z"/>
<path d="M1335 2860 c-4 -7 -3 -15 2 -19 13 -9 46 -138 39 -156 -3 -8 -2 -15
3 -15 5 0 11 -9 14 -21 3 -12 10 -18 16 -15 6 4 5 18 -3 39 -7 17 -21 66 -31
107 -19 80 -28 99 -40 80z"/>
<path d="M1446 2790 c4 -19 7 -43 7 -52 1 -10 5 -14 9 -10 4 4 1 28 -7 52 -12
38 -14 39 -9 10z"/>
<path d="M1424 2525 c2 -27 6 -57 9 -65 14 -36 35 -120 30 -120 -3 0 -1 -6 5
-12 5 -7 15 -40 22 -73 7 -33 17 -65 22 -72 5 -7 7 -16 4 -21 -3 -6 3 -32 13
-58 22 -57 43 -138 45 -174 1 -14 5 -30 8 -35 3 -6 8 -23 12 -40 4 -16 15 -39
24 -49 16 -18 16 -18 -6 -7 -22 12 -22 11 -10 -11 7 -13 18 -26 23 -30 6 -5 5
-8 -3 -8 -9 0 -9 -7 3 -30 9 -16 20 -30 26 -30 8 0 8 -4 0 -14 -9 -11 -9 -16
-1 -21 7 -4 10 -16 7 -26 -3 -10 -1 -22 5 -25 6 -4 5 -10 -3 -15 -11 -7 -9
-10 9 -15 18 -5 20 -9 11 -20 -8 -9 -8 -18 -2 -26 6 -7 9 -23 8 -35 -1 -13 3
-23 8 -23 5 0 7 -6 4 -14 -3 -8 2 -16 14 -19 18 -5 19 -2 13 31 -4 21 -10 42
-15 47 -4 6 -8 20 -8 30 0 30 -35 165 -90 355 -16 52 -58 203 -94 335 -37 132
-73 263 -81 290 l-15 50 3 -50z"/>
<path d="M1530 2380 c8 -5 11 -12 8 -16 -4 -3 0 -13 8 -21 8 -8 12 -18 9 -23
-3 -5 0 -12 6 -16 8 -4 9 -3 5 4 -4 7 -2 12 3 12 6 0 11 5 11 11 0 5 -5 7 -11
3 -8 -4 -9 1 -4 17 5 20 4 21 -5 9 -10 -13 -11 -12 -7 5 3 16 -1 21 -17 23
-16 1 -18 -1 -6 -8z"/>
<path d="M1563 2269 c14 -8 16 -14 6 -25 -9 -11 -9 -18 3 -32 9 -9 19 -29 24
-44 10 -30 26 -38 32 -16 2 9 0 8 -8 -2 -10 -12 -11 -11 -7 8 3 12 1 22 -4 22
-5 0 -9 5 -9 11 0 7 -7 17 -17 24 -10 7 -13 17 -8 25 6 10 11 9 22 -5 7 -11
13 -14 13 -8 0 7 -7 18 -15 26 -8 8 -11 17 -8 21 4 3 -5 6 -18 6 -22 -1 -22
-2 -6 -11z"/>
<path d="M1606 2111 c-4 -7 -3 -17 2 -24 6 -7 12 -24 14 -39 2 -14 10 -33 17
-42 12 -14 12 -16 -4 -10 -13 5 -16 4 -11 -4 4 -7 14 -12 22 -12 16 0 19 26 4
35 -8 5 -7 12 2 23 11 13 11 14 -1 7 -11 -6 -13 -3 -9 12 6 24 -25 72 -36 54z"/>
<path d="M1500 2054 c0 -20 30 -124 36 -124 2 0 2 17 -1 38 -4 20 -7 48 -9 62
-4 38 -5 40 -16 40 -5 0 -10 -7 -10 -16z"/>
<path d="M1620 1962 c0 -4 9 -13 20 -20 12 -7 18 -17 15 -22 -3 -5 0 -12 6
-15 13 -9 15 -6 23 25 6 20 5 22 -4 10 -10 -12 -11 -11 -7 8 4 18 3 21 -8 12
-9 -8 -15 -8 -20 0 -7 12 -25 14 -25 2z"/>
<path d="M1716 1322 c13 -8 35 -78 27 -86 -3 -2 5 -9 16 -16 14 -7 21 -7 21 0
0 5 -4 10 -8 10 -5 0 -9 18 -10 41 -2 50 -7 59 -35 59 -13 0 -17 -3 -11 -8z"/>
<path d="M1768 1117 c4 -26 2 -29 -14 -24 -18 7 -18 6 0 -8 11 -8 23 -15 26
-15 12 0 8 69 -4 73 -9 3 -11 -4 -8 -26z"/>
</g>
</svg>
